<?xml version="1.0" standalone="no"?>
<!DOCTYPE svg PUBLIC "-//W3C//DTD SVG 1.1//EN" "http://www.w3.org/Graphics/SVG/1.1/DTD/svg11.dtd" >
<svg xmlns="http://www.w3.org/2000/svg" xmlns:xlink="http://www.w3.org/1999/xlink" version="1.1">
<metadata>
Created by FontForge 20150102 at Mon Feb  9 07:19:14 2015
 By uniteet7
Copyright (c) 1999, 2002, 2006 Parachute?, www.parachute.gr.  All rights reserved.
</metadata>
<defs>
<font id="PFKidsProGradeOne" horiz-adv-x="624" >
  <font-face 
    font-family="PFKidsProGradeOne"
    font-weight="400"
    font-stretch="normal"
    units-per-em="1000"
    panose-1="2 0 5 6 0 0 0 2 0 3"
    ascent="750"
    descent="-250"
    x-height="279.5"
    cap-height="499"
    bbox="-216 -296.429 713 798"
    underline-thickness="20"
    underline-position="-143"
    unicode-range="U+0020-2122"
  />
<missing-glyph horiz-adv-x="509" 
d="M131 -49q-14 5 -17 9t-3 14q0 46 -0.5 96t-0.5 96q0 106 -2 211t-22 210q-9 1 -10 3.5t1.5 6t5.5 8t3 10.5q0 10 7 14t17 4q6 0 14 -2q29 -3 52.5 -4.5t46.5 -3t47 -2t54 -0.5q11 0 28 1.5t34 1.5q21 0 40.5 -4t19.5 -18q0 -72 -5.5 -144t-11.5 -144.5t-10.5 -145.5
t-2.5 -147q7 -6 7 -16q0 -8 -7.5 -19t-19.5 -13q-33 0 -66.5 -3.5t-67 -7.5t-66.5 -7.5t-65 -3.5zM373 550q-26 -74 -46.5 -144t-40.5 -137q11 -30 20 -53t18 -44.5t20 -46t26 -57.5q3 85 3 179q0 51 -0.5 100.5t-0.5 98.5v53t1 51zM338 567q-41 0 -81.5 2t-81.5 6
q20 -46 41.5 -108t44.5 -126q16 54 34 108t43 118zM162 14q12 39 22.5 72.5t19.5 63.5t17.5 58t16.5 57l-40 108t-39 104q6 -83 6 -172q0 -78 -1.5 -149t-1.5 -142zM200 7q33 1 70.5 5t73.5 7q-11 18 -18 38.5t-16 38.5q-11 22 -22.5 47t-22.5 53q-16 -51 -32 -98t-33 -91z
" />
    <glyph glyph-name=".notdef" horiz-adv-x="509" 
d="M131 -49q-14 5 -17 9t-3 14q0 46 -0.5 96t-0.5 96q0 106 -2 211t-22 210q-9 1 -10 3.5t1.5 6t5.5 8t3 10.5q0 10 7 14t17 4q6 0 14 -2q29 -3 52.5 -4.5t46.5 -3t47 -2t54 -0.5q11 0 28 1.5t34 1.5q21 0 40.5 -4t19.5 -18q0 -72 -5.5 -144t-11.5 -144.5t-10.5 -145.5
t-2.5 -147q7 -6 7 -16q0 -8 -7.5 -19t-19.5 -13q-33 0 -66.5 -3.5t-67 -7.5t-66.5 -7.5t-65 -3.5zM373 550q-26 -74 -46.5 -144t-40.5 -137q11 -30 20 -53t18 -44.5t20 -46t26 -57.5q3 85 3 179q0 51 -0.5 100.5t-0.5 98.5v53t1 51zM338 567q-41 0 -81.5 2t-81.5 6
q20 -46 41.5 -108t44.5 -126q16 54 34 108t43 118zM162 14q12 39 22.5 72.5t19.5 63.5t17.5 58t16.5 57l-40 108t-39 104q6 -83 6 -172q0 -78 -1.5 -149t-1.5 -142zM200 7q33 1 70.5 5t73.5 7q-11 18 -18 38.5t-16 38.5q-11 22 -22.5 47t-22.5 53q-16 -51 -32 -98t-33 -91z
" />
    <glyph glyph-name=".null" horiz-adv-x="0" 
 />
    <glyph glyph-name="nonmarkingreturn" horiz-adv-x="333" 
 />
    <glyph glyph-name="space" unicode=" " horiz-adv-x="320" 
 />
    <glyph glyph-name="exclam" unicode="!" horiz-adv-x="180" 
d="M138 627q-3 -41 -5.5 -84t-8 -85.5t-15 -84t-26.5 -78.5q-8 -6 -18 0t-8 17q13 47 16.5 97.5t6 101.5t7 101.5t19.5 96.5q18 1 26 -7.5t9.5 -21t-0.5 -27.5t-3 -26zM130 121q1 -10 -4.5 -18.5t-13 -15.5t-16 -13.5t-13.5 -12.5q-11 -4 -19.5 -1t-15.5 9.5t-13.5 15.5
t-12.5 16q-5 12 -2.5 21t9 15.5t14.5 12t14 11.5q23 1 41.5 -12t31.5 -28z" />
    <glyph glyph-name="quotedbl" unicode="&#x22;" horiz-adv-x="344" 
d="M139 740l35 34q5 -17 20.5 -31t34 -26.5t35.5 -25.5t24.5 -28t1.5 -33t-34 -42zM139 574q-39 0 -55 10t-22 27t-7.5 41t-11.5 53l13 49q10 -27 33 -47.5t41.5 -40.5t25 -41.5t-16.5 -50.5z" />
    <glyph glyph-name="numbersign" unicode="#" horiz-adv-x="475" 
d="M379 181q-2 -8 1.5 -18.5t6 -21.5t1 -20t-13.5 -13q-15 0 -21 7.5t-8.5 18.5t-4.5 22.5t-10 19.5l-133 -16q-3 -13 -0.5 -27.5t4.5 -29.5t0.5 -29t-12.5 -26q-12 1 -18 7.5t-9 15.5t-3.5 20t-0.5 23q0 17 -4 28q-9 5 -21 2t-23.5 -5.5t-20 1t-9.5 20.5q1 12 8.5 16
t17.5 5t21 2t19 8q3 11 0.5 29.5t-10.5 34.5q-11 2 -22 0t-21 -2.5t-17 3.5t-9 19q3 13 10.5 16t16.5 2.5t19 -1.5t18 5q6 12 3.5 24.5t-6.5 25t-5 25t8 24.5q19 -2 26 -12.5t10 -24.5t5.5 -28.5t11.5 -24.5q14 5 30.5 6.5t33.5 3t33 5t29 11.5q2 16 -5.5 33.5t-13 33.5
t-3.5 30t22 23q12 -12 18 -27t9 -30.5t4.5 -31.5t5.5 -31q7 -6 17 -7t20 -2.5t18.5 -5.5t13.5 -16q2 -18 -4.5 -21.5t-16 -2t-20.5 3.5t-19 -6q4 -7 3.5 -14.5t-0.5 -14.5t2.5 -12.5t12.5 -9.5h56v-33zM318 236q0 32 -14.5 39t-35.5 3.5t-44 -11t-40 -4.5q-2 -18 2 -32
t4 -30l128 19v16z" />
    <glyph glyph-name="dollar" unicode="$" horiz-adv-x="497" 
d="M358 347q2 -15 -3 -28t-12 -25q-15 -14 -32 -23.5t-36 -15.5q-4 -42 2 -80.5t8 -80.5q10 -7 11 -15.5t-2 -18.5t-7.5 -19.5t-6.5 -18.5q-5 -6 -9.5 -3.5t-9.5 3.5l-12 20q-2 48 0.5 99.5t-7.5 99.5q-12 -2 -26 -5t-27.5 -4t-26.5 0.5t-23 8.5q-1 8 4.5 12.5t11.5 8.5
q20 -10 45.5 -5.5t46.5 12.5l-3 96q-23 -2 -42 6.5t-30 19.5q-8 21 4.5 36t25.5 27q21 6 26.5 17.5t4 26.5t-5.5 31.5t-1 33.5q0 15 -4 26.5t-4 25.5q0 10 4 19q7 0 11 -4t6 -9.5t3.5 -11.5t4.5 -11l14 -113q2 -1 10 0t17 2.5t17.5 3.5t10.5 3q15 -7 15 -26q-4 -2 -13 -3
t-19 -2t-19 -2t-14 -3q-2 -15 0.5 -32.5t3.5 -34.5q12 -3 25 -5t25 -6t22 -11.5t16 -21.5zM238 401q0 11 -1.5 22t-6.5 18q-3 -5 -9 -9.5t-11 -9t-8 -10t0 -11.5h36zM338 341q-4 8 -11.5 11.5t-16.5 5.5t-18 3t-17 4l3 -82q10 4 20.5 8.5t19.5 11t14.5 15.5t5.5 23z" />
    <glyph glyph-name="percent" unicode="%" horiz-adv-x="484" 
d="M224 502q8 -26 1.5 -51t-17.5 -44q-14 -12 -30.5 -22.5t-34.5 -16.5t-36 -5t-35 13q-9 15 -11.5 34t0 38t8.5 37t13 32q15 15 32.5 28t35.5 15q17 2 41.5 -13.5t32.5 -44.5zM358 595q-7 -36 -17 -84.5t-22 -103.5t-25.5 -112.5t-27.5 -110t-28 -97.5t-27 -75q-3 0 -9.5 4
t-13 9.5t-12 11t-7.5 8.5q9 26 22 68t28.5 91.5t31 104t30 105t25.5 94t17 71.5q0 8 4 15t9.5 10.5t11.5 2t10 -11.5zM446 81q-8 -13 -17 -23t-19 -16t-21 -6.5t-23 6.5q-20 7 -37 25.5t-26 41.5q-3 13 -3.5 27.5t3 27.5t11.5 23.5t21 16.5q14 -5 30 -7t31 -6t27 -13.5
t19 -30.5q0 -14 5 -26t5 -24q0 -9 -6 -16zM193 450q7 12 5.5 26t-8 23.5t-15.5 12.5t-17 -7q-11 10 -16.5 3t-10 -16t-9.5 -13t-15 12q-8 -9 -12 -20.5t-5.5 -23.5t-1.5 -24t2 -21q29 -6 57.5 6.5t45.5 41.5zM420 121q-4 17 -15.5 26.5t-25.5 7.5q-8 -2 -14.5 -6.5
t-11.5 -13.5q-3 6 -10.5 6.5t-7.5 10.5l-6 -20q8 -20 23 -38t35 -18q12 5 22.5 17.5t10.5 27.5z" />
    <glyph glyph-name="ampersand" unicode="&#x26;" horiz-adv-x="400" 
d="M366 64q4 -1 -1.5 -7.5t-14.5 -14.5t-18.5 -16.5t-12.5 -13.5l26 -55q-14 -2 -22.5 -8t-12.5 -6q-2 0 -6.5 8t-10.5 17.5t-14 17t-16 5.5q-11 8 -29.5 12t-32.5 9q-20 8 -39 15.5t-36 18t-32 25t-26 35.5q-10 28 -9 57t11 55t28 48.5t43 37.5q-24 42 -39 84t-28 91
q-6 25 0 42t17.5 30t25 25t21.5 29q15 12 30.5 13t31.5 -4t31 -13.5t29 -15.5q11 -11 18 -26.5t11.5 -32t8.5 -33.5t9 -31q0 -30 -9.5 -56.5t-26 -49t-37.5 -40t-43 -29.5q10 -38 21.5 -65.5t25.5 -53.5q14 -25 29 -51.5t32 -62.5q2 -1 8.5 3.5t14 10t14 10.5t9.5 5
q5 -1 10.5 -9t10.5 -10zM245 379q14 23 17 46t-1 46q-5 23 -13.5 44.5t-17.5 42.5q-38 16 -57 12.5t-30 -17.5q-5 -8 -9 -16.5t-8 -17.5q-6 -22 -15 -38q3 -24 10 -43.5t17 -36.5q10 -18 20 -34.5t19 -34.5q17 1 30 11t24 21zM164 89q21 -12 44 -22t46 -22
q-22 54 -49.5 106.5t-60.5 100.5q-27 -14 -36.5 -41.5t-6.5 -55.5q8 -23 25 -38.5t38 -27.5z" />
    <glyph glyph-name="quotesingle" unicode="'" horiz-adv-x="172" 
d="M134 725q1 -27 -4.5 -56t-16 -56t-25.5 -49.5t-32 -36.5h-20l-6 29q12 24 21.5 50t19.5 51t22 47t29 37l12 -16v0z" />
    <glyph glyph-name="parenleft" unicode="(" horiz-adv-x="389" 
d="M292 594q0 -18 -12.5 -22.5t-26.5 -9.5q-29 -34 -53 -63.5t-43 -63t-33.5 -76.5t-24.5 -105q5 -29 16.5 -51.5t25.5 -41.5t28 -36t23.5 -34t12.5 -35.5t-6 -40.5q-25 17 -47 40.5t-41 51t-35 57t-28 58.5q2 57 13.5 114t34 110.5t56 99.5t78.5 80q8 -3 18.5 -3.5
t20.5 -2.5t16.5 -7.5t6.5 -18.5z" />
    <glyph glyph-name="parenright" unicode=")" horiz-adv-x="346" 
d="M293 224q-8 -32 -24.5 -59t-36.5 -52t-42.5 -49t-42.5 -49q-8 -6 -17.5 -4.5t-17 7.5t-12 15t-2.5 18q30 29 63.5 60.5t56.5 70.5t30 89t-16 116q-8 39 -32.5 63.5t-55 45t-62 42.5t-53.5 56q4 21 18 26t31 -3l121 -97q33 -27 52 -61.5t28.5 -73.5t11.5 -80t2 -81z" />
    <glyph glyph-name="asterisk" unicode="*" horiz-adv-x="556" 
d="M436 334q-47 -6 -71.5 -10t-33.5 -15.5t-6.5 -35.5t8.5 -70q-6 -12 -12 -10t-12 13t-12 27t-12 31.5t-12 27.5t-12 14q-15 -5 -23.5 -16.5t-14.5 -25.5t-10.5 -29t-11 -27.5t-17 -20.5t-28.5 -7q-24 14 -21 27t15.5 25.5t27 25t14.5 25.5l-13 17l-63 24q6 10 19.5 13
t29 4.5t30.5 2.5t24 7q-2 22 -15.5 41t-24.5 39l10 45q6 -11 14.5 -26t17.5 -28.5t19 -22.5t19 -8l64 69q5 -11 2 -23t-9 -24t-14 -24.5t-13 -24.5q17 -6 33 -3.5t33.5 3.5t37 -4t43.5 -26z" />
    <glyph glyph-name="plus" unicode="+" horiz-adv-x="497" 
d="M384 285q-15 -2 -26 -1t-20 3t-17 3.5t-17 1.5q-14 0 -32 -7q-6 -18 -5 -39t2 -41t-1.5 -38.5t-15.5 -32.5q-26 8 -31.5 27t-2.5 41.5t9 46t4 40.5l-121 16q-1 5 -1.5 11.5t-0.5 14.5t0.5 14.5t1.5 11.5q20 -6 33.5 -7t26 -0.5t26 1t32.5 -2.5q8 7 9.5 28t3 44t6 43
t17.5 24q10 -5 13.5 -24.5t3.5 -42.5t-2 -44.5t-2 -30.5q19 -3 30.5 -4t21 -2.5t21 -5t29.5 -10.5q10 -4 10 -18q0 -13 -5 -20z" />
    <glyph glyph-name="comma" unicode="," horiz-adv-x="122" 
d="M114 33q0 -2 -5 -17t-16 -37q0 -2 -1.5 -7t-3.5 -10.5t-4.5 -10t-4.5 -4.5q0 -5 -7.5 -20t-9.5 -26q0 -4 -4 -8.5t-9 -8t-9.5 -5.5t-7.5 -2q-4 0 -7 3t5 26q4 12 8 26t8 31q0 1 1 8.5t2 16.5q0 2 0.5 3.5t0.5 2.5t1 2q1 0 0.5 10.5t0.5 13.5q2 3 2 5.5t1 5.5t5 6.5
t15 7.5l6 1.5t4 0.5h5q4 0 11 -4q11 -5 13 -10z" />
    <glyph glyph-name="hyphen" unicode="-" horiz-adv-x="468" 
d="M367 324q-44 -1 -82 -6.5t-74.5 -11.5t-73 -10t-78.5 -3v50q33 10 70.5 10.5t75.5 0.5q39 0 76.5 2.5t70.5 16.5q20 -7 25.5 -15t-10.5 -34z" />
    <glyph glyph-name="period" unicode="." horiz-adv-x="209" 
d="M150 103q10 -14 7.5 -25.5t-11.5 -21t-21 -18t-21 -17.5q-13 -7 -25 -4t-23 11t-20.5 19.5t-17.5 21.5q2 9 4.5 19t7 18t12 13t19.5 5q26 4 46 -4t43 -17z" />
    <glyph glyph-name="slash" unicode="/" horiz-adv-x="460" 
d="M384 615q12 -23 5.5 -52.5t-24 -63.5t-42.5 -71t-51.5 -75.5t-50 -77t-37.5 -75.5q-11 -29 -26 -50t-32 -41t-34 -42t-32 -52h-40q44 79 85 160t84 158.5t90.5 149.5t104.5 132z" />
    <glyph glyph-name="zero" unicode="0" horiz-adv-x="497" 
d="M450 374q-16 -49 -34 -97.5t-40.5 -95t-51 -89t-65.5 -79.5q-29 -17 -63 -24.5t-68 4.5q-12 12 -26 24.5t-26.5 26.5t-22 29.5t-13.5 33.5q-5 55 -0.5 108.5t16 105t28.5 100.5t38 94q16 17 34.5 35t39 30t43 15t46.5 -10q15 5 31.5 10t32.5 5q17 0 32.5 -6t28.5 -24
q11 -21 22 -45t18 -48.5t8 -50.5t-8 -52zM423 441q-7 2 -15.5 6.5t-7.5 16.5q5 6 8.5 12.5t10.5 4.5q-7 11 -16 26t-20.5 28t-25 21t-28.5 5q-6 2 -8.5 -1t-4 -7.5t-3 -9.5t-4.5 -7q-11 5 -21 -1t-19.5 -13.5t-19 -12.5t-20.5 1q-3 6 -4.5 17t7.5 14l-17 5
q-45 -23 -68.5 -64.5t-36 -91t-21 -102t-24.5 -98.5q-5 -37 6 -74t42 -63q18 -19 38 -21t40 5t40 20t38 24q67 76 103.5 166.5t50.5 193.5z" />
    <glyph glyph-name="one" unicode="1" horiz-adv-x="497" 
d="M404 2q-5 -2 -10.5 -3t-10.5 -4q-34 7 -69.5 11t-71 7.5t-70.5 8t-68 12.5q-6 7 -4.5 11.5t6 8t9 6.5t6.5 8l101 -20q3 36 3 75q0 59 -1 118t8 113q7 43 10 94t4 94q-8 -15 -25.5 -35.5t-39 -40t-43.5 -36t-38 -23.5q-11 0 -14 10l-1 4q-1 1 -1 4q0 2 -2 4q16 17 39 39
t47 46t43 48.5t24 44.5q14 8 29 8.5t26 -10.5l15 -16l-21 -84q-16 -115 -20 -227t2 -221q-4 -13 9 -16l4 -1q7 -2 8 -3q16 -2 31.5 -3t32.5 -1q35 0 62 -13q2 -8 -1 -12t-8 -6z" />
    <glyph glyph-name="two" unicode="2" horiz-adv-x="497" 
d="M439 31q-16 12 -28 20t-23 15t-24 13.5t-31 14.5q-21 9 -35.5 13.5t-26.5 7t-23.5 4.5t-26.5 6q-9 -20 -20 -41.5t-25.5 -41t-33.5 -34t-43 -19.5q-10 -5 -18 -4.5t-14.5 4t-13 8.5t-14.5 9q-17 31 -15 68t23 66q15 14 34 21t39 8.5t40 -0.5t38 -5q17 43 31 93t17 100.5
t-10.5 98t-52.5 85.5q-4 7 -16.5 7.5t-29 -1t-33.5 -4t-30 -1t-19 7.5t0 21q12 3 30.5 10t40.5 10.5t46.5 1.5t48.5 -17q30 -42 43.5 -92t13.5 -104t-11.5 -106t-31.5 -98l-1 -13q37 -12 66 -21.5t55.5 -21t54.5 -25.5t64 -35q-4 -12 -12 -16t-23 -13zM185 140
q-25 10 -52 2.5t-48 -22.5q-14 -25 -18 -53.5t15 -51.5q23 2 40 15t29 32t20 40t14 38z" />
    <glyph glyph-name="three" unicode="3" horiz-adv-x="392" 
d="M237 -18q-18 -12 -38.5 -15t-41.5 0t-41 11t-36 19q-7 9 -18 17t-20 17t-13 20t2 26q9 2 13.5 -1.5t8 -8.5t7.5 -10.5t10 -7.5q12 -11 25 -21.5t27 -17.5t29.5 -8.5t33.5 4.5q21 4 39 13.5t36 20.5q20 37 27.5 84.5t-8.5 90.5q-9 15 -22 24.5t-28 16.5t-30.5 12.5
t-29.5 12.5q-10 5 -19 12.5t-19 19.5q17 8 30 4t28 -11q5 -2 9 -3.5t9 -2.5q23 2 43.5 13t28.5 34q5 21 9 44t3 45.5t-9 42.5t-28 35q-10 12 -24 14t-29.5 -2.5t-32.5 -13.5t-33 -20l-5 7q-3 5 -5.5 9.5t0.5 10.5q0 12 13.5 22t32.5 17.5t39 11t33 2.5q18 -12 34.5 -28
t25.5 -36q14 -22 19 -50t2.5 -56.5t-11 -55.5t-20.5 -48l-36 -20q18 -15 34.5 -33t28 -39t16.5 -44.5t0 -49.5q-7 -18 -16 -37t-21 -36.5t-27 -32t-35 -24.5z" />
    <glyph glyph-name="four" unicode="4" horiz-adv-x="383" 
d="M363 213q-14 0 -24 -7q-29 4 -60 3t-56 -1q-11 -23 -16.5 -48.5t-13.5 -48.5l-61 -193q-6 -3 -10.5 -5t-12.5 -2q-7 21 -4 38.5t9.5 33.5t14 32t8.5 35q3 42 14.5 80t19.5 77q-13 4 -35.5 9.5t-46.5 11t-46 10.5t-34 8q-5 12 -2 20.5t9.5 15t14.5 12.5t14 13
q23 28 53.5 55.5t62.5 55.5t62.5 55t51.5 54q5 0 8 0.5t6 0.5q9 0 10 -7q-6 -36 -17 -71t-22.5 -69.5t-21.5 -69.5t-14 -72l162 -3q-1 -4 -0.5 -6l1.5 -6q1 -2 1.5 -5t-1.5 -6q-6 0 -12 0.5t-12 -0.5zM63 279q5 -1 10.5 -3t12.5 -4q8 -3 17 -7.5t18 -12.5q11 -2 19.5 -4
t15.5 -4q7 -1 13 -2t14 0l51 176z" />
    <glyph glyph-name="five" unicode="5" horiz-adv-x="401" 
d="M403 540q-5 -14 -18.5 -19t-24.5 -4l-188 20q-12 -21 -17 -45.5t-9 -49.5t-9.5 -49.5t-19.5 -46.5q12 -3 24 -4t24 -1t23.5 -1t23.5 -6q29 -16 41.5 -41.5t15.5 -54.5t0 -60t-6 -59q-7 -16 -11 -35.5t-11 -37t-19 -31.5t-34 -19q-23 -17 -52.5 -23t-54.5 5q-10 6 -21 10
t-20.5 9t-15 13t-4.5 22q12 4 23 0t21 -11l20 -14t22 -8q29 8 58.5 23t43.5 43q12 24 18.5 52t7 57.5t-6 57.5t-21.5 52q-14 17 -34 22.5t-39 -0.5q-25 -19 -55 -22l-7 10q15 34 24 71t16.5 74.5t16.5 74.5t24 71q24 -9 58 -12.5t69.5 -7t68.5 -8.5t55 -17z" />
    <glyph glyph-name="six" unicode="6" horiz-adv-x="423" 
d="M362 566q-44 11 -84 -5t-72.5 -47t-56.5 -71.5t-36 -77.5q-11 -24 -12.5 -52t-9.5 -51q14 11 31 25t36.5 25t41 16.5t45.5 0.5q24 -2 38.5 -20t28.5 -38q21 -85 -9.5 -151.5t-105.5 -120.5q-21 -11 -47 -7t-45 14q-37 33 -51 77.5t-15 93.5t6 98.5t13 92.5l32.5 65
t38.5 63t50.5 55t67.5 40q15 6 33 10t36 4t34.5 -5t28.5 -17zM273 253q-4 17 -20.5 26.5t-33.5 9.5q-35 -8 -66.5 -26.5t-54.5 -45.5q-11 -8 -12 -18.5t-1 -23.5q0 -4 -0.5 -9t-1.5 -10q0 -21 -0.5 -36.5t4.5 -28.5t17.5 -24t38.5 -22q12 -11 22.5 -9.5t20 8.5t19 16
t19.5 13q15 26 25 45.5t15 39t7 42t2 53.5z" />
    <glyph glyph-name="seven" unicode="7" horiz-adv-x="483" 
d="M171 367q1 0 9 -1.5t20 -3.5l21 -3q8 -1 25 -5.5t31 -7.5q24 36 49.5 71t54.5 69q-5 10 -15 14t-22 5.5t-25 2t-23 3.5q-33 -2 -64 3.5t-61 12t-60.5 10t-61.5 -2.5q-6 9 -10 20.5t2 20.5q17 16 34.5 16.5t35 -5.5t34.5 -15t34 -11l253 -33l13 -21q-68 -83 -123 -168
q5 -1 9.5 -2t8.5 -2t8 -1t9.5 -1t13.5 -3.5t21 -7.5q14 -5 18 -10.5t3 -10.5t-5.5 -8.5t-8.5 -4.5q-3 -1 -15 1t-27 6t-30.5 7.5t-25.5 5.5q-49 -78 -91 -157t-80 -164q-7 0 -15 -4.5t-16 3.5v36q35 75 73.5 147.5t83.5 144.5q-21 4 -42.5 8.5t-25.5 5.5q-3 1 -8.5 4t-11 7
t-9 7t-3.5 5t15 17z" />
    <glyph glyph-name="eight" unicode="8" horiz-adv-x="400" 
d="M337 553q-5 -1 -10 -1.5t-10 -2.5q-11 -2 -18 -6q-17 -35 -32 -62t-29 -52q-14 -26 -25.5 -53t-21.5 -65q23 -12 44 -30t37 -40.5t25.5 -49t9.5 -56.5q-6 -14 -10 -31t-9 -34t-12 -32.5t-20 -26.5q-15 -7 -31.5 -15.5t-33 -13.5t-33.5 -4t-34 13q-9 16 -23.5 28.5
t-26.5 26.5q-13 14 -19.5 30.5t0.5 41.5q14 49 30 91t42 85q-17 16 -32 38t-24.5 48.5t-11 54.5t8.5 56q11 21 27.5 34.5t36 23t40.5 16.5t41 15q29 11 50 26q16 -5 22 -6t11 -1q4 0 9 -0.5t19 -2.5l26 -21q5 -10 0.5 -14.5t-13.5 -7.5zM164 508q-21 -12 -38 -27.5
t-25 -38.5q-3 -28 6.5 -55.5t36.5 -41.5q33 48 60.5 101.5t49.5 105.5q-23 -12 -46 -22t-44 -22zM225 234q-12 11 -26.5 21t-31.5 10q-10 -17 -21.5 -34t-21.5 -34q-11 -18 -18.5 -37.5t-10.5 -43.5q10 -17 17 -37.5t17 -34.5q11 -14 32.5 -17.5t61.5 12.5q10 20 20 42
t14.5 45t1 46.5t-18.5 46.5q-6 7 -15 15z" />
    <glyph glyph-name="nine" unicode="9" horiz-adv-x="385" 
d="M322 310q-9 -14 -20.5 -18.5t-22 -8.5t-19 -12t-11.5 -28q-4 -28 -19 -70t-33.5 -86t-36.5 -84.5t-28 -65.5q-8 -6 -19 -1.5t-12 16.5q6 25 20 65.5t31 84t33.5 83t27.5 63.5q-20 1 -33.5 -3.5t-29 -10t-38 -10t-60.5 -3.5q-22 44 -20.5 88.5t14.5 88t31 86t28 84.5
q20 31 48 53.5t70 24.5q10 -6 22 -10t24 -8.5t22 -11.5t16 -20q12 -67 6 -131t-37 -121q0 -12 11.5 -13.5t22.5 -1t17 -2t-5 -17.5zM253 367q3 30 12 63.5t12 65t-7 59.5t-44 49q-14 -4 -25.5 -8t-20.5 -15q-18 -37 -37.5 -74.5t-35.5 -76.5t-26 -80.5t-9 -86.5
q51 2 89.5 16t78.5 31q0 1 1.5 10t3.5 19t4 18.5t4 9.5z" />
    <glyph glyph-name="colon" unicode=":" horiz-adv-x="486" 
d="M302 450q2 -15 1.5 -30.5t-5 -28t-13.5 -20t-24 -5.5q-17 0 -33 13t-22 31q-6 17 -2 29.5t12.5 21.5t19 15t18.5 9q6 -6 12.5 -8t13 -5t12.5 -7.5t10 -14.5zM282 186q-4 -14 -13.5 -21.5t-21 -10t-23 -0.5t-18.5 8q-12 5 -16.5 17t-4 26t4 28t7.5 23q17 21 39 22.5
t38.5 -10.5t21 -34t-13.5 -48z" />
    <glyph glyph-name="semicolon" unicode=";" horiz-adv-x="436" 
d="M271 201q2 -25 -10 -47.5t-39 -20.5q-23 6 -31 15t-16 33q0 19 11.5 30t27 14t32 -3t25.5 -21zM242 65q-3 -22 5 -47.5t11 -49.5t-7 -44t-49 -30q-6 -2 -15.5 -1t-19 5t-18 10t-11.5 15q0 21 9.5 25t22.5 4t25.5 1.5t18.5 16.5l8 95h20z" />
    <glyph glyph-name="less" unicode="&#x3c;" horiz-adv-x="308" 
d="M242 190q-2 -5 -5.5 -10t-8.5 -7l2 -1q-12 -5 -16 -14h-3q-7 3 -26.5 12t-40.5 20.5t-37.5 22.5t-17.5 19q-3 0 -5.5 -3t-4.5 -3q-4 2 -5 8.5t-1 13.5q0 8 0.5 15.5t-1.5 11.5q-7 -1 -7 -3q-1 -3 0.5 -6t0.5 -6t-6 -1q-2 11 -6.5 29t-4.5 38q0 5 3.5 14.5t7.5 19.5
t7.5 17.5l3.5 7.5l5 10q7 14 12.5 29t23.5 17q-3 3 -2 6q2 5 17 18t40 34q2 6 8.5 7.5t14 0.5l15 -2t12.5 0q-2 -5 2 -8q2 -1 4.5 -1.5t4.5 -2.5q-5 -12 -5 -22q0 -9 -5 -21q-1 -4 -8 -8t-15.5 -7.5t-16.5 -6t-12 -4.5q-3 -9 -9.5 -14.5t-13.5 -11t-13.5 -11t-9.5 -14.5
q-3 -7 -1 -15q-6 -2 -12.5 -4.5t-8.5 -9.5q-2 -5 1 -11t7 -12.5t7.5 -13.5t2.5 -14l3 3q3 -5 22.5 -18t41.5 -26q11 -7 26 -15t33 -18l4 -8q-1 -5 -1.5 -10.5t-2.5 -10.5z" />
    <glyph glyph-name="equal" unicode="=" horiz-adv-x="336" 
d="M267 377q-3 -20 -16 -24.5t-30 -4t-35 2.5t-30 -4q-19 3 -34 -3t-28.5 -14.5t-28 -16t-31.5 -7.5q3 7 3 15.5t1 16.5t4.5 14t13.5 7q20 3 40.5 6.5t36.5 14.5q12 -4 25.5 -3t27 3.5t26.5 5.5t25 3q16 0 30 -12zM319 262q-4 -18 -15 -22.5t-25 -4t-28.5 3t-25.5 -2.5
q-23 0 -43.5 -4.5t-40.5 -10t-40 -10.5t-42 -7q-9 3 -8.5 13t5.5 15q57 21 124 29.5t131 11.5z" />
    <glyph glyph-name="greater" unicode="&#x3e;" horiz-adv-x="275" 
d="M243 297q-6 -3 -9 -7t-4.5 -8t-3 -8.5t-5.5 -8.5q-8 -10 -15 -15t-17 -13q-17 -14 -35.5 -26t-35.5 -22.5t-31 -17.5t-22 -10l-2 -1q-2 6 -7 10t-10 6h2q-11 6 -14 18q-2 6 4 16t7 11l6 3q-3 6 12.5 17.5t36 23.5t39 23t21.5 16l3 -4q-1 7 3 14.5t8.5 14.5t7.5 13t1 11
q-3 7 -9.5 10t-13.5 5q2 9 -1 16q-3 9 -9.5 14.5t-14 10.5t-14 11t-9.5 16q-4 2 -13 5t-18 6.5t-16 7.5t-7 8v15q0 11 7.5 18.5t33.5 7.5q20 0 39 -16q19 -15 34 -33t33 -49l5 -10q4 -2 9 -13t10 -23q5 -15 11 -32l4 -19z" />
    <glyph glyph-name="question" unicode="?" horiz-adv-x="339" 
d="M288 365q-24 -45 -65.5 -70t-101.5 -25l-8 -31q-4 -16 -7 -26.5t-6 -19.5t-7.5 -18.5t-11.5 -22.5q-8 -5 -15.5 -2.5t-9.5 8.5q11 20 15.5 42.5t8 46t8 46t14.5 41.5q5 5 11 0t9 -12q1 -9 10 -13.5t23 -0.5q24 7 37.5 14.5t23 17.5t17.5 23.5t21 33.5q1 20 0 46
t-6.5 51.5t-16.5 47t-29 32.5q-8 5 -19.5 5.5t-22 1t-18 4t-8.5 15.5q-6 4 -2.5 9t9.5 7q12 3 23 1t21 -5.5t19.5 -7.5t20.5 -7q18 -19 35 -48t28 -61t12.5 -64.5t-12.5 -58.5zM108 44q11 -8 2.5 -18.5t-18.5 -12.5q-11 -3 -22.5 -9t-23.5 2q-6 3 -8.5 8.5t-2.5 11.5
q0 14 7 23q7 4 13 12.5t15 7.5q14 4 24 -5t14 -20z" />
    <glyph glyph-name="at" unicode="@" horiz-adv-x="535" 
d="M372 190q-10 28 -20 55.5t-20 53.5q-2 -17 -6 -36t-11 -36.5t-17.5 -32t-24.5 -23.5q-16 -7 -31.5 -8t-32.5 6q-15 9 -21 23t-8 30t-1.5 32.5t-1.5 30.5l22 94q16 18 33.5 33.5t36.5 32.5l9 -10q3 -9 0 -14t-8 -8.5t-11 -7.5t-9 -10q-31 -45 -39.5 -96.5t5.5 -102.5
q2 -5 8 -7t11 -4q19 12 33 29.5t23 38t12 42.5t0 43q-7 24 -8.5 48t-9.5 48q5 9 14 9.5t17 3.5q18 -61 35 -123.5t45 -116.5q0 -5 9 -8t17 -5q17 -4 27.5 7.5t16 29.5t7 38t1.5 32q0 43 -9.5 86.5t-29 79t-50.5 58t-74 22.5q-69 0 -123.5 -40t-81.5 -110
q-20 -51 -20.5 -94.5t25.5 -91.5q27 -52 67 -81.5t100 -29.5q11 0 22 1.5t24 1.5q18 0 25 -13q7 -10 2 -21t-13 -19q-7 -7 -15 -7.5t-17 2t-19 7t-20 7.5q-33 9 -61.5 19.5t-52.5 26t-44 37.5t-36 52q-29 56 -30 105t22 108q32 85 99.5 129.5t158.5 44.5q49 0 85 -23.5
t60 -61t35.5 -85t11.5 -96.5q0 -21 -2 -48.5t-9.5 -52t-22 -41t-39.5 -16.5q-11 0 -22.5 4.5t-21 10t-16.5 11t-10 7.5z" />
    <glyph glyph-name="A" unicode="A" horiz-adv-x="410" 
d="M383 -6q-5 -3 -10 -4.5t-10 -3.5q-6 -1 -13 -1.5t-15 -0.5l-12 29q0 75 -10.5 151.5t-15.5 159.5q-17 -3 -38 -6.5t-30 -6.5q-8 -2 -17 -4t-22 -4q-21 -48 -40.5 -90.5t-40.5 -85.5q-21 -42 -44.5 -83t-53.5 -80q-7 -1 -14 -1.5t-14 1.5q-12 1 -13 11q5 19 16.5 38t25 39
t26.5 40.5t22 41.5q26 61 55 121.5t57.5 121.5t54 123.5t44.5 128.5q8 5 15.5 11.5t15.5 10.5q6 2 12.5 1t15.5 -13q5 -127 10.5 -255t24.5 -263zM256 463q-7 -15 -17 -31q-10 -17 -19 -34.5t-18 -41.5q11 3 25 5t28 3t26 2t19 2q2 27 -5.5 68t-9.5 95q-7 -19 -12 -30.5
t-8 -18.5t-5 -11z" />
    <glyph glyph-name="B" unicode="B" horiz-adv-x="425" 
d="M320 68q-6 -14 -16 -23t-22 -18q-4 -3 -7.5 -6.5t-8.5 -7.5q-42 -20 -85 -12.5t-85 30.5q-2 12 -3.5 23t-1.5 22v43q1 22 0 43.5t-6 42.5q-8 66 -19 131.5t-9 132.5q-3 8 -2.5 16t-0.5 17q-1 8 -4 16t-13 17q11 18 22.5 24t28.5 13q5 2 8.5 4t8.5 6q18 3 37.5 7.5t39 6
t38 -2t34.5 -15.5q26 -26 38 -61.5t10 -72.5q-4 -13 -7.5 -26t-8.5 -26q-4 -12 -9.5 -24t-15.5 -26q46 -26 74 -69.5t27 -91.5q-5 -29 -16 -58t-26 -55zM241 303q-32 -4 -59.5 -20.5t-53.5 -33.5q-2 -26 0.5 -48t4.5 -44l12 -94q14 -7 27 -9.5t27 -3.5q14 0 27.5 0.5
t29.5 1.5q11 11 18.5 23.5t14 26l13 27t15.5 25.5q7 19 4.5 38.5t-11 38t-20.5 34.5t-25 28zM88 531q10 -57 20.5 -111.5t15.5 -114.5q17 8 30.5 13t24.5 11q13 7 24 16t18 23q9 17 19 35t16 37t4.5 38t-15.5 38q-15 12 -34.5 20.5t-40.5 11.5t-42 -1t-40 -16z" />
    <glyph glyph-name="C" unicode="C" horiz-adv-x="428" 
d="M402 125q-29 -15 -55.5 -30t-52.5 -26.5t-53.5 -18.5t-58.5 -6q-21 6 -44.5 13.5t-44.5 21.5q-21 11 -31.5 26t-15 32t-6 35.5t-4.5 36.5q9 45 15 88.5t18.5 83.5t36 75.5t66.5 64.5q9 -1 17 3t15.5 8.5t16 7.5t18.5 0q6 -3 13.5 -6t14 -7.5t10.5 -10.5t1 -14
q-9 -9 -21 -10t-23 -1q-8 0 -17 -3q-44 -25 -68.5 -57t-37 -70t-16 -81t-4.5 -90q3 -29 14.5 -56t44.5 -42q32 -7 59 -2.5t52.5 16t50.5 27t53 29.5q4 -6 11 -8t14 -5t11 -8t1 -16z" />
    <glyph glyph-name="D" unicode="D" horiz-adv-x="479" 
d="M152 -17q-14 -2 -14 -12q-2 -6 3 -14q2 -7 1.5 -9.5t-7.5 -4.5l-27 6q-17 84 -22.5 162t-7.5 155t-6 154.5t-18 160.5q0 9 4 11.5t12 4.5q5 2 9 3.5t8 3.5q7 4 12 15q17 2 31 8.5t30 13.5q14 5 26.5 6.5t26.5 -7.5q38 -19 66 -49.5t54 -62.5q22 -41 43.5 -85.5t35 -90.5
t15.5 -92.5t-15 -92.5q-16 -45 -37.5 -78t-52.5 -54.5t-72.5 -34t-97.5 -17.5zM230 573q-7 6 -14.5 13t-16 12t-17.5 6.5t-20 -3.5q-21 -14 -36.5 -34.5t-22.5 -42.5q6 -68 9.5 -127t7 -116.5t9 -117.5t15.5 -129q46 5 78.5 12t55 19.5t38 32t28.5 50.5q23 54 21.5 112
t-19.5 114t-49 107.5t-67 91.5z" />
    <glyph glyph-name="E" unicode="E" horiz-adv-x="387" 
d="M365 406q-1 -3 -2 -5.5t-2 -4.5q-4 -7 -13 -9q-26 1 -51.5 6.5t-50.5 10.5q-26 5 -53 7t-56 -5q-3 -36 -10 -70t-15 -67.5t-15.5 -68t-11.5 -71.5q42 8 86.5 11t81.5 11q11 -2 13.5 -10.5t3.5 -22.5q-26 -9 -53 -13l-54 -8t-53.5 -9t-51.5 -16q-8 6 -18 9q-4 1 -6.5 2
t-4.5 5l25 110q-8 14 -4.5 29.5t5.5 29.5q7 45 17.5 89t20.5 88.5t17.5 89.5t8.5 92q4 6 12 7q11 1 18 8q29 -1 56 -1.5t53 -0.5t52 -2t53 -6q-1 -14 -4 -26.5t-13 -20.5q-22 -5 -40 -5.5t-38 7.5l-111 3q-7 -28 -11 -56t-2 -60l3 -1q22 -1 44 -4.5t44 -6.5t44.5 -4t44.5 3
l13 -9q11 -5 19.5 -9.5t13.5 -16.5q-2 -2 -2.5 -4.5t-2.5 -4.5z" />
    <glyph glyph-name="F" unicode="F" horiz-adv-x="524" 
d="M169 579q-10 -26 -12 -51t-3 -48q-1 -6 -1 -12v-12q0 -19 -1 -34t-9 -44q12 3 17 6t9 6q2 2 3 3.5t3 2.5q7 1 13.5 2t14.5 2l94 24q34 9 62 16t31 7q11 -1 21 -5t17 -16l-7 -31q-7 -2 -25 -6.5t-41 -10t-48.5 -12t-48 -11.5t-39.5 -8t-23 -3q-17 -1 -34.5 -5t-31.5 -21
q-1 -26 -3.5 -48.5t-7.5 -45.5q-9 -45 -21 -90q-11 -45 -20.5 -89t-11.5 -93q-15 -4 -24 -8q-12 -3 -21 -2q-9 37 -4.5 72t14.5 69.5t20.5 69t13.5 70.5q4 48 12 92l16 88t15 89.5t9 95.5q-7 14 -3.5 29t11.5 17l323 55q8 -2 14.5 -8.5t5.5 -16.5q1 -8 -4.5 -16t-11.5 -10z
M452 638h1v-3z" />
    <glyph glyph-name="G" unicode="G" horiz-adv-x="567" 
d="M519 343q-16 -7 -32.5 -13.5t-30.5 -17.5q-2 -4 -5.5 -5t-8.5 -3q-8 -2 -12.5 -4.5t-9.5 -7.5q10 -64 -9 -126t-70 -107q-28 -25 -58.5 -45.5t-72.5 -29.5q-16 -1 -33 0.5t-33 6.5t-29.5 14.5t-22.5 24.5q-35 73 -43.5 150.5t5.5 153.5t49 147.5t88 133.5q8 1 14.5 4
t14.5 6q8 4 15 8t14 7q14 6 26 5t21 -17q4 -8 -1 -11t-13 -6t-17.5 -7t-14.5 -14q-31 -30 -61.5 -66.5t-54 -77t-35.5 -85.5t-6 -91q4 -29 3.5 -61t1.5 -64q3 -32 23.5 -57t44.5 -51q22 -6 40 -6q26 0 46 10.5t45 30.5q22 19 39.5 42.5t28 50.5t13.5 56.5t-5 60.5
q-22 -1 -38.5 -6t-32.5 -12q-15 -7 -31 -14t-34 -14q-12 -10 -26.5 -13t-23.5 -4q-2 0 -5 3l-6.5 6.5l-7 7l-4.5 4.5q-1 0 1.5 3t5.5 6.5t5.5 7t1.5 5.5q32 22 62 44.5t65 39.5q9 1 19 1.5t20 -0.5q10 -2 22.5 1t21.5 -5q13 1 25.5 6.5t24 13t22.5 15.5t23 14q22 10 41 3
t39 -17q-6 -13 -17.5 -20.5t-26.5 -14.5z" />
    <glyph glyph-name="H" unicode="H" horiz-adv-x="487" 
d="M67 531q-1 7 -1 14v15t0.5 16.5t1.5 16.5q-6 4 -9 5l-6 2l-3 2q5 8 9 16.5t9 16.5q2 3 3.5 5.5t3.5 4.5q5 7 11 8.5t18 -15.5q2 -64 9.5 -128t10.5 -136q48 -8 92.5 -4.5t92.5 11.5q17 72 14.5 143.5t-14.5 140.5q0 5 5 12q4 9 9 16q7 4 15 0l9 -6l8 -6l15 -290
q11 -6 25 -5.5t23 -1.5q8 -2 9 -10t-1 -13q-1 -3 -11.5 -7.5t-22 -9.5t-20.5 -10t-8 -8l-5 -383q-2 -2 -7 4.5t-11 14.5t-11.5 15t-8.5 6q-2 12 -3 30.5t-2.5 40.5t-2 44t-0.5 42v43q1 35 2 69.5t-1 72.5q-26 2 -48 0t-43 -6q-21 -5 -42.5 -9.5t-46.5 -9.5
q-8 -85 -8.5 -167.5t-13.5 -163.5q-14 -2 -21 5t-11 18l-6 297q1 12 1.5 26t0.5 30q0 24 -1 49.5t-2 50t-3 47t-3 39.5z" />
    <glyph glyph-name="I" unicode="I" horiz-adv-x="368" 
d="M275 19q-4 8 -19 7t-32.5 -5t-33 -9t-21.5 -5q-4 1 -12 1t-12 1q-3 1 -9.5 -1.5t-14 -5t-13.5 -3.5t-8 2q-15 11 -19 19t-9 25q4 0 12 2l16 4t15.5 3t11.5 -1q11 -5 22 1t28 16q-2 45 -5 83t-6.5 72.5t-8.5 67.5t-11 67v157q-3 7 -11.5 7.5t-19 -1.5t-21 -5.5t-17.5 -5.5
l-13 -3q-11 -3 -21.5 -3.5t-17.5 13.5q-2 3 0.5 4t5.5 1.5t5.5 2t0.5 4.5q-7 8 -7 16q25 6 50 12.5t56 10.5l4 22q3 -1 10 -1q8 0 11 -1q6 -1 10.5 -3t8.5 -9q17 -7 33 -4.5t33 4.5q14 2 24.5 -0.5t17.5 -14.5q1 -7 2.5 -10.5t3.5 -6.5t3.5 -6.5t2.5 -9.5q-10 -8 -29 -8
q-11 1 -22.5 3t-22.5 3q-25 3 -39.5 -19.5t-4.5 -67.5l4 -54q-2 -16 -3.5 -24t-1.5 -14t1.5 -12.5t4.5 -20.5l12 -54q2 -14 3 -28t3 -28q4 -33 6 -66q1 -17 3 -34t8 -35q15 -5 27 -5h20h14.5h20t19 -1.5t11.5 -4.5q-2 -7 -6 -14t-1 -12q0 -1 -3.5 -2t-8 -2t-8 -2t-3.5 -2
q1 -2 -2.5 -1.5t-8 1.5l-9 2t-5.5 0z" />
    <glyph glyph-name="J" unicode="J" horiz-adv-x="372" 
d="M397 508q-21 -1 -36 -1.5t-29 -2t-29 -5t-35 -10.5q-4 -68 -13.5 -135.5t-27 -132.5t-44 -128t-65.5 -121q-21 -20 -50 -31t-60 -3q-51 14 -80 53t-47 84q7 1 11 6.5t7 11.5t7 11t13 5q-2 -33 16 -56t37 -45q9 -4 19 -10t20 -10t21 -4.5t22 7.5q39 36 60.5 79t35.5 89.5
t25 94.5t29 92l21 150l-95 -15l-33 32q25 17 44 22t38 4.5t40.5 -3t50.5 -0.5q22 -1 40.5 4.5t35.5 9t33 -0.5t34 -24z" />
    <glyph glyph-name="K" unicode="K" horiz-adv-x="385" 
d="M116 264l-1 5l-1 -4zM116 264q8 -72 9.5 -140t11.5 -140q-16 -21 -35 -18l-13 13q-12 151 -26 308t-33 307q1 13 11 18.5t27 7.5l39 -227q18 17 32 32.5t26.5 31t26 31.5t31.5 35q20 21 35 39t34 46q12 -2 23 -10.5t3 -25.5q-23 -34 -49.5 -63t-53.5 -57t-53 -57.5
t-47 -65.5q36 -28 70.5 -65t66 -78.5t58 -85t46.5 -84.5q-5 -11 -15 -15.5t-21 -6.5q-16 16 -22.5 37.5t-18.5 37.5q-42 54 -80 104.5t-83 90.5z" />
    <glyph glyph-name="L" unicode="L" horiz-adv-x="369" 
d="M343 83q-29 -5 -55.5 -7.5t-51.5 -5t-50 -6.5t-52 -12q-7 1 -13.5 -4t-13 -9.5t-13.5 -4t-16 13.5q8 85 12 167t3 170q0 29 1 44.5t1 27.5q0 13 -1 28.5t-4 45.5l-12 -6q2 16 3.5 30t5 24t12 16t23.5 6q9 -63 12.5 -108.5t4.5 -87t0 -84.5t-1 -101q-6 -58 -9 -121
q27 6 51 9t49 6t50.5 6t55.5 9q8 -11 14 -23t-6 -23z" />
    <glyph glyph-name="M" unicode="M" horiz-adv-x="508" 
d="M469 -18q2 -8 -5 -7t-15 3q-13 3 -19.5 11.5t-11.5 18.5q-5 12 -9.5 31t-9 40.5t-8.5 43t-7 37.5q-6 32 -11.5 60.5t-13.5 45.5q-6 32 -15 63t-20 64t-22.5 69.5t-22.5 80.5l-39 -329q-3 -2 -5.5 -3t-5.5 -3q-8 -5 -15 -6q-5 -1 -11.5 4t-11.5 27q-5 26 -15 62.5t-22 74
t-25 72t-24 56.5q-3 -15 -6 -46.5t-5.5 -68t-4.5 -73t-2 -62.5v-19.5t1 -13.5q-4 -27 -5.5 -61t-2 -69t-1 -68t-2.5 -59q2 -20 -19 -11q-8 3 -15 3q-2 1 -6 1q-3 0 -5 1t-5 3t-3 8q-1 17 1 56t6 88.5t8.5 104.5t8.5 104.5t7 88.5t3 56q-1 32 1.5 61.5t10.5 57.5q3 1 8 6
q28 20 56 4q8 -43 33 -97t52 -119q6 20 11.5 52.5t10.5 67.5q5 31 8 57.5t5 34.5q21 5 43.5 0.5t28.5 -20.5q17 -45 32 -100.5t27 -108.5t21.5 -96.5t15.5 -65.5q3 -11 9.5 -38t13.5 -57t13 -55.5t7 -33.5q2 -8 3 -13.5t2 -9.5v-5z" />
    <glyph glyph-name="N" unicode="N" horiz-adv-x="516" 
d="M445 435q-4 -22 -6 -46.5t-7 -63.5q-9 -78 -17 -155t-25 -155q-10 -5 -17 -15l-5 -4q-3 -3 -7.5 -3.5t-14.5 4.5q-8 55 -24.5 106.5t-37.5 102.5t-44 103.5t-49 118.5q-10 -84 -28 -152t-37 -134t-35.5 -133t-21.5 -137l-14 -10q-4 -2 -8 -4.5t-9 -7.5q-14 11 -20.5 21.5
t-1.5 20.5q26 87 44 175t34.5 176.5t33.5 177t41 177.5q11 7 20 5.5t12 -8.5q11 -17 11 -32v-16.5t1 -16.5q0 -13 3 -25q11 -48 28 -91.5t36 -88.5t39 -90.5t40 -105.5q15 78 23 143t16 129q5 32 6 49.5t3 32.5q2 14 7.5 31t16.5 49q13 6 26.5 0t23.5 -18q-17 -38 -24.5 -63
t-11.5 -47z" />
    <glyph glyph-name="O" unicode="O" horiz-adv-x="456" 
d="M415 336q-14 -40 -34.5 -76.5t-39.5 -74.5q-19 -27 -51 -52.5t-68 -43t-73 -23.5t-65 5q-11 7 -22.5 17.5t-20.5 24.5q-8 5 -10 17t-5 20v51t1.5 45.5t5 46t11.5 52.5q9 31 24 64t34.5 64t42.5 57t48 42q13 6 27.5 11.5t29.5 8t29.5 0t27.5 -12.5q16 6 33 5t32.5 -8.5
t27.5 -22t18 -35.5q15 -57 13 -100.5t-16 -81.5zM232 536q-11 -3 -20 -8q-20 -11 -39.5 -39t-36 -59t-29 -57.5t-17.5 -35.5q-3 -30 -7.5 -56.5t-7.5 -52.5q-3 -25 -2.5 -49t8.5 -50q16 -11 36.5 -16.5t40.5 -1.5q39 20 68.5 38t53 40.5t42 52.5t34.5 73q0 15 7.5 43
t13.5 59q6 32 6.5 58t-10.5 37l-15 15t-19 9q-1 -8 -9 -5.5t-13 0.5q-8 -2 -16.5 -5.5t-16.5 -7.5l-7 -3q-34 -17 -50.5 -21.5t-22.5 -1.5q-5 4 -3 11.5t4 9.5t9.5 7t15.5 11l10 6z" />
    <glyph glyph-name="P" unicode="P" horiz-adv-x="486" 
d="M426 377q-14 -19 -32 -36.5t-39 -31t-45 -22.5t-50 -10q-21 2 -38.5 9.5t-34.5 16.5q-18 10 -34.5 17.5t-37.5 11.5q-11 -39 -12 -79.5t-8 -79.5l-42 -232q-8 -6 -15.5 -6.5t-14.5 2.5t-12.5 9t-8.5 12q8 41 16.5 97.5t17 116t15.5 115t11 93.5q11 52 23.5 86.5t24 57.5
t21 36.5t14.5 23.5l-1 -1q26 35 59 62.5t75 37.5q23 1 46.5 -0.5t44.5 -8t38.5 -20t29.5 -35.5q13 -26 20.5 -58t7 -64.5t-9.5 -63.5t-29 -56zM264 629q-63 -43 -96.5 -109t-42.5 -138q30 -9 60 -17.5t56 -26.5q38 -4 72.5 9.5t58.5 42.5q14 22 22.5 49t10.5 56t-3 57
t-18 51q-23 29 -55.5 31.5t-64.5 -5.5z" />
    <glyph glyph-name="Q" unicode="Q" horiz-adv-x="486" 
d="M409 209q-5 -27 -21 -52q-8 -14 -16 -26.5t-16 -25.5q4 -13 12.5 -27t18.5 -29t20 -31t17 -33q3 -8 7 -14.5t7 -14.5q-2 -12 -6.5 -15.5t-14.5 -1.5q-5 1 -10 1.5t-10 0.5l-15.5 31t-18 34.5t-18.5 33.5t-16 28q-34 -32 -72 -48t-83 -10q-21 3 -42 11t-38.5 20.5
t-30.5 30.5t-18 42q-23 62 -21 120.5t20 112t48 100.5t64 86q32 23 62.5 32t58.5 8t53.5 -9.5t48.5 -19.5q9 -8 18.5 -15.5t17.5 -16.5q8 -8 14.5 -17.5t8.5 -21.5q13 -35 12 -68.5t-8 -65.5q-8 -33 -18 -65.5t-15 -64.5zM306 526q-24 6 -48.5 2t-45 -12t-35.5 -17.5
t-20 -14.5q-20 -36 -36 -70.5t-27 -73.5q-9 -36 -13 -65.5t-5 -51t-0.5 -34.5t0.5 -15q5 -17 10 -35.5t13 -34.5t21 -27.5t33 -14.5q21 -8 41.5 -7t39.5 9t36.5 20.5t32.5 26.5q-5 15 -11 30l-12 30q-3 8 -12.5 22t-20 30t-19.5 30.5t-10 23.5l32 7q4 0 11 -5.5t14 -12.5
t13 -13.5t8 -8.5q11 -19 22.5 -40t19.5 -45q15 23 23.5 44t13.5 42q6 21 10.5 42.5t11.5 41.5q4 18 5 47t-7 59t-28.5 55.5t-60.5 35.5z" />
    <glyph glyph-name="R" unicode="R" horiz-adv-x="438" 
d="M246 268q-2 1 7 -19.5t23 -51.5t30.5 -67t30.5 -67t23 -52t8 -21q-3 -1 -6 -8t-7.5 -13t-11 -8t-15.5 7q-1 0 -8 16t-16 36q-5 12 -13 28l-16.5 33t-17 33.5t-14.5 29.5q-13 27 -24 56.5t-28 61.5q-22 -5 -34.5 -7t-30.5 -12q-11 -32 -18.5 -62.5t-12.5 -61.5
q-5 -27 -9 -54t-9 -54q-8 2 -14 0.5t-11 -3.5q-7 -4 -12 -4t-8 3q-8 10 -8.5 22.5t2 26.5t7.5 29.5t9 30.5q16 58 29 118.5t25.5 121.5t27 121.5t33.5 119.5q4 4 12 -2q5 -3 9 -6t9 -5l-1 -36q30 11 62.5 18t61 4t50.5 -17.5t32 -46.5q6 -20 8 -43t-1.5 -45.5t-12.5 -42.5
t-25 -34q-24 -21 -51.5 -37t-61.5 -27zM132 300q6 0 21 2t30.5 5t28.5 5.5t16 3.5q34 6 66.5 24t49.5 47q8 21 14 48t-8 52q-3 14 -12.5 24.5t-29.5 14t-52 -1t-80 -20.5q-14 -52 -27.5 -100.5t-16.5 -103.5z" />
    <glyph glyph-name="S" unicode="S" horiz-adv-x="396" 
d="M314 90q7 16 -1 35t-17 32q-18 24 -39 45t-44 40t-47 37t-48 38q-16 21 -29 49t-17.5 56.5t3 55.5t32.5 46q11 9 30.5 15t41.5 8.5t43 1.5t36 -6q18 -6 22.5 -10t2.5 -8.5t-7 -10.5t-6 -16q-5 2 -25 2.5t-43 0.5q-22 0 -41 -1t-24 -3q-8 -13 -15.5 -25t-5.5 -26
q4 -34 23.5 -57t44.5 -41.5t52 -36t46 -40.5q36 -31 56.5 -76.5t34.5 -88.5q-5 -25 -16 -43t-19 -41q-10 -4 -16.5 -12t-12.5 -17t-13 -17t-18 -12q-39 -15 -77 -8t-68 33q-16 15 -28.5 33t-24 36t-24 35.5t-28.5 32.5q2 11 0 20t7 18q9 6 17 4.5t15.5 -6.5t14 -12t12.5 -12
q13 -19 26 -40t29 -39t36 -29t49 -10q13 1 25.5 4.5t23 10.5t17.5 17t8 24z" />
    <glyph glyph-name="T" unicode="T" horiz-adv-x="374" 
d="M176 528q-27 5 -55.5 1.5t-54.5 2.5q-9 0 -18 2.5t-15 7t-8.5 11t1.5 15.5q42 14 85 13t85 -4t83 -2t80 18q17 -2 33.5 -6t21.5 -24q-7 -10 -17 -14.5t-21 -6.5t-22.5 -3t-21.5 -4q-25 -2 -50 -6.5t-52 -3.5q-13 -64 -20 -131t-12 -134t-12 -133t-20 -129
q-5 -8 -15.5 -10.5t-20.5 -2.5q-10 8 -12 18t-0.5 21t3.5 22t1 20q14 120 26 236.5t28 225.5z" />
    <glyph glyph-name="U" unicode="U" horiz-adv-x="436" 
d="M390 305q2 -51 0 -101t-16 -99q-20 -38 -54.5 -60.5t-88.5 -22.5q-42 18 -67 44.5t-41.5 58t-28 67t-26.5 70.5q-5 29 -11.5 60t-11.5 65q-5 32 -8 67t-1 74q8 -8 14 -12t11 -7q10 -4 17 -10q-8 -11 0 -17l2 -1l1 -1q1 0 1 -0.5t1 -0.5v-1q10 -51 16 -106t19 -109
q13 -55 37 -104.5t72 -85.5q7 -5 14 -6.5t16 -0.5q42 32 61.5 69t25 76.5t1.5 81.5t-8 83q-2 27 -3 54t3 53q-1 1 -1 6q1 2 1 9q0 10 -6 21q8 7 17 9t17 0t13.5 -7t6.5 -11q-3 -51 0 -102t5 -103z" />
    <glyph glyph-name="V" unicode="V" horiz-adv-x="428" 
d="M391 618q-18 -39 -29 -77.5t-18.5 -79t-13.5 -83.5t-15 -92q-8 -42 -15 -76t-14 -64.5t-14 -60.5t-15 -65q-14 -2 -23.5 1.5t-16.5 9.5t-13 14t-13 15q-27 85 -56 164.5t-52 164.5q-13 31 -26 62.5t-30 70.5q21 9 33 8.5t24 -6.5q22 -50 41 -103t37 -106t35 -105t35 -100
q9 47 14.5 79.5t10.5 62.5t11 65t16 87q7 34 13 66t12.5 63t15.5 62.5t23 64.5q20 0 35.5 -10.5t7.5 -31.5z" />
    <glyph glyph-name="W" unicode="W" horiz-adv-x="629" 
d="M511 632h7l14 4l14 4q5 1 7 -16t1 -45t-5 -63.5t-11 -69.5q-12 -54 -19.5 -92.5t-12 -68.5t-8.5 -56t-8.5 -55t-11 -64.5t-17.5 -85.5q-7 -13 -19.5 -14.5t-17.5 10.5q-16 41 -32.5 79.5t-33.5 76.5t-34 78t-34 84q-5 -22 -9 -32.5t-7 -19.5q-7 -17 -4 -41
q-14 -58 -23.5 -118.5t-26.5 -123.5q-5 -5 -9 -10t-9 -9q-9 -9 -19 -7q-2 2 -2.5 5t-1.5 5q-2 3 -2.5 5.5t-2.5 5.5q-5 12 -18 19q-31 118 -62.5 239t-71.5 241q6 9 14.5 12.5t16 2t13 -7.5t6.5 -15q30 -97 58 -204t54 -219q14 57 24 115t19 114.5t19 111.5t24 106
q10 11 34 7q4 -18 4.5 -37.5t1.5 -38.5t4 -37.5t12 -36.5q21 -64 49.5 -123.5t57.5 -131.5q13 67 21 122t14.5 108t13.5 109.5t19 126.5q1 2 2 5.5t2 8.5l3 18q2 19 4 19h-1z" />
    <glyph glyph-name="X" unicode="X" horiz-adv-x="417" 
d="M396 557q-17 -26 -31 -54t-29 -56q-16 -28 -33.5 -52.5t-40.5 -44.5q-13 -18 -25 -33.5t-18 -37.5q10 -42 24.5 -79.5t29.5 -76.5q14 -37 26 -74.5t20 -79.5q-22 -11 -31.5 -4t-15.5 21q-7 16 -12.5 36t-19.5 32q-11 20 -17 40.5t-11 41.5l-9 41q-3 11 -6.5 22t-10.5 28
q-27 -36 -47 -71.5t-37 -71t-34 -70t-36 -69.5q-6 -2 -10 -0.5t-9 4.5l-4 3l-4 2t-5 3q-5 11 -1 24t11 24q19 31 36.5 66.5t36.5 72t39.5 72.5t44.5 68q-11 60 -26.5 118.5t-31.5 127.5q3 -1 11 -1q3 -1 7 -1h7q11 -2 12 -4q11 -20 17.5 -40.5t11.5 -42.5q5 -23 11 -46
t17 -52q29 28 49 56t37 58q17 29 34 59t35 60q3 0 6 0.5t6 0.5q9 2 12 1q10 0 14 -10v-11z" />
    <glyph glyph-name="Y" unicode="Y" horiz-adv-x="370" 
d="M374 575q-42 -63 -89 -119t-93 -113q3 -38 0.5 -91t-7 -108.5t-10 -108t-8.5 -90.5q-8 -9 -15.5 -15t-15.5 -3h-17q7 27 11 63.5t5.5 77.5t1.5 83v78q0 51 3 84q-7 13 -5.5 25.5t2.5 26.5q1 34 -12 61.5t-29.5 54t-30 54.5t-13.5 62q7 6 15 6q11 0 18 -8t10 -16
q-1 -13 2.5 -23.5t9.5 -20.5t12.5 -20.5t10.5 -23.5l48 -57q5 -2 7 -4.5t4 -5.5q32 45 69.5 88.5t79.5 88.5q16 2 22 -6t14 -20z" />
    <glyph glyph-name="Z" unicode="Z" horiz-adv-x="421" 
d="M87 79q-6 0 -7 -1l6 -1zM87 79q66 4 128.5 11t128.5 13q11 6 23.5 10t24.5 -12q3 -15 -1.5 -21t-12 -8t-15.5 -3.5t-12 -8.5q-39 -8 -78 -10.5t-77.5 -5t-76.5 -6.5t-75 -15q-12 1 -12 13q0 13 -4 25q12 12 21 27.5t17 31t16.5 30t19.5 24.5q42 76 84.5 159t89.5 154
q-15 4 -28 3q-26 8 -52 13t-51.5 10t-52 11.5t-53.5 18.5l-7 38q45 -11 85 -20.5t80 -13.5q21 -2 43 -9t45 -2q12 -4 21.5 -2.5t19.5 3.5t21 2.5t25 -4.5q3 -12 1.5 -16.5t-5 -7t-7.5 -4.5t-6 -8q-14 -7 -25 -20t-20.5 -28t-19 -29.5t-21.5 -24.5q-24 -36 -45.5 -77
t-43.5 -83t-44.5 -82.5t-48.5 -75.5z" />
    <glyph glyph-name="bracketleft" unicode="[" horiz-adv-x="317" 
d="M124 309q0 -24 -1.5 -58.5t-3.5 -71.5t-3.5 -71.5t-1.5 -58.5q0 -7 -0.5 -17.5t1 -20t6.5 -16.5t17 -7q14 0 37 3.5t55 7.5l3 1l-4 -29q0 -4 -5 -6t-10.5 -5t-9.5 -7t-3 -12q-4 -4 -10 -4q-10 0 -10 10q-3 -3 -18 -3q-17 0 -36.5 1t-52.5 4q-4 3 -8.5 7.5t-4.5 9.5l5 9
q-7 12 -8 23.5t-0.5 23t1.5 22.5t-2 22l5 12l27 535q0 7 -4 16t-4 18q0 3 3 11t7 16q4 10 10 20q11 8 33 8h35.5t39.5 -1t32 -2.5t13 -4.5l3 -22q0 -4 -5 -13t-11 -18q-7 -11 -16 -23q1 9 -6.5 16.5t-18.5 12.5t-22.5 8t-18.5 3q-12 0 -15.5 -3t-3 -8.5t2.5 -12t2 -13.5
q-7 -72 -11 -134q-2 -27 -3.5 -54t-3 -51t-2.5 -43t-1 -30z" />
    <glyph glyph-name="backslash" unicode="\" horiz-adv-x="563" 
d="M502 38q-14 -31 -28.5 -22.5t-32.5 38.5t-41.5 73t-55.5 81l-324 382l46 33q39 -53 81.5 -102t85.5 -95.5t84.5 -92t77 -93t63 -97.5t44.5 -105z" />
    <glyph glyph-name="bracketright" unicode="]" horiz-adv-x="315" 
d="M174 334q0 24 1.5 58.5t3 71.5t3 71.5t1.5 58.5q0 7 0.5 17.5t-1 20.5t-6.5 16.5t-17 6.5q-14 0 -36.5 -3t-55.5 -8l-3 -1l5 29q0 4 4.5 6t10 5t9.5 7t3 12q3 4 10 4q10 0 11 -10q1 3 17 3q17 0 36.5 -1t52.5 -4q3 -2 5.5 -9.5t4.5 -16t3 -16l1 -7.5v-17.5t1 -12l2 -11
t4 -14.5l-9 -24l-27 -536q0 -7 4 -16t4 -18q0 -3 -5 -11.5t-10 -16.5q-7 -10 -15 -21q0 -5 -22 -4.5t-48.5 3.5t-48.5 7.5t-22 7.5l-4 10q0 8 9.5 21.5t21.5 32.5q-1 -9 6.5 -16t18.5 -12t22.5 -8t18.5 -3q12 0 15.5 3t3.5 8t-2 11.5t-2 13.5q6 72 10 134q2 27 4 53.5
t3.5 50.5t2.5 43.5t1 30.5z" />
    <glyph glyph-name="asciicircum" unicode="^" horiz-adv-x="462" 
d="M410 528q-5 -1 -7.5 -4t-4.5 -6l-1 2q-2 -4 -5.5 -5.5t-8.5 -3.5l-17 -3l-7 3q1 1 -10.5 17t-25.5 35l-36 50l-3.5 5.5t-8.5 11.5t-10.5 11t-9.5 4q-5 -2 -7 -5.5t-4 -7.5q-9 1 -19.5 -8.5t-22 -22t-23 -23.5t-21.5 -13q-5 -6 -10 -18t-12 -14q-8 -2 -17.5 -3t-17.5 -3
q-2 1 -3 2l-2 2q-2 3 -5 3q1 2 0.5 10t-0.5 16q4 10 24.5 29.5t54.5 48.5q3 0 5 -2q0 5 7 10t16 8q10 4 23 7q1 2 9 6t18 7q11 4 25 7l18 -1q4 -8 16.5 -22t29 -33t35.5 -43t37 -53l1 -1v0z" />
    <glyph glyph-name="underscore" unicode="_" horiz-adv-x="780" 
d="M678 -107q-27 0 -74 -1t-103.5 -3t-118 -3.5t-118 -3t-102.5 -2t-72 0.5v46q20 6 63.5 8.5t98.5 2.5t116 -0.5t116 0t98.5 4.5t63.5 13q9 -3 18 -8.5t14.5 -13.5t6.5 -18t-7 -22z" />
    <glyph glyph-name="grave" unicode="`" horiz-adv-x="382" 
d="M256 491q0 -6 -4.5 -10t-10 -7t-9.5 -4l-4 -1q-5 0 -17.5 4t-17.5 6l-6 6q-2 5 -20.5 26.5t-50.5 55.5q-6 0 -16 12.5t-10 26.5q0 11 9 14t29 3q18 0 39 -16t44 -42q17 -17 31 -36.5t14 -34.5v-3v0z" />
    <glyph glyph-name="a" unicode="a" horiz-adv-x="382" 
d="M335 3q-14 -11 -24.5 -16t-15.5 -7h-1h-2q-9 18 -28 20t-41.5 -1t-43.5 -5.5t-34 6.5q-26 14 -43.5 36.5t-26.5 48.5t-11 54t2 53q10 23 27 40t45 26q43 4 69.5 -7.5t52.5 -35.5q0 11 -1.5 29t-6 38.5t-13 40.5t-23.5 35q-7 6 -22.5 10t-33 7.5t-33 7t-22.5 8.5
q-8 7 -5.5 15t12.5 14.5t25.5 9.5t33.5 0q18 0 35.5 -5.5t33.5 -16t28.5 -26.5t18.5 -37q-1 -24 2.5 -66t10 -90.5t16 -97.5t19.5 -88zM101 142q6 -16 15 -36.5t22.5 -37.5t32 -27t44.5 -6q0 4 12 5.5t16 3.5l12 24q5 19 6.5 31t0 21t-5.5 19t-10 26q-17 25 -48 37t-62 10
q-17 -11 -23.5 -30.5t-11.5 -39.5z" />
    <glyph glyph-name="b" unicode="b" horiz-adv-x="400" 
d="M122 288q7 -4 7 -14v-17q0 -9 2.5 -16.5t12.5 -11.5q18 12 42 18t49 6q26 0 50 -6t42 -18q11 10 20 7t16.5 -11.5t14.5 -18.5t14 -13q12 -18 14 -37t-1 -38.5t-7.5 -39.5t-5.5 -40q-5 -2 -8 1.5t-6 6.5q-15 -11 -32 -26.5t-35.5 -27t-39.5 -15t-45 9.5q-10 -1 -19.5 5.5
t-18 11t-16 3t-14.5 -19.5v-12q0 -7 -6 -10q-8 4 -12 12t-7 17.5t-5 19.5t-6 18q-12 81 -21.5 162t-29.5 159h-14q2 36 -3.5 71.5t-14 71t-16.5 71t-11 73.5q5 5 12.5 7.5t13.5 2.5q7 0 12.5 -4t6.5 -14q16 -40 23.5 -83t12.5 -87.5t11 -88.5t18 -85zM158 170
q-2 -40 17.5 -74.5t50.5 -57.5q11 -1 26 -4t29 -3t26.5 6.5t19.5 22.5q12 12 13.5 25.5t-1 27.5t-7 28.5t-5.5 28.5q-18 15 -39.5 20t-44 3.5t-45 -8t-40.5 -15.5z" />
    <glyph glyph-name="c" unicode="c" horiz-adv-x="296" 
d="M248 261q-21 -3 -40 3.5t-36.5 10t-31.5 -2.5t-24 -34q-12 -17 -15.5 -35t-2 -36t5 -37t4.5 -38q18 -16 34.5 -15.5t33.5 6.5t34.5 12.5t37.5 2.5q-6 -15 -18 -25.5t-27 -17.5t-32 -10.5t-32 -3.5q-14 -3 -25.5 -0.5t-21 9t-16.5 16t-11 18.5q-18 60 -1.5 117.5
t58.5 95.5q14 10 30.5 13t33.5 0t33 -10.5t29 -18.5v-20z" />
    <glyph glyph-name="d" unicode="d" horiz-adv-x="384" 
d="M345 512q-7 -6 -7 -13q0 -11 5.5 -21.5t2.5 -20.5q-19 -43 -26.5 -87t-12 -87.5t-10.5 -86t-23 -82.5q10 -6 11.5 -13.5t-2 -14t-10.5 -12.5t-14 -9q-24 -16 -51 -27t-54.5 -15t-54 0t-49.5 18q-9 32 -5 65.5t15 67.5q12 18 29 31.5t37.5 21.5t42.5 10t43 -2
q7 0 11.5 -3.5t8 -8t7.5 -8t12 -3.5q10 6 15 17.5t7.5 25.5t3 29t1.5 27l27 236q8 15 17 14.5t15.5 -8.5t9.5 -20t-2 -21zM203 193q-17 0 -37 -1.5t-37.5 -8.5t-30 -21t-13.5 -39q4 -20 8.5 -35t21.5 -26q19 -3 39.5 0.5t40.5 12t38 19.5t33 23q0 27 -17 48.5t-46 27.5z" />
    <glyph glyph-name="e" unicode="e" horiz-adv-x="352" 
d="M275 346q9 -13 8.5 -24.5t-5.5 -22.5t-11.5 -22t-10.5 -23q-17 -8 -34.5 -18t-35.5 -17t-38 -8.5t-41 7.5q-2 -21 -5.5 -45.5t-2 -48t10.5 -43.5t32 -31l8 -8l133 43q-1 -24 -14.5 -34.5t-32 -15.5t-38.5 -8t-34 -12q-25 -9 -42 -4.5t-28.5 17.5t-18 30.5t-11.5 34.5
l8 125q-9 4 -11.5 10t-2.5 13t1 14.5t-1 13.5q13 11 21.5 26.5t17 31.5t18.5 30.5t27 23.5q16 -3 36.5 -0.5t39.5 2t34.5 -7.5t22.5 -29zM177 346q-13 -4 -20 -12t-11.5 -18t-8 -21t-9.5 -20l85 -6l8 41q-7 5 -11 11t-8.5 11t-10 9t-14.5 5z" />
    <glyph glyph-name="f" unicode="f" horiz-adv-x="352" 
d="M427 468q1 -11 -2 -19t-12 -16h-22q3 9 -4 12.5t-9 8.5q-26 4 -44 2.5t-43 -9.5q-39 -40 -71.5 -88t-53.5 -102l14 -14q12 6 25.5 6.5t27.5 0.5t27.5 0.5t25.5 6.5q6 -20 -1 -29.5t-20.5 -14.5t-29.5 -7t-28 -6q-25 8 -38.5 4.5t-20 -14t-8.5 -26t-3 -32t-3.5 -32
t-10.5 -25.5q-9 -38 -7.5 -79.5t-0.5 -83.5q-8 -11 -19 -8.5t-22 0.5q-7 40 -3 75.5t12 69.5t16.5 67.5t9.5 69.5q-16 9 -37 7.5t-41 0.5v22q15 3 22.5 8.5t13.5 10t15 5.5t27 -5q24 35 41.5 77t39 80.5t51.5 68.5t80 42q8 1 15 1h15q23 0 44 -7t32 -29z" />
    <glyph glyph-name="g" unicode="g" horiz-adv-x="387" 
d="M325 343q0 -46 4.5 -94.5t4.5 -97.5q0 -48 -9 -94t-35 -88q-31 -34 -68.5 -48.5t-80.5 -22.5q-34 9 -65.5 30t-54.5 49q-5 22 -15 46.5t-16 49.5t-2.5 49t26.5 45l7 -8q-9 -7 -8 -12.5t5 -11t8 -11.5t1 -14q4 -23 7.5 -46t11 -44t21.5 -38t39 -27q17 -6 35.5 -11.5
t36.5 -5.5q19 0 36.5 6.5t32.5 24.5q16 12 24.5 28t12.5 33.5t4.5 36.5t0.5 37q0 25 6 49q-10 15 -19 11.5t-18 -12.5t-18.5 -19t-20.5 -9q-35 -6 -63.5 6.5t-42.5 43.5q-2 20 -8 37.5t-6 35.5q0 12 7 25q12 21 28.5 40.5t36 34.5t42 23.5t47.5 7.5q8 -4 18.5 -5.5t20 -4
t17 -8t9.5 -17.5zM190 321q-7 -11 -16 -21.5t-16.5 -21t-12.5 -22.5t-4 -27q3 -8 4.5 -15.5t3.5 -14.5t6 -13.5t13 -11.5q16 -7 27.5 -3t21 11.5t19.5 14.5t24 5q41 41 35 98q-8 18 -19.5 24t-25.5 6t-29.5 -3.5t-30.5 -5.5z" />
    <glyph glyph-name="h" unicode="h" horiz-adv-x="324" 
d="M111 530q10 -53 10 -116q0 -30 -2.5 -58.5t-7.5 -55.5q7 -12 15 -10.5t17 7.5t18.5 12.5t19.5 5.5q30 -4 50.5 -22t36.5 -42.5t28 -52.5t24 -52q-2 -8 -1 -18t1.5 -19t-3 -16t-14.5 -9q-7 28 -16 58t-23.5 57t-36 47.5t-54.5 29.5q-22 -16 -34.5 -37.5t-18.5 -46
t-7.5 -50.5t-1.5 -52q0 -35 -6 -68q-17 1 -21 9.5t-4 19.5t0.5 23t-7.5 19q9 106 9 207q0 100 -9 207q5 3 9 8t8 9.5t9 6.5t12 -1z" />
    <glyph glyph-name="i" unicode="i" horiz-adv-x="253" 
d="M158 396q-7 -60 -12.5 -105t-10 -85.5t-7.5 -82t-5 -93.5l-32 -7q-7 57 -12 97.5t-5 77.5q0 38 6.5 77.5t21.5 91.5q4 8 12 10.5t16 4t16 4t12 10.5zM189 560q12 -30 -3.5 -57.5t-40.5 -46.5q-8 -6 -12.5 -5t-7.5 5t-6 9.5t-7 8.5q-14 28 1.5 52t37.5 42q4 1 10.5 2.5
t12 1t10 -3t5.5 -8.5z" />
    <glyph glyph-name="j" unicode="j" horiz-adv-x="324" 
d="M235 496q3 -11 1 -19t-6.5 -15t-9.5 -14t-8 -14l-47 -9q-5 56 32 109q20 7 32.5 -6t5.5 -32zM242 319q0 -59 1 -125t-9.5 -127.5t-39.5 -112.5t-89 -81q-13 0 -28 -0.5t-27.5 2.5t-21 11t-8.5 25q-3 24 0.5 45t11 40.5t17 38t18.5 38.5l30 -8q-6 -17 -14 -32.5t-15.5 -31
t-12.5 -32t-5 -34.5q5 -15 12.5 -20.5t17 -5t20 4t20.5 6.5q39 37 59.5 85t28 100.5t3.5 107.5t-14 106q-4 19 3 32t12 29q12 1 16 -5.5t5 -16.5t2 -21t7 -18z" />
    <glyph glyph-name="k" unicode="k" horiz-adv-x="424" 
d="M93 470q7 -51 10.5 -102.5t19.5 -97.5q25 21 54 39t60.5 31t66.5 19t73 2q4 -24 -6 -30.5t-26 -6.5t-33 1t-27 -8q-27 -18 -54.5 -32.5t-53.5 -38.5q48 -19 85.5 -43t67.5 -72q-1 -14 7 -30.5t16 -33.5t10.5 -34t-9.5 -32v-7q-22 10 -38 31t-30.5 45.5t-28.5 49
t-32.5 42.5t-43 26t-58.5 -2l24 -262q-7 -8 -12 -18t-18 -12q-12 67 -19 137t-13.5 140.5t-15 140t-23.5 135.5h-6q0 13 0.5 26t14.5 21q7 2 12 -0.5t8.5 -6.5t7.5 -9t10 -8z" />
    <glyph glyph-name="l" unicode="l" horiz-adv-x="288" 
d="M146 503q17 -59 28.5 -124t19.5 -131t12.5 -131t7.5 -124q-3 -7 -10 -7.5t-13 -0.5q-20 13 -23.5 31t-1.5 37.5t5 39t-5 35.5q-12 54 -20.5 111t-17.5 113t-21.5 109t-32.5 99q-9 4 -9 11q0 9 7 18.5t7 18.5q22 -1 31.5 -12.5t14.5 -28t8.5 -34t12.5 -30.5z" />
    <glyph glyph-name="m" unicode="m" 
d="M159 353q3 -11 -0.5 -20t-6.5 -17t-1.5 -15.5t14.5 -14.5q26 12 55.5 18.5t63.5 3.5q13 -8 21 -18.5t14 -22.5t11.5 -24t13.5 -23q31 48 82.5 72t108.5 10q21 -21 31 -49t12.5 -59t0 -62.5t-6.5 -59.5q-15 -18 -21.5 -45.5t-15.5 -52t-26.5 -40t-53.5 -9.5
q15 34 34.5 68.5t34 70.5t19.5 74.5t-8 81.5q-6 5 -9.5 13t-7.5 15.5t-10 12.5t-16 4q-34 2 -55 -13.5t-35.5 -39t-25.5 -50t-26 -45.5q4 -16 -2 -31t-16.5 -29.5t-22 -29t-17.5 -29.5q-15 -3 -19.5 4t-4.5 17q0 11 3.5 22.5t4.5 16.5q47 66 37 154q-19 34 -52.5 42
t-64.5 -5q-30 -13 -50.5 -34t-35 -46.5t-23.5 -54t-16 -56.5q-11 -5 -17 1.5t-14 12.5q14 38 23 78.5t20 80t26.5 77t41.5 68.5l8 -23v0z" />
    <glyph glyph-name="n" unicode="n" horiz-adv-x="408" 
d="M124 284q15 23 39.5 27t50.5 4q15 -3 32 -6t32 -9t27.5 -16.5t19.5 -28.5q9 -52 7 -97.5t-1 -95.5q-13 -14 -16 -35t-7.5 -40.5t-16 -32t-40.5 -9.5q-7 36 4 70t24 68.5t19.5 71t-10.5 78.5q-16 18 -34 30t-40 15q-34 0 -54.5 -11t-31 -29t-13 -42.5t-2 -51t3 -54.5
t2.5 -53q0 -32 -10 -55q-26 16 -32.5 44t-6 60t2.5 63.5t-7 54.5q12 16 8.5 37.5t-7 41.5t-0.5 36.5t28 23.5q9 -5 11 -13t2.5 -16.5t3 -16.5t12.5 -13z" />
    <glyph glyph-name="o" unicode="o" horiz-adv-x="358" 
d="M304 215q10 -21 13 -42.5t0 -42.5t-10.5 -41t-17.5 -38q-20 -20 -43 -40.5t-48.5 -33t-52.5 -14.5t-54 15q-32 23 -40.5 66.5t-4.5 87.5q-1 15 4.5 30.5t15 29.5t21 26.5t21.5 20.5q18 -9 31.5 0t26.5 21t27.5 19.5t34.5 -5.5q22 -3 42 -22t34 -37zM188 212
q-8 -15 -17.5 -30.5t-10.5 -30.5q0 -11 -4.5 -19t-11 -12t-14 -3t-14.5 9q-2 13 -5.5 29t3.5 29l-13 -2q-30 -49 -29 -104q7 -8 12 -19t11 -21.5t14 -19t21 -11.5q18 -5 41 -1.5t40 14.5q12 15 24.5 31.5t22 35.5t14.5 39.5t3 43.5q-1 15 -10.5 28t-22.5 20.5t-27.5 7
t-26.5 -13.5z" />
    <glyph glyph-name="p" unicode="p" horiz-adv-x="336" 
d="M257 278q9 -21 16.5 -42.5t10.5 -43t-2 -43t-21 -42.5q-6 -12 -14.5 -18.5t-17.5 -10t-19 -6.5t-19 -9t-18 -3.5t-16.5 5t-13.5 1t-10 -14.5q11 -45 20.5 -86.5t16.5 -83t10.5 -84.5t2.5 -90q-12 -6 -18.5 -1.5t-10 13.5t-6.5 19t-7 16q-4 82 -21 166.5t-29 169.5
q-11 18 -22 40t-16.5 45.5t-3.5 46.5t16 44q12 30 38 43t55 13q30 0 57 -12t42 -32zM116 272q-3 -7 -8.5 -15.5t-10 -18.5t-6 -20.5t3.5 -22.5q5 -14 13.5 -28t20 -26t26 -19t31.5 -6q15 1 24.5 8t15 17t9.5 22.5t9 24.5q-4 27 -17.5 40t-31.5 19.5t-39 10.5t-40 14z" />
    <glyph glyph-name="q" unicode="q" horiz-adv-x="417" 
d="M269 361q2 -17 -4 -27t-16 -16t-22.5 -9.5t-24.5 -6.5q-26 6 -45 -5t-36 -24q-32 -45 0 -90q18 -9 34.5 -7t32 10t30.5 19.5t29 22.5q10 17 20.5 38.5t24.5 41t32 32.5t42 13q-60 -103 -106.5 -210.5t-72.5 -218.5l88 31v-14q-40 -28 -83 -48t-85 -43q5 41 19 78
t31.5 72.5t34 71t26.5 74.5q-14 8 -32.5 -0.5t-35.5 -14.5q-12 6 -25.5 9.5t-27 8.5t-25 12.5t-18.5 21.5q-2 34 4.5 64t26.5 55q23 12 43.5 27t42 25.5t45 14t53.5 -7.5z" />
    <glyph glyph-name="r" unicode="r" horiz-adv-x="354" 
d="M142 445q2 -11 -0.5 -21t8.5 -15q31 12 65.5 18t67.5 3.5t63 -15t53 -37.5q5 -6 2.5 -10.5t-6 -8t-4.5 -8t8 -10.5q-20 -8 -37.5 -5t-34 10.5t-32.5 17t-33 15.5t-35.5 5.5t-39.5 -12.5q-25 -5 -39 -17t-21.5 -28t-10 -35.5l-5 -39t-6.5 -38t-14 -33.5q-2 -20 -0.5 -41.5
t-0.5 -42t-11 -37t-33 -26.5q-13 36 -9.5 70.5t12.5 69.5t17 71t3 76q11 15 12.5 37.5t4 43.5t10.5 37.5t32 20.5l14 -15v0z" />
    <glyph glyph-name="s" unicode="s" horiz-adv-x="384" 
d="M333 267q-1 -6 -0.5 -13.5t0.5 -14t-1 -12.5t-6 -10q-19 12 -36.5 28.5t-36 29.5t-39 18.5t-44.5 -4.5q-27 -27 -24.5 -55t17.5 -56.5t35 -57.5t28 -57l-6 -91q-29 -14 -64 -21.5t-68 5.5q-17 6 -33.5 17t-31 24.5t-27 28.5t-21.5 28q21 6 40.5 -0.5t38 -17.5t37 -22.5
t38.5 -16.5q17 -6 27.5 4t22.5 21q4 27 -4.5 51.5t-21.5 47.5t-27 45t-21.5 44.5t-5 46.5t22.5 50q20 35 50 44t61.5 0.5t58.5 -31.5t41 -53z" />
    <glyph glyph-name="t" unicode="t" horiz-adv-x="453" 
d="M189 450q0 -7 8 -9q0 -10 -0.5 -24t-0.5 -29t1.5 -30t6.5 -27q19 -12 41.5 -9t43.5 7t39.5 0.5t29.5 -28.5q-18 -10 -39.5 -13t-43.5 -6t-42 -8t-36 -20q3 -32 5 -64.5t9 -63t23 -57.5t47 -47q28 -11 53.5 -13.5t51 0.5t51 9t53.5 12q2 -27 -8 -40t-25.5 -20.5
t-33.5 -13.5t-32 -18q-42 -8 -84 5.5t-80 32.5q-36 58 -58.5 124.5t-10.5 146.5q-17 15 -36 15t-38 -4t-38 -4q-20 0 -36 15q6 23 20.5 33t33.5 12.5t39.5 1.5t37.5 0q10 27 10 65q0 39 -10 66q13 5 23 13t25 3v-13z" />
    <glyph glyph-name="u" unicode="u" 
d="M476 316q-9 -26 -4.5 -58t4.5 -61q0 -19 -8 -38q6 -30 18 -52t45 -27q9 -5 19.5 2.5t20 14.5t16 6t7.5 -23l-9 -9l9 -8q-25 -20 -50.5 -33t-60.5 -7l-55 57q-31 -45 -74.5 -76.5t-97.5 -34.5q-27 -2 -51.5 0t-46 9.5t-38.5 22.5t-29 40q-20 42 -26 90.5t-6 99.5v33.5
t1 33.5q4 10 9 12.5t11 1.5t12.5 -3.5t13.5 -1.5q2 -31 1 -65.5t1 -69t9.5 -66.5t27.5 -59q21 -23 43 -28.5t44.5 -2t46 12t47.5 12.5q42 22 59.5 59t26 78.5t15 83.5t25.5 75z" />
    <glyph glyph-name="v" unicode="v" horiz-adv-x="552" 
d="M503 324q-21 -53 -50 -104.5t-63.5 -101.5t-72.5 -97.5t-77 -92.5q-38 22 -58.5 53.5t-37 65.5t-37 65.5t-58.5 53.5l-3 28q8 -3 14.5 5.5t1.5 14.5l-3 27q33 -18 54.5 -46t39.5 -59t37 -61.5t48 -54.5q36 24 62 55.5t47.5 66t41.5 70.5t44 69q18 9 33.5 23.5t36.5 19.5z
" />
    <glyph glyph-name="w" unicode="w" horiz-adv-x="634" 
d="M592 307q-4 -12 2.5 -16t11.5 -13q-33 -32 -60.5 -63.5t-55.5 -58.5t-60 -48.5t-75 -33.5q-15 10 -28 29t-27.5 34t-32.5 18t-43 -19q-12 -7 -24 -21.5t-25 -26t-27.5 -14t-30.5 14.5q-5 28 -14.5 56t-17.5 56.5t-12 56.5t1 56q28 -4 41.5 -20.5t21 -38.5t13 -45.5
t16.5 -41.5l109 76q29 -16 53.5 -38.5t45.5 -51.5q52 45 105 83.5t113 69.5z" />
    <glyph glyph-name="x" unicode="x" horiz-adv-x="416" 
d="M380 394q-13 -31 -31.5 -60.5t-39 -58.5t-41 -56.5t-37.5 -54.5q4 -7 10 -13t11 -12.5t8.5 -14t1.5 -16.5q18 -11 29.5 -26t22.5 -30t24.5 -29t35.5 -23q-7 -9 -8 -18t-9 -17q-32 6 -53.5 24t-39 41.5t-34.5 49t-38 45.5q-16 -15 -30 -33.5t-29.5 -34.5t-33.5 -25.5
t-41 -5.5q3 26 16.5 44t30 33.5t32 31t23.5 37.5q-13 39 -44.5 72.5t-74.5 43.5l-5 -7q-15 4 -17.5 16t-4.5 24q12 9 23.5 7.5t24 -6.5l25 -10t26.5 -3q18 -6 31 -23.5t26 -32t27 -18t33 18.5q38 45 69 85.5t69 75.5l12 -21v0z" />
    <glyph glyph-name="y" unicode="y" horiz-adv-x="329" 
d="M327 333q-58 -160 -147 -303.5t-207 -272.5q-13 -12 -28.5 -14t-31.5 1t-32 7.5t-31 5.5q-31 24 -45 56t-21 67l32 26q9 -18 18 -37t20.5 -37t26.5 -33.5t35 -25.5q46 28 84 66.5t68 83t53.5 92.5t41.5 96q-15 27 -36.5 48t-41.5 42t-35.5 44.5t-18.5 55.5q3 2 6 5t3 11
q26 -7 44 -25t33 -41t29 -47.5t33 -44.5q23 17 38.5 42t30.5 50.5t33 47.5t46 34z" />
    <glyph glyph-name="z" unicode="z" horiz-adv-x="408" 
d="M334 265q-35 -45 -71.5 -87t-66.5 -88q30 -1 65.5 7t63.5 22q3 -3 7.5 -5t8 -4t5.5 -5.5t0 -10.5q-30 -17 -65 -22t-70 -16q-38 -11 -78.5 -24.5t-80.5 -26.5q-9 12 -5.5 20t12 14.5t18 13t11.5 16.5q52 35 100.5 81t81.5 103q-18 8 -37.5 9.5t-39.5 2.5t-39.5 4
t-35.5 15q-1 9 3 11t9.5 2.5l11 1t7.5 6.5q22 -7 45.5 -8t47.5 -1.5t47.5 -3.5t44.5 -14v-13z" />
    <glyph glyph-name="braceleft" unicode="{" horiz-adv-x="492" 
d="M252 275q0 -24 -2.5 -55t-5.5 -63.5t-5.5 -63.5t-2.5 -55q0 -8 -0.5 -18t1 -20t6.5 -16.5t17 -6.5q14 0 36.5 3t55.5 8l3 1l-5 -29q0 -4 -4.5 -6t-10 -5t-9.5 -7t-3 -12q-3 -4 -10 -4q-10 0 -11 10q-3 -3 -18 -3q-16 0 -35.5 1t-52.5 4q-13 7 -13 17q-1 13 -3 27
q-2 11 -3.5 25t-3.5 25l11 34l17 207q-8 8 -14 12.5t-15 11.5q-6 4 -13 5.5t-13 3.5t-10.5 5t-4.5 10q0 11 7 20t18 10l44 28q9 32 12 70.5t2 72.5q0 33 -3 80q0 7 -4 16t-4 18q0 3 4.5 11t10.5 16q6 10 15 22q0 4 21.5 2.5t47.5 -6t47.5 -10t21.5 -8.5l7 -2q0 -4 -5 -13
t-11 -18q-7 -11 -15 -23q1 9 -6.5 16.5t-18.5 12.5t-22.5 8t-18.5 3q-12 0 -16 -3.5t-3.5 -8.5t2.5 -11t2 -11q0 -2 -4.5 -31.5t-10.5 -70.5t-11.5 -87t-7.5 -82q0 -6 -5 -9.5t-10.5 -5.5t-10 -3.5t-3.5 -5.5q1 -2 9 -8.5t17 -13.5t16 -13t7 -8z" />
    <glyph glyph-name="bar" unicode="|" horiz-adv-x="170" 
d="M112 681q9 -35 9 -70q0 -26 -2.5 -52t-5.5 -51.5t-5.5 -50.5t-1.5 -49q1 -28 0.5 -67.5t-2 -84t-3 -91.5t-3.5 -91.5t-4 -83t-3 -66.5q-3 -12 -16 -12.5t-26 -4.5q0 51 0.5 112t2 127.5t4 134.5t6 132.5t8 123t10.5 104.5q-8 11 -3.5 23t9.5 30l26 -13v0z" />
    <glyph glyph-name="braceright" unicode="}" horiz-adv-x="492" 
d="M255 275q0 2 7.5 7.5t17 11.5t18 12t9.5 8q1 3 -3 5.5t-9.5 4.5t-10 6t-3.5 10q1 36 -0.5 82.5t-4 88t-4.5 71t-2 31.5q0 5 3 11t3.5 11t-3 8.5t-15.5 4.5q-7 1 -18.5 -1t-23 -6.5t-19.5 -11t-8 -15.5q-8 13 -14 24l-9.5 19t-3.5 13l7 2q0 2 10.5 4.5t26.5 4.5t34 3.5
t33.5 2t25.5 -0.5t10 -4q8 -12 13 -23q5 -9 8.5 -17.5t3.5 -11.5q-1 -9 -5.5 -17.5t-4.5 -15.5q-4 -23 -6 -42.5t-4 -36.5q-4 -34 -4.5 -72.5t6.5 -71.5l41 -32q11 -2 17.5 -11.5t4.5 -20.5q0 -7 -4.5 -9.5t-11 -4t-13.5 -2.5t-13 -4q-10 -6 -16.5 -9.5t-14.5 -11.5l-1 -208
l8 -35q-4 -11 -7 -24.5t-5 -24.5q-3 -13 -5 -27q0 -5 -4.5 -9t-9.5 -7q-33 0 -52.5 0.5t-35.5 2.5q-17 2 -18 4q-1 -9 -12 -9q-7 1 -9 5q2 8 -1.5 12.5t-9 7.5t-10 5.5t-4.5 6.5l-2 30l3 -2q32 -7 54.5 -12t36.5 -6q11 -1 17 5t8 15.5t2.5 19.5t1.5 18q2 24 2 55t-0.5 64
t0 64t2.5 55z" />
    <glyph glyph-name="asciitilde" unicode="~" horiz-adv-x="548" 
d="M256 435q10 -2 26 -15.5t39 -35.5q10 -8 16.5 -20t20.5 -12q8 0 15.5 6.5t13.5 13.5t10.5 12t6.5 2q0 -1 7.5 4t16 10.5t15.5 9t6 0.5q0 -2 11.5 -4t18.5 -6q6 -2 4 -5t-2 -10v-15q0 -8 -1 -15.5t-6 -11.5q-8 -7 -18.5 -7.5t-20.5 -4.5q-20 -7 -34 -14t-14 -9v-2
q-12 0 -21 -12v3q-5 -5 -10.5 -6t-11.5 -1q-3 0 -6.5 3t-7 6.5t-6 7l-2.5 3.5v6q-14 0 -21.5 10t-16.5 19l-11 11q-7 2 -8.5 4.5t-3.5 5t-7 4.5t-18 2q-16 0 -31.5 -14.5t-43.5 -33.5q-7 -6 -15 -10.5t-17 -4.5q-11 0 -22.5 3.5t-22.5 3.5q-2 2 -2 4v5q0 5 -7 5q2 3 13 11
t27 19t34.5 23.5t34.5 23.5q9 7 14.5 12t16.5 10t25.5 5.5t15.5 0.5z" />
    <glyph glyph-name="exclamdown" unicode="&#xa1;" horiz-adv-x="180" 
d="M42 -139q3 41 5.5 84t8 85.5t15 83.5t26.5 79q8 6 18 0t8 -17q-13 -47 -16.5 -97.5t-6 -101.5t-7 -101.5t-19.5 -96.5q-18 -1 -26 7.5t-9.5 21t0.5 27.5t3 26zM50 367q-1 10 4.5 18.5t13 15.5t16 13.5t13.5 12.5q11 4 19.5 1t15.5 -10t13.5 -15.5t12.5 -15.5
q5 -12 2.5 -21t-9 -15.5t-14.5 -12t-14 -11.5q-23 -1 -41.5 12t-31.5 28z" />
    <glyph glyph-name="cent" unicode="&#xa2;" horiz-adv-x="411" 
d="M225 86q-1 -26 -0.5 -38.5t1.5 -17t2 -5.5t1.5 -5t0 -14.5t-2.5 -34.5q-4 -3 -11 -4.5t-14.5 -1.5t-13.5 2t-6 7q-4 41 -6.5 56t-4 21.5t-0.5 14.5t4 35q-33 2 -60 13q-23 14 -45 35t-32 44q-5 61 25 112.5t76 86.5q3 1 9 5q-3 26 -4.5 42.5t-1.5 32t1.5 34t5.5 48.5
q17 1 26 -1t13.5 -6.5t6 -12.5t1.5 -18q0 -24 0.5 -38t1 -24t1.5 -18.5t2 -22.5q2 0 3 1q18 7 37.5 6.5t38 -6.5t36.5 -15t34 -19q-3 -18 -21.5 -19t-42.5 4t-47.5 9t-36.5 -4q-14 -9 -29 -18.5t-29 -21.5t-25.5 -26t-18.5 -31l-9 -68q-1 -10 6 -18.5t17.5 -16t23 -14
t22.5 -10.5q7 -11 19 -13.5t24.5 -1t24.5 6t19 6.5q9 5 19 12.5t20.5 13t20.5 6.5t20 -8q5 -2 10.5 0t11 4.5t10.5 3.5t9 -3q-29 -26 -66.5 -44.5t-78.5 -24.5l2 -18v0z" />
    <glyph glyph-name="sterling" unicode="&#xa3;" horiz-adv-x="627" 
d="M234 148q-29 9 -60.5 2t-55.5 -21q-16 -23 -20.5 -51t16.5 -49q27 1 46.5 14t33.5 31t23.5 38t16.5 36zM298 322q-38 -2 -70.5 -6.5t-64.5 -4.5q-8 0 -13 4.5t-5 10.5q6 5 12 9q5 4 11.5 7t13.5 3q34 0 63 2t62 4q17 51 41.5 96.5t70.5 82.5q7 9 30 17.5t48 12t45 -1
t20 -21.5q0 -15 -13 -20.5t-31 -8t-36.5 -5t-29.5 -10.5q-32 -36 -52.5 -70.5t-35.5 -69.5q43 1 79 0.5t71 -0.5q10 0 17 -5.5t7 -13.5q0 -12 -16 -15.5t-31 -3.5q-39 0 -70.5 3t-69.5 4q-13 -33 -26 -67.5t-33 -72.5l-2 -13q43 -11 76.5 -32t64 -45t63 -49t74.5 -45
q-3 -7 3 -15.5t6 -15.5q0 -5 -9 -9q-37 23 -75.5 49t-76.5 47q-35 20 -69 41.5t-72 37.5q-10 -18 -23 -39t-29.5 -39t-38 -32t-49.5 -19q-11 -5 -20.5 -4t-17.5 4t-16 7.5t-17 8.5q-19 29 -16.5 64.5t27.5 63.5q17 13 38.5 19.5t44.5 8t46.5 0t43.5 -4.5q17 33 27.5 71
t22.5 80z" />
    <glyph glyph-name="currency" unicode="&#xa4;" horiz-adv-x="282" 
d="M258 455q4 -8 -4 -22.5t-20 -30.5q-4 -5 -8.5 -11t-10.5 -13q5 -11 12.5 -20.5t5.5 -23.5q11 -16 5.5 -33t-12.5 -31q14 -12 27.5 -24.5t21.5 -26.5q5 -8 -2 -17q-8 -9 -14 -11q-11 6 -26.5 18t-30.5 25q-8 -11 -19 -15q-20 -11 -45.5 -10.5t-43.5 14.5q-3 2 -5.5 3.5
t-4.5 3.5q-21 -25 -42.5 -47.5t-41.5 -25.5q-9 13 -5.5 27t15 28t27 28t30.5 26q-2 14 -1.5 28.5t0.5 28.5q1 5 2 8.5t3 8.5l-77 73q2 6 11 18q8 11 15 16q14 -19 35.5 -35t41.5 -32q26 27 57 33l2 -2q11 6 19.5 3t16.5 -11q18 22 36 39t30 13zM117 358q-10 -16 -13.5 -37.5
t7.5 -38.5q11 -6 23 -9.5t25 1.5q8 2 9.5 8t1.5 13v7q-1 22 -13.5 37.5t-24.5 31.5z" />
    <glyph glyph-name="yen" unicode="&#xa5;" horiz-adv-x="370" 
d="M21 210q6 -1 13 -1h32h39h18t14 1q1 5 1 11v11v22h-60q-5 0 -12.5 0.5l-15 1t-13.5 1t-9 0.5q-2 0 -6.5 5.5t-9.5 13.5t-12 19q17 0 33 1q13 1 26 1.5t19 0.5q9 0 28 -1.5t33 -3.5q0 5 0.5 10t0.5 10q-7 13 -5.5 25.5t2.5 26.5q1 34 -12 61.5t-29.5 54t-30 54.5t-13.5 62
q7 6 15 6q11 0 18 -8t10 -16q-1 -13 2.5 -23.5t9.5 -20.5t12.5 -20.5t10.5 -23.5l48 -57q5 -2 7 -4.5t4 -5.5q32 45 69.5 88.5t79.5 88.5q16 2 22 -6t14 -20q-42 -63 -89 -119t-93 -113q1 -5 1 -11v-13v-27h30q35 0 104 -3l-16 -38l-119 3q0 -12 -0.5 -24.5t-1.5 -26.5
q7 0 8 1q2 1 22 1q19 0 41.5 -0.5t42.5 -2.5q20 -1 26 -2t8 -9q5 -12 4.5 -27t-0.5 -17t-18.5 2.5t-44 9t-51.5 8t-41 0.5q-5 -63 -11 -121.5t-9 -100.5q-8 -9 -15.5 -15t-15.5 -3h-17q11 43 14.5 106.5t3.5 129.5q-12 0 -30.5 1.5t-36.5 3t-32 3t-17 1.5q-4 0 -4 10t2 18.5
t2 9.5z" />
    <glyph glyph-name="brokenbar" unicode="&#xa6;" horiz-adv-x="170" 
d="M73 285l28 -6q-1 -47 -2.5 -97t-2.5 -97t-2.5 -88.5t-2.5 -72.5q-3 -12 -16 -12.5t-26 -4.5q0 78 1.5 174t5.5 200zM97 318l-40 -3q4 90 9.5 177t13.5 149q-8 11 -3.5 23t9.5 30l26 -13q9 -35 9 -70q0 -26 -2.5 -52t-5.5 -51.5t-5.5 -50.5t-1.5 -49q1 -17 0.5 -37.5
t-0.5 -43.5z" />
    <glyph glyph-name="section" unicode="&#xa7;" horiz-adv-x="410" 
d="M235 167q-6 2 -10.5 5l-7.5 5l-38 12q-10 2 -19 5.5t-19 8.5q-18 10 -37 31t-24 49q-4 24 2.5 47.5t22.5 40.5q5 5 10.5 9.5t13.5 9.5q-5 5 -14 17t-18 26.5t-16.5 28t-8.5 21.5q-2 12 -4 20.5t-2 14.5q0 13 15 29q11 11 28 18t42.5 8t60 -5t79.5 -21q3 -4 7 -12.5
t7 -17.5t3.5 -17.5t-3.5 -13.5q-12 2 -33.5 11t-47.5 17.5t-53 12t-49 -5.5q-4 -12 -0.5 -28.5t12 -32.5t19.5 -29t21 -19q21 -10 47.5 -17t49.5 -21q12 -6 22.5 -10.5t19 -12.5t15.5 -21.5t11 -38.5q-13 -41 -43.5 -53.5t-74.5 -15.5q39 -15 66.5 -36.5t38.5 -62.5
q1 -5 1 -10v-10q0 -14 -12 -27t-46 -27q-6 -3 -18 -5t-25 -3.5t-25 -2.5t-18 -3q-8 0 -9.5 2t-6.5 7q-2 2 -5.5 14.5t-5.5 14.5q13 0 31 0.5t35.5 4.5t32 13.5t21.5 26.5q2 23 -11 32t-30 17zM268 325q-10 6 -20 10.5t-18 9.5q-13 5 -27 8.5t-28 8.5q-28 -7 -45 -34
q-6 -16 2.5 -28t18.5 -26q1 -4 8 -7t17.5 -5.5t23.5 -4t26 -1.5t25.5 1.5t21.5 5t13.5 9.5t2.5 14q2 16 -4.5 25t-16.5 14z" />
    <glyph glyph-name="dieresis" unicode="&#xa8;" horiz-adv-x="382" 
d="M86 560q11 1 23 0.5t21.5 -3.5t15 -9.5t4.5 -17.5q0 -14 -10 -25.5t-24 -16.5q-13 -4 -22 -1t-16 9.5t-11 14t-7 13.5q8 9 10 19t16 17zM284 545q10 -3 16 -10.5t8 -16t0.5 -16.5t-5.5 -14q-4 -9 -13 -12.5t-19.5 -3t-21 3.5t-17.5 6q-15 12 -16 29t7.5 29t25 15.5
t35.5 -10.5z" />
    <glyph glyph-name="copyright" unicode="&#xa9;" horiz-adv-x="646" 
d="M580 228q-12 -30 -19.5 -50t-14 -34.5t-14.5 -26t-21 -24.5t-34 -30t-53 -42q-18 -9 -53.5 -17t-75 -12.5t-77 -4.5t-58.5 6q-16 12 -34 25t-34 27t-28.5 29.5t-17.5 32.5q-12 111 20 213.5t86 194.5q21 17 45 35t51 30t56.5 15t60.5 -10q19 5 40.5 10t42.5 5
q22 0 42.5 -6t36.5 -24q15 -21 35.5 -51t33.5 -71t12 -95.5t-28 -124.5zM548 332q2 10 5 19t5.5 18.5t3.5 21t-2 25.5q3 3 -1.5 14t-10.5 22.5t-10 20.5t0 8q-9 11 -21 26t-27 28t-32.5 21t-36.5 5q-7 2 -10.5 -1t-5.5 -7.5t-4 -9.5t-6 -7q-15 5 -28 -1t-25 -13.5
t-24.5 -12.5t-26.5 1q-4 6 -5.5 17t9.5 14l-22 5q-39 -15 -65 -39t-43 -53.5t-27.5 -63t-19 -68t-17.5 -68.5t-23 -64q-8 -37 7 -74t55 -63q24 -19 63 -20t81 7t81 22t62 25q44 38 64.5 62t29.5 47.5t13 54t14 81.5zM413 375q-21 -3 -40.5 3.5t-36.5 10t-31 -2.5t-24 -33
q-12 -18 -15.5 -36t-2 -36t5 -36.5t4.5 -38.5q17 -16 33.5 -15.5t33.5 6.5t35 12.5t38 2.5q-6 -14 -18 -25t-27 -18t-32 -10.5t-33 -3.5q-14 -4 -25 -1t-20.5 10t-16.5 16.5t-11 17.5q-9 30 -9 60q0 44 17 84.5t49 69.5q28 19 64 12t62 -29v-20z" />
    <glyph glyph-name="ordfeminine" unicode="&#xaa;" horiz-adv-x="288" 
d="M190 436q9 -12 19 -23t17.5 -22.5t10 -24.5t-4.5 -29q-4 -9 -4 -22q0 -17 5.5 -34t10.5 -34q4 -8 5 -9.5t1.5 -1.5t3 -1t10.5 -8l-13 -22q-18 5 -27.5 10.5t-15 12.5t-9 17t-9.5 25q-16 -5 -24 -19t-23 -21q-64 3 -105 49q-5 23 -1 43.5t13 39t22 35.5t28 33q10 2 15.5 9
t10.5 14t11.5 11.5t18.5 1.5q12 10 16 8t6 -9.5t4 -16.5t8 -12zM143 393q-23 -13 -36 -35t-25 -44q-5 -10 -3 -17t7.5 -12t13.5 -9t14 -8q18 -3 33 11.5t25 28.5q-2 21 -8 43.5t-21 41.5z" />
    <glyph glyph-name="guillemotleft" unicode="&#xab;" horiz-adv-x="620" 
d="M282 141q-24 13 -43.5 28t-40 30t-44 28.5t-56.5 23.5l-5 47q14 7 40.5 24t55.5 33q24 10 36 17.5t22 14t21.5 13.5t34.5 17q9 2 17.5 6t15.5 4.5t11.5 -4t4.5 -20.5q-18 -28 -42 -42.5t-50.5 -25t-53.5 -20.5t-51 -28l34 -33q12 -14 29.5 -25.5t33 -24t25 -27.5t5.5 -36
zM494 137q-24 13 -48 31t-49.5 36t-53.5 34t-60 26l-1 29q17 4 38 14.5t50 21.5q25 10 39.5 18t25.5 17t24.5 19t37.5 24q9 2 20.5 7t22 7t17.5 -2t7 -19q-18 -27 -41 -44.5t-49 -29.5t-53.5 -21.5t-53.5 -21.5l34 -33q13 -13 31 -24.5t33 -24t24 -28t5 -36.5z" />
    <glyph glyph-name="logicalnot" unicode="&#xac;" horiz-adv-x="394" 
d="M320 66q-2 12 -3 31.5t-2.5 38.5t-3.5 32.5t-5 13.5q-36 -1 -70.5 -1.5t-65 -1t-55.5 -0.5h-41q-37 0 -49.5 4.5t-12.5 20.5t16 25t39.5 13t49 4.5t44.5 0.5q32 0 65 -1.5t67 -1.5q11 0 22 1t22 1q25 0 31.5 -19.5t6.5 -52.5q0 -15 0.5 -35.5t-2 -39t-10.5 -31.5t-24 -13
t-19 11z" />
    <glyph glyph-name="sfthyphen" unicode="&#xad;" horiz-adv-x="468" 
d="M367 324q-44 -1 -82 -6.5t-74.5 -11.5t-73 -10t-78.5 -3v50q33 10 70.5 10.5t75.5 0.5q39 0 76.5 2.5t70.5 16.5q20 -7 25.5 -15t-10.5 -34z" />
    <glyph glyph-name="registered" unicode="&#xae;" horiz-adv-x="646" 
d="M587 265q-17 -42 -25.5 -65t-19 -40.5t-29.5 -35t-57 -47.5l4 -8q1 -2 2 -3q-3 -1 -6 -5.5t-7.5 -9t-11 -6t-15.5 4.5l-1 1q-2 0 -2 2q-16 -6 -39 -11t-49.5 -9t-53.5 -6t-51 -2q-37 0 -59 6q-16 12 -34 24.5t-34 26.5t-28.5 29.5t-17.5 33.5q-12 111 20 213.5t86 194.5
q21 17 45 35t51 30t56.5 15t60.5 -10q19 5 40.5 9.5t43 5t42 -6t36.5 -23.5q15 -21 35 -51t33 -71.5t12.5 -96t-27.5 -124.5zM340 259q-2 0 6.5 -13.5t22 -34t29.5 -45t30 -45.5l6 3q44 38 64.5 62t29.5 47.5t13 54t14 81.5q2 10 5 19t5.5 18.5t3.5 21t-2 25.5q3 3 -1.5 14
t-10.5 22.5t-10 20.5t0 8q-9 11 -20.5 26t-26.5 28t-32.5 21t-37.5 5q-8 2 -11 -1t-4.5 -7.5t-3 -9.5t-7.5 -7q-15 5 -28 -0.5t-25 -13t-24.5 -12.5t-26.5 1q-4 6 -5.5 17t9.5 14l-22 5q-59 -23 -89 -64.5t-46.5 -91.5t-27.5 -102.5t-32 -97.5q-7 -30 2 -59.5t33 -55.5
q4 9 8.5 19t7.5 21q15 40 28 82t26 84.5t27.5 84.5t33.5 83q6 3 12 -1l18 -8l-1 -25q30 8 62.5 12.5t61 2.5t50.5 -12t32 -32q6 -14 8 -30t-1 -31.5t-12.5 -29.5t-25.5 -24q-47 -28 -113 -44zM226 281q6 0 21 1.5t30.5 3.5t28.5 3.5t16 2.5q34 5 66.5 17t49.5 32q8 15 14 34
t-8 36q-3 10 -12.5 17t-29.5 9.5t-52 -0.5t-80 -14q-14 -36 -27.5 -70t-16.5 -72zM162 81q21 -9 49 -10.5t58.5 3t60.5 13t56 17.5q-11 17 -25.5 35t-23.5 33q-13 19 -24 39.5t-28 42.5q-11 -2 -19.5 -2.5t-15.5 -1.5t-14 -3t-16 -6q-11 -23 -18.5 -44t-12.5 -42
q-5 -19 -9 -37.5t-9 -37.5q-4 1 -9 1z" />
    <glyph glyph-name="macron" unicode="&#xaf;" horiz-adv-x="382" 
d="M56 482q-11 6 -10.5 12.5t11.5 20.5q18 -1 41 -1h47h46.5t39.5 -1q14 5 36.5 2.5t39.5 -4.5q6 -12 5 -19t-10 -14q-8 2 -21 -1.5t-33 -6.5q-23 2 -49.5 1t-52.5 -2t-50 1.5t-40 11.5z" />
    <glyph glyph-name="degree" unicode="&#xb0;" horiz-adv-x="312" 
d="M211 649q-4 -9 -7 -19t-7.5 -19t-12 -16.5t-20.5 -11.5q-2 -3 -24 -3l-41 15q-5 5 -8.5 25.5t-3.5 40.5q0 10 19 26q5 5 14 6.5t13 3.5q4 3 8.5 7t9.5 4q23 0 43 -13.5t20 -36.5q0 -2 -1 -4t-2 -5zM174 659q1 7 -1.5 11t-6 5.5t-7.5 1.5h-7q-4 1 -10.5 -1.5t-10.5 -6.5
q-8 -8 -7 -17t1 -17t10 -8.5t18 -0.5q7 0 11.5 5t6.5 11t2.5 11l0.5 5v1z" />
    <glyph glyph-name="plusminus" unicode="&#xb1;" horiz-adv-x="395" 
d="M361 283q-20 -4 -37.5 -5.5t-34 -1.5h-33.5t-37 -1q-4 -18 -1.5 -38.5t5.5 -41t2 -39t-13 -33.5q-26 6 -33.5 24.5t-6.5 41.5t5 46.5t0 40.5l-122 5q-24 18 -21 29t17 23q21 1 35 2t26 1.5t25 0t33 -2.5q7 8 6.5 29t-1 44.5t2.5 43.5t15 25q22 -6 28.5 -25t5.5 -41.5
t-5 -43.5t-4 -30q37 -2 67 -4t68 -12q6 -1 8.5 -6t3 -11t-0.5 -11.5t-3 -8.5zM345 70q-6 -17 -13.5 -23.5t-16 -8t-18.5 -0.5t-22 -2q-25 -3 -53.5 -4t-57 -0.5t-56 1.5t-49.5 2q-8 4 -13.5 17t-1.5 18q28 8 66 11.5t78 4t79.5 -0.5t71.5 -3z" />
    <glyph glyph-name="twosuperior" unicode="&#xb2;" horiz-adv-x="484" 
d="M265 455q16 -5 30 -9.5t27.5 -10.5t28.5 -14t34 -20q-2 -8 -4 -12t-5.5 -7t-8.5 -5.5t-12 -6.5q-20 16 -39.5 27t-45.5 17l-17 3q-8 -19 -23.5 -39t-39.5 -26q-14 -6 -22 -0.5t-19 10.5q-11 20 -10 42t14 39q16 16 37.5 18t38.5 -1q8 21 14 44t6.5 45.5t-6 43.5t-23.5 38
q-1 2 -3 1t-4 -1q-8 0 -20 -1.5t-22.5 0t-15.5 8t2 22.5q13 4 25 8t23.5 5.5t23.5 -0.5t25 -11q16 -22 23.5 -48.5t7.5 -54.5q0 -27 -5.5 -54t-14.5 -50zM187 420q-11 -22 -5 -35q14 4 21.5 18t12.5 26q-13 1 -29 -9z" />
    <glyph glyph-name="threesuperior" unicode="&#xb3;" horiz-adv-x="392" 
d="M210 345q-17 -9 -34 -9q-15 0 -30 5t-27 13l-13 12q-8 7 -12 13t-3 14q0 5 1 11.5t11 6.5q7 0 14 -6t14.5 -12.5t16 -12.5t17.5 -6q26 0 41 17.5t15 47.5q0 21 -8.5 30.5t-21.5 16t-27.5 13.5t-27.5 23q21 11 28 11q6 0 10.5 -3t15.5 -7q22 2 27.5 19t5.5 34
q0 5 -1.5 12.5t-5 14t-9 11t-12.5 4.5q-8 0 -19 -6.5t-26 -17.5q-3 8 -7.5 13t-4.5 13q0 7 6.5 14t17 12.5t22 9t22.5 3.5q12 0 22 -10t17 -24t10.5 -28.5t3.5 -24.5q0 -18 -5.5 -36t-13.5 -32l-8 -4q14 -13 24 -30t10 -38q0 -22 -16.5 -47.5t-39.5 -39.5z" />
    <glyph glyph-name="acute" unicode="&#xb4;" horiz-adv-x="382" 
d="M343 566q-1 -6 -6 -11t-10.5 -9t-11 -6t-7.5 -2t-17.5 -8.5t-33.5 -19t-33 -19.5t-14 -10l-9 -4q-6 -1 -21 -3t-22 -1l-4.5 1.5t-10.5 4t-11 6t-4 8.5v1q2 12 22 26t42 26q11 6 26 13t34 15q8 3 17 5q8 2 15.5 3t15.5 0q23 -2 34 -5t9 -11z" />
    <glyph glyph-name="mu" unicode="&#xb5;" horiz-adv-x="452" 
d="M463 55q-7 -5 -14.5 -8t-12.5 -9q-62 -8 -96 35q-11 -16 -26 -27t-32 -18t-35 -10.5t-34 -4.5q-16 7 -33.5 11t-34.5 8t-33 10.5t-30 19.5l-1 -1q11 -33 11.5 -68.5t-0.5 -71t2 -70t19 -65.5q-6 -9 -4 -20t3.5 -20.5t-3 -17t-23.5 -9.5q-15 19 -18.5 40t-3.5 44
q0 22 1 44.5t-5 43.5q-17 112 -22.5 226t-9.5 232q20 -3 27.5 -13t10 -23.5t3 -28.5t5.5 -27q-5 -29 2 -59.5t10 -59.5q14 -29 43 -53.5t61 -30.5q42 -2 73 14.5t60 45.5q2 18 0.5 37t-4.5 39q-2 20 -4 41.5t2 44.5q27 -13 35.5 -32t10.5 -45q1 -9 1.5 -18t0.5 -19
q0 -28 9.5 -52.5t41.5 -36.5q11 -5 17.5 -0.5t14.5 10.5q6 5 12 7.5t16 1.5q5 -16 0 -24t-13 -13z" />
    <glyph glyph-name="paragraph" unicode="&#xb6;" horiz-adv-x="353" 
d="M218 543q-2 0 2 0t11 1q-22 3 -29.5 -6.5t-12.5 -32.5q-5 -29 -10 -71.5t-10.5 -91t-11.5 -100.5t-12.5 -101.5t-14 -93t-15.5 -75.5q-17 -14 -32.5 -11.5t-24.5 14.5q1 6 2.5 17.5t3.5 23.5t4.5 21.5t4.5 11.5q4 25 8.5 59.5t8 67.5t6 61t4.5 42q5 28 9.5 56t9.5 61
q-1 3 4 26q2 10 -2.5 16.5t-12.5 12.5t-18.5 11t-19.5 12q-7 8 -9 18.5t-1.5 21.5t3 20t5.5 14q1 4 7.5 10t16.5 12t22.5 10t25.5 3q8 -1 17 -0.5t28 2.5q10 1 12 1.5t3 0.5t4.5 0.5t17.5 1.5q36 3 56.5 3.5t30.5 -4t11 -15.5t-2 -31q7 -25 6 -44q0 -10 -1 -20t-2 -18
q-2 -17 -4 -33.5t-3 -29.5q-1 -39 -5 -86.5t-9.5 -95.5t-10.5 -93t-8 -79q0 -4 -1.5 -15.5t-9.5 -17.5q-4 -2 -7 -2q-6 0 -12 2t-11 0q-8 20 -8.5 42.5t3.5 48.5q2 16 5.5 40t7 50t7 51.5t4.5 43.5q2 21 4.5 52t4.5 67t2.5 74t-1.5 73q-6 -6 -10 -7h1q-16 -3 -22 -2h-20v0z
" />
    <glyph glyph-name="periodcentered" unicode="&#xb7;" horiz-adv-x="209" 
d="M152 297q8 -12 6 -21.5t-9 -17.5t-16.5 -15t-17.5 -14q-11 -6 -21 -3.5t-18.5 9.5t-16 16.5t-13.5 17.5q2 16 8 30.5t26 14.5q21 3 37.5 -3.5t34.5 -13.5z" />
    <glyph glyph-name="cedilla" unicode="&#xb8;" horiz-adv-x="382" 
d="M276 -5q7 -9 13 -17t6 -21q0 -22 -14 -38.5t-28 -22.5q-2 -1 -7 -2t-10.5 -1t-10.5 1.5t-8 6.5q-2 3 4.5 5t13.5 7t12.5 15t2.5 28q-1 6 -6 10t-11 7.5t-11.5 5.5t-6.5 3q-6 6 -9.5 9t-5 5.5t-2 6t-0.5 10.5q0 4 4 9t9.5 9t11.5 6t9 1q5 -2 10 -9t10 -15z" />
    <glyph glyph-name="onesuperior" unicode="&#xb9;" horiz-adv-x="326" 
d="M183 345h1q22 -2 37.5 -2.5t37.5 -9.5q2 -12 -1.5 -18t-9.5 -8l-6 -2q-2 0 -6 -4q-40 8 -80 10.5t-78 13.5q-15 19 4 29q2 2 2.5 5t1.5 4l52 -10q2 38 0.5 78t3.5 77q2 15 3.5 33t3.5 35q-14 -15 -33 -30t-33 -21q-14 0 -16.5 7t-6.5 17q9 10 22.5 22.5t26 26t23 26.5
t13.5 25q11 7 23.5 8t22.5 -9l12 -12l-13 -50q-17 -120 -9 -240z" />
    <glyph glyph-name="ordmasculine" unicode="&#xba;" horiz-adv-x="282" 
d="M214 383q5 -11 13.5 -21t5.5 -26q12 -16 5.5 -34t-13.5 -32q-12 -12 -18.5 -27t-23.5 -22q-20 -11 -45.5 -10.5t-43.5 14.5q-13 8 -19 19.5t-8 25t-1.5 28t0.5 27.5q3 15 11.5 30t20 27t26 21t30.5 12l2 -2q9 5 16.5 3.5t14.5 -7t13.5 -13t13.5 -13.5zM117 360
q-10 -16 -13.5 -37.5t7.5 -38.5q11 -6 23 -9.5t25 1.5q8 2 9.5 8t1.5 13v7q-1 22 -13.5 37.5t-24.5 31.5z" />
    <glyph glyph-name="guillemotright" unicode="&#xbb;" horiz-adv-x="609" 
d="M355 141q-4 21 5 36t24.5 27.5t33 24t29.5 25.5l35 33q-24 18 -51 28t-53.5 20.5t-50.5 25t-42 42.5q0 16 4.5 20.5t11.5 4t15.5 -4.5t17.5 -6q23 -10 34.5 -17t21.5 -13.5t22 -14t36 -17.5q29 -16 55.5 -33t40.5 -24l-5 -47q-33 -10 -56.5 -23.5t-44 -28.5t-40 -30
t-43.5 -28zM143 137q-4 21 5 36t24.5 27.5t33 24t29.5 25.5l35 33q-26 12 -53 21.5t-53.5 21.5t-49.5 29t-41 45q0 15 7 19t17.5 2t22 -7t20.5 -7q24 -14 37.5 -24t25 -18.5t25.5 -17t39 -18.5q29 -11 50 -21.5t38 -14.5l-1 -29q-33 -10 -61 -26.5t-53.5 -34.5t-49 -35.5
t-47.5 -30.5z" />
    <glyph glyph-name="afii10023" unicode="&#x401;" horiz-adv-x="387" 
d="M365 406q-1 -3 -2 -5.5t-2 -4.5q-4 -7 -13 -9q-26 1 -51.5 6.5t-50.5 10.5q-26 5 -53 7t-56 -5q-3 -36 -10 -70t-15 -67.5t-15.5 -68t-11.5 -71.5q42 8 86.5 11t81.5 11q11 -2 13.5 -10.5t3.5 -22.5q-26 -9 -53 -13l-54 -8t-53.5 -9t-51.5 -16q-8 6 -18 9q-4 1 -6.5 2
t-4.5 5l25 110q-8 14 -4.5 29.5t5.5 29.5q7 45 17.5 89t20.5 88.5t17.5 89.5t8.5 92q4 6 12 7q11 1 18 8q29 -1 56 -1.5t53 -0.5t52 -2t53 -6q-1 -14 -4 -26.5t-13 -20.5q-22 -5 -40 -5.5t-38 7.5l-111 3q-7 -28 -11 -56t-2 -60l3 -1q22 -1 44 -4.5t44 -6.5t44.5 -4t44.5 3
l13 -9q11 -5 19.5 -9.5t13.5 -16.5q-2 -2 -2.5 -4.5t-2.5 -4.5zM327 728q10 -3 16 -10.5t8 -16t0.5 -16.5t-5.5 -14q-4 -9 -13 -12.5t-19.5 -3t-21 3.5t-17.5 6q-15 12 -16 29t7.5 29t25 15.5t35.5 -10.5zM129 743q11 1 23 0.5t21.5 -3.5t15 -9.5t4.5 -17.5q0 -14 -10 -25.5
t-24 -16.5q-13 -4 -22 -1t-16 9.5t-11 14t-7 13.5q8 9 10 19t16 17z" />
    <glyph glyph-name="afii10051" unicode="&#x402;" horiz-adv-x="424" 
d="M176 528q-27 5 -55.5 1.5t-54.5 2.5q-9 0 -18 2.5t-15 7t-8.5 11t1.5 15.5q42 14 85 13t85 -4t83 -2t80 18q17 -2 33.5 -6t21.5 -24q-7 -10 -17 -14.5t-21 -6.5t-22.5 -3t-21.5 -4q-25 -2 -50 -6.5t-52 -3.5q-11 -55 -17.5 -111t-11.5 -113q16 7 26.5 12t17.5 7
q15 6 49 3q28 8 49.5 -2t36.5 -31.5t22.5 -51t7.5 -60.5q-3 -28 -7.5 -50t-10.5 -40t-13.5 -34.5t-16.5 -32.5q-19 -32 -37.5 -58t-44.5 -50q-17 -15 -31.5 -25t-22.5 -7q-2 1 -4 5.5t-3 10.5t-1.5 12t-0.5 9q3 5 6 13t14 18q45 36 54 59q5 11 12 21.5t17 19.5
q20 19 28 51.5t14 77.5q-16 63 -29 84q-12 20 -43 20q-6 1 -15 0.5t-18.5 -2t-18 -4t-12.5 -5.5q-10 -5 -22 -13l-7 -4q-5 -66 -11.5 -130t-19.5 -126q-5 -8 -15.5 -10.5t-20.5 -2.5q-10 8 -12 18t-0.5 21t3.5 22t1 20q14 120 26 236.5t28 225.5z" />
    <glyph glyph-name="afii10052" unicode="&#x403;" horiz-adv-x="433" 
d="M154 188q1 -23 0 -46l-2 -46t-1.5 -45.5t-0.5 -45.5t2 -46.5t6 -47.5q-7 -4 -12 -7.5t-10 -6.5q-9 -4 -20 -6q-16 36 -18.5 71t0 70.5t5.5 71t-2 71.5q-6 48 -9.5 105.5t-7 111t-9.5 94t-18 54.5q-10 12 -12 26.5t6 18.5l313 68q7 -1 14.5 -5.5t9.5 -14.5
q2 -8 -1.5 -16.5t-8.5 -12.5l-250 -59q-4 -27 -1.5 -52t7.5 -48l8 -46q2 -8 2.5 -36t0.5 -54v-27q9 -51 9 -94zM338 782q0 -13 -9 -24.5t-13 -11.5t-21 -13q-12 -8 -28.5 -20t-31 -23t-24.5 -19l-10 -8l-6 -6q-5 -1 -16.5 -5t-16.5 -4l-4.5 1t-9 3.5t-8.5 6.5t-4 10v2
q0 10 12 24t29.5 28t36 27t31.5 21q21 12 33.5 19.5t23.5 7.5q19 0 27.5 -2.5t8.5 -13.5z" />
    <glyph glyph-name="afii10053" unicode="&#x404;" horiz-adv-x="428" 
d="M257 506q14 -21 12.5 -32.5t-16.5 -23.5q-50 -11 -79 -40.5t-42 -60.5q-12 -32 -21 -69.5t-9 -71.5q38 3 82 14.5t83 17.5q5 1 13 2t12 0q11 0 17 -2t2 -12q-1 -5 -3 -7q-2 -5 -5 -6t-7 -3q-26 -3 -54 -9t-55 -16q-19 -7 -38 -13t-38 -11q5 -26 17.5 -50t33 -42.5t50 -29
t69.5 -10.5h9.5t8.5 1q12 4 25 7t25 -4q6 -8 4 -15.5t-8 -14.5t-13 -13t-12 -10q-9 -6 -19 -5.5t-19.5 2.5t-19 3.5t-18.5 -2.5q-55 17 -87 33t-51 35t-30 42.5t-24 56.5q-3 19 -3.5 45t1.5 53t7.5 53t14.5 46q33 75 79 112.5t106 49.5z" />
    <glyph glyph-name="afii10054" unicode="&#x405;" horiz-adv-x="396" 
d="M314 90q7 16 -1 35t-17 32q-18 24 -39 45t-44 40t-47 37t-48 38q-16 21 -29 49t-17.5 56.5t3 55.5t32.5 46q11 9 30.5 15t41.5 8.5t43 1.5t36 -6q18 -6 22.5 -10t2.5 -8.5t-7 -10.5t-6 -16q-5 2 -25 2.5t-43 0.5q-22 0 -41 -1t-24 -3q-8 -13 -15.5 -25t-5.5 -26
q4 -34 23.5 -57t44.5 -41.5t52 -36t46 -40.5q36 -31 56.5 -76.5t34.5 -88.5q-5 -25 -16 -43t-19 -41q-10 -4 -16.5 -12t-12.5 -17t-13 -17t-18 -12q-39 -15 -77 -8t-68 33q-16 15 -28.5 33t-24 36t-24 35.5t-28.5 32.5q2 11 0 20t7 18q9 6 17 4.5t15.5 -6.5t14 -12t12.5 -12
q13 -19 26 -40t29 -39t36 -29t49 -10q13 1 25.5 4.5t23 10.5t17.5 17t8 24z" />
    <glyph glyph-name="afii10055" unicode="&#x406;" horiz-adv-x="368" 
d="M275 19q-4 8 -19 7t-32.5 -5t-33 -9t-21.5 -5q-4 1 -12 1t-12 1q-3 1 -9.5 -1.5t-14 -5t-13.5 -3.5t-8 2q-15 11 -19 19t-9 25q4 0 12 2l16 4t15.5 3t11.5 -1q11 -5 22 1t28 16q-2 45 -5 83t-6.5 72.5t-8.5 67.5t-11 67v157q-3 7 -11.5 7.5t-19 -1.5t-21 -5.5t-17.5 -5.5
l-13 -3q-11 -3 -21.5 -3.5t-17.5 13.5q-2 3 0.5 4t5.5 1.5t5.5 2t0.5 4.5q-7 8 -7 16q25 6 50 12.5t56 10.5l4 22q3 -1 10 -1q8 0 11 -1q6 -1 10.5 -3t8.5 -9q17 -7 33 -4.5t33 4.5q14 2 24.5 -0.5t17.5 -14.5q1 -7 2.5 -10.5t3.5 -6.5t3.5 -6.5t2.5 -9.5q-10 -8 -29 -8
q-11 1 -22.5 3t-22.5 3q-25 3 -39.5 -19.5t-4.5 -67.5l4 -54q-2 -16 -3.5 -24t-1.5 -14t1.5 -12.5t4.5 -20.5l12 -54q2 -14 3 -28t3 -28q4 -33 6 -66q1 -17 3 -34t8 -35q15 -5 27 -5h20h14.5h20t19 -1.5t11.5 -4.5q-2 -7 -6 -14t-1 -12q0 -1 -3.5 -2t-8 -2t-8 -2t-3.5 -2
q1 -2 -2.5 -1.5t-8 1.5l-9 2t-5.5 0z" />
    <glyph glyph-name="afii10056" unicode="&#x407;" horiz-adv-x="368" 
d="M275 19q-4 8 -19 7t-32.5 -5t-33 -9t-21.5 -5q-4 1 -12 1t-12 1q-3 1 -9.5 -1.5t-14 -5t-13.5 -3.5t-8 2q-15 11 -19 19t-9 25q4 0 12 2l16 4t15.5 3t11.5 -1q11 -5 22 1t28 16q-2 45 -5 83t-6.5 72.5t-8.5 67.5t-11 67v157q-3 7 -11.5 7.5t-19 -1.5t-21 -5.5t-17.5 -5.5
l-13 -3q-11 -3 -21.5 -3.5t-17.5 13.5q-2 3 0.5 4t5.5 1.5t5.5 2t0.5 4.5q-7 8 -7 16q25 6 50 12.5t56 10.5l4 22q3 -1 10 -1q8 0 11 -1q6 -1 10.5 -3t8.5 -9q17 -7 33 -4.5t33 4.5q14 2 24.5 -0.5t17.5 -14.5q1 -7 2.5 -10.5t3.5 -6.5t3.5 -6.5t2.5 -9.5q-10 -8 -29 -8
q-11 1 -22.5 3t-22.5 3q-25 3 -39.5 -19.5t-4.5 -67.5l4 -54q-2 -16 -3.5 -24t-1.5 -14t1.5 -12.5t4.5 -20.5l12 -54q2 -14 3 -28t3 -28q4 -33 6 -66q1 -17 3 -34t8 -35q15 -5 27 -5h20h14.5h20t19 -1.5t11.5 -4.5q-2 -7 -6 -14t-1 -12q0 -1 -3.5 -2t-8 -2t-8 -2t-3.5 -2
q1 -2 -2.5 -1.5t-8 1.5l-9 2t-5.5 0zM267 690q10 -3 16 -10.5t8 -16t0.5 -16.5t-5.5 -14q-4 -9 -13 -12.5t-19.5 -3t-21 3.5t-17.5 6q-15 12 -16 29t7.5 29t25 15.5t35.5 -10.5zM69 705q11 1 23 0.5t21.5 -3.5t15 -9.5t4.5 -17.5q0 -14 -10 -25.5t-24 -16.5q-13 -4 -22 -1
t-16 9.5t-11 14t-7 13.5q8 9 10 19t16 17z" />
    <glyph glyph-name="afii10057" unicode="&#x408;" horiz-adv-x="372" 
d="M397 508q-21 -1 -36 -1.5t-29 -2t-29 -5t-35 -10.5q-4 -68 -13.5 -135.5t-27 -132.5t-44 -128t-65.5 -121q-21 -20 -50 -31t-60 -3q-51 14 -80 53t-47 84q7 1 11 6.5t7 11.5t7 11t13 5q-2 -33 16 -56t37 -45q9 -4 19 -10t20 -10t21 -4.5t22 7.5q39 36 60.5 79t35.5 89.5
t25 94.5t29 92l21 150l-95 -15l-33 32q25 17 44 22t38 4.5t40.5 -3t50.5 -0.5q22 -1 40.5 4.5t35.5 9t33 -0.5t34 -24z" />
    <glyph glyph-name="afii10058" unicode="&#x409;" horiz-adv-x="628" 
d="M385 463l-12 -94q-2 -22 -4.5 -44t-0.5 -48q20 -10 41 -11t46 -9q20 -7 32.5 -14t20 -13.5t12.5 -13t11 -12.5q10 -14 15.5 -26t9.5 -24q5 -13 5 -25t1 -27q2 -37 -15 -67.5t-43 -56.5q-16 -12 -36 -20t-41 -12t-42.5 -4.5t-39.5 2.5q-5 4 -8.5 6t-8.5 4q-17 7 -28.5 13
t-22.5 24q10 9 13 17t4 16q1 9 0.5 17t2.5 16q-2 67 9 132.5t19 131.5q5 21 6 42.5t0 43.5v43q0 21 4 41l-9 3q-7 1 -15 -10.5t-17 -29t-18.5 -38.5t-18.5 -40t-17 -34t-14 -19q-9 -19 -18 -36.5t-18 -34.5q-14 -26 -28.5 -51.5t-34.5 -48.5q-24 -29 -47 -62t-46 -72
q-8 -14 -23.5 -10t-18.5 23q20 23 33 49t27 52q15 28 25.5 40t19 21t16.5 21.5t20 42.5q2 1 10 13.5t18 29.5t20 35t16 29q9 12 22.5 40t29.5 56.5t34 51.5t37 25q3 -1 11 -2.5t16 -4t15 -5.5t9 -8q16 -16 16 -29l1 1zM328 -5q19 -12 42 -11t45.5 9t43.5 21.5t36 25.5
q14 19 18.5 36.5t2.5 34.5t-9 33.5t-16 33.5q-7 14 -24 18.5t-30 11.5q-6 3 -14.5 4t-19 1.5t-20.5 2t-19 5.5q-5 -60 -15.5 -114.5t-20.5 -111.5z" />
    <glyph glyph-name="afii10059" unicode="&#x40a;" horiz-adv-x="537" 
d="M442 -45q-19 -13 -50 -19t-58 -6q-23 0 -36 4q-8 2 -15.5 2.5t-15.5 0.5q-17 1 -30.5 5t-18.5 27q-5 22 -7 44.5t-2 45.5q0 13 0.5 29t1.5 29l22 97q-10 -1 -22 -1h-26q-29 -1 -56 3.5t-43 0.5q-8 -39 -11.5 -69.5t-4.5 -57.5q-1 -18 -2 -40t-5 -49q-2 -5 -4 -15
q-3 -10 -5.5 -19.5t-7.5 -16.5l-11 11q-8 8 -14 18t-9 24q11 49 16.5 86.5t6.5 79.5q0 22 1 45t3 49q2 17 8.5 38.5t8.5 41.5q2 29 3.5 60.5t3 62t5 59.5t10.5 53q19 2 34.5 -15t8.5 -49q-5 -27 -9 -60.5t-8 -68.5t-7.5 -68t-7.5 -58l156 9l14 60q5 26 7.5 51t4.5 49
q2 32 5.5 63t11.5 60q9 3 19 8t19 9q5 -5 5.5 -12t-0.5 -13q-2 -14 3 -24l-41 -249q41 -4 77 -11t63 -21q17 -8 24 -13.5t14 -13.5l15 -16q15 -14 20 -28t8 -28q4 -16 8 -28q-3 -52 -21 -89.5t-59 -66.5zM321 -29q27 0 54 7t38 17q28 23 42.5 55t14.5 63q0 17 -4 28
q-6 22 -30 36t-53.5 22t-57 11t-40.5 2q-3 -7 -5.5 -20t-5 -27t-4.5 -27.5t-3 -22.5q-5 -23 -7.5 -40t-2.5 -31t2.5 -28t10.5 -32z" />
    <glyph glyph-name="afii10060" unicode="&#x40b;" horiz-adv-x="498" 
d="M167 482q30 5 56.5 8.5t51 4.5t48 -2.5t46.5 -12.5q-2 -2 -1.5 -4t0.5 -4.5t-3 -6.5t-11 -10l-161 -11q4 -21 7.5 -48t5.5 -55.5t3.5 -56t2.5 -49.5q-1 -5 -0.5 -10t0.5 -10q6 8 17 23t24.5 29.5t30 24t33.5 6.5q26 -5 44.5 -11t32 -15t23 -23t17.5 -35q5 -14 8.5 -23.5
t6.5 -19t5 -22t4 -32.5q1 -8 2.5 -29.5t3.5 -46.5t3.5 -47t1.5 -31q-11 1 -16 2.5t-8 4.5t-6.5 7.5t-10.5 11.5l-16 122q-4 28 -11.5 50t-10.5 35q-4 18 -14 31t-22.5 20.5t-26 10t-24.5 -0.5q-19 -4 -31.5 -16t-22.5 -28t-18.5 -35t-18.5 -38q1 -35 1.5 -67t6.5 -55
q1 -24 1.5 -33t1 -16t-0.5 -16.5t-3 -33.5q-5 7 -11.5 9t-13 3.5t-12 4t-7.5 11.5q-1 54 -3.5 101.5t-5 94.5t-4 97t-0.5 110q1 20 -0.5 46t-3.5 43q-24 2 -46 -2t-46 -2q-20 -5 -47.5 -7.5t-47.5 -2.5q-6 4 -10 6t-2 9q4 11 16.5 17t27 9.5t28.5 5.5t23 5q13 7 26.5 8.5
t27.5 0.5t29 -3t30 -1z" />
    <glyph glyph-name="afii10061" unicode="&#x40c;" horiz-adv-x="385" 
d="M116 264l-1 5l-1 -4zM116 264q8 -72 9.5 -140t11.5 -140q-16 -21 -35 -18l-13 13q-12 151 -26 308t-33 307q1 13 11 18.5t27 7.5l39 -227q18 17 32 32.5t26.5 31t26 31.5t31.5 35q20 21 35 39t34 46q12 -2 23 -10.5t3 -25.5q-23 -34 -49.5 -63t-53.5 -57t-53 -57.5
t-47 -65.5q36 -28 70.5 -65t66 -78.5t58 -85t46.5 -84.5q-5 -11 -15 -15.5t-21 -6.5q-16 16 -22.5 37.5t-18.5 37.5q-42 54 -80 104.5t-83 90.5zM351 747q-1 -6 -6 -11t-10.5 -9t-11 -6t-7.5 -2t-17.5 -8.5t-33.5 -19t-33 -19.5t-14 -10l-9 -4q-6 -1 -21 -3t-22 -1l-4.5 1.5
t-10.5 4t-11 6t-4 8.5v1q2 12 22 26t42 26q11 6 26 13t34 15q8 3 17 5q8 2 15.5 3t15.5 0q23 -2 34 -5t9 -11z" />
    <glyph glyph-name="afii10062" unicode="&#x40e;" horiz-adv-x="370" 
d="M374 575q-14 -21 -30 -54.5t-33.5 -73t-34.5 -82t-33.5 -81.5t-30.5 -72t-25 -53q-19 -38 -31.5 -63.5t-23 -48t-20.5 -46.5t-24 -59q-5 -11 -16.5 -14t-19.5 2l-15 9q1 14 3 26t6 25.5t11.5 32t21.5 45.5q11 23 24 39t19 32q-2 14 6 28t9 28q1 34 -12 88t-29.5 112.5
t-30 113t-13.5 88.5q7 6 15 6q11 0 18 -8t10 -16q1 -5 5.5 -14t9.5 -21t10.5 -26t9.5 -27l38 -223q5 -11 4.5 -19.5t1.5 -11.5q11 15 23.5 43.5t26 64t28 74.5t29 74.5t29 64t28.5 43.5q16 2 22 -6t14 -20zM112 757q6 4 22 1q21 -37 32 -52t19 -22q5 -5 16 -13t20 -8
q6 0 16 5t12 10q14 8 22.5 20t18.5 19q4 6 11.5 14t13.5 13t9.5 10.5t15.5 2.5q2 -1 5.5 -5.5t10.5 -7.5q0 -8 -3 -17.5t-8 -14.5q-14 -17 -23 -27.5t-16 -15.5t-17 -13t-21 -15.5t-23.5 -13t-23.5 -5.5q-13 0 -22.5 3t-18 8t-17.5 12t-20 13q-5 1 -13 11.5t-16 24t-14.5 27
t-8.5 20.5q7 2 9.5 8.5t11.5 7.5z" />
    <glyph glyph-name="afii10145" unicode="&#x40f;" horiz-adv-x="423" 
d="M26 51q1 12 2 31.5t2.5 40t3 37.5t3.5 24q2 32 0 60.5t-3.5 56.5t-1 57.5t7.5 64.5q-2 3 -3.5 14t-2 24.5t-1 26t0.5 16.5q16 18 25 18t29 -26q4 -50 3.5 -112t-3.5 -126t-6.5 -124.5t-3.5 -105.5q30 -9 66 -15.5t70 -11t62 -7.5t41 -5q3 10 3.5 29t0.5 41t0.5 43.5
t2.5 37.5q4 32 6 62t4 51q3 37 0.5 72.5t-3 67.5t4 59.5t22.5 50.5q2 -2 9.5 -2h15.5t13.5 -1t4.5 -4q-2 -34 -5 -80.5t-7.5 -96t-9 -98.5t-9.5 -89t-6.5 -58t-3.5 -32.5t-5.5 -35t-11.5 -66.5q-28 5 -59.5 10t-64.5 10q-6 -8 -11 -23.5t-7 -38.5l-7 -26q0 -6 -1 -7.5
t-2 -1.5h-2t-2 -4q-5 -4 -8 -4.5t-17 3.5q-15 3 -12 18t3 38l1 56q-51 7 -88 11t-47 4z" />
    <glyph glyph-name="afii10017" unicode="&#x410;" horiz-adv-x="410" 
d="M383 -6q-5 -3 -10 -4.5t-10 -3.5q-6 -1 -13 -1.5t-15 -0.5l-12 29q0 75 -10.5 151.5t-15.5 159.5q-17 -3 -38 -6.5t-30 -6.5q-8 -2 -17 -4t-22 -4q-21 -48 -40.5 -90.5t-40.5 -85.5q-21 -42 -44.5 -83t-53.5 -80q-7 -1 -14 -1.5t-14 1.5q-12 1 -13 11q5 19 16.5 38t25 39
t26.5 40.5t22 41.5q26 61 55 121.5t57.5 121.5t54 123.5t44.5 128.5q8 5 15.5 11.5t15.5 10.5q6 2 12.5 1t15.5 -13q5 -127 10.5 -255t24.5 -263zM256 463q-7 -15 -17 -31q-10 -17 -19 -34.5t-18 -41.5q11 3 25 5t28 3t26 2t19 2q2 27 -5.5 68t-9.5 95q-7 -19 -12 -30.5
t-8 -18.5t-5 -11z" />
    <glyph glyph-name="afii10018" unicode="&#x411;" horiz-adv-x="425" 
d="M128 57q19 -12 42 -11t45.5 9t43.5 21.5t36 25.5q14 19 18.5 36.5t2.5 34.5t-9 33.5t-16 33.5q-7 14 -24 18.5t-30 11.5q-6 3 -14.5 4t-19 1.5t-20.5 2t-19 5.5q-5 -60 -15.5 -114.5t-20.5 -111.5zM340 512q-20 -3 -39 -3t-38 0.5t-38 0t-40 -4.5q-2 -13 -3.5 -22
t-3 -16.5t-3 -15.5t-2.5 -20q-2 -22 -4.5 -44t-0.5 -48q20 -10 41 -11t46 -9q20 -7 32.5 -14t20 -13.5t12.5 -13t11 -12.5q10 -14 15.5 -26t9.5 -24q5 -13 5 -25t1 -27q2 -37 -15 -67.5t-43 -56.5q-16 -12 -36 -20t-41 -12t-42.5 -4.5t-39.5 2.5q-5 4 -8.5 6t-8.5 4
q-17 7 -28.5 10.5t-22.5 21.5q10 9 13 19.5t4 18.5q1 9 0.5 17t2.5 16q-2 67 9 132.5t19 131.5q5 21 6 42.5t0 43.5v23q0 11 1.5 22t3.5 23q26 4 49.5 5.5t46 2t46 2.5t50.5 8q3 0 11 1t16 1t14 -1.5t6 -6.5q0 -12 -3 -17.5t-8 -9.5l-6 -9z" />
    <glyph glyph-name="afii10019" unicode="&#x412;" horiz-adv-x="425" 
d="M320 68q-6 -14 -16 -23t-22 -18q-4 -3 -7.5 -6.5t-8.5 -7.5q-42 -20 -85 -12.5t-85 30.5q-2 12 -3.5 23t-1.5 22v43q1 22 0 43.5t-6 42.5q-8 66 -19 131.5t-9 132.5q-3 8 -2.5 16t-0.5 17q-1 8 -4 16t-13 17q11 18 22.5 24t28.5 13q5 2 8.5 4t8.5 6q18 3 37.5 7.5t39 6
t38 -2t34.5 -15.5q26 -26 38 -61.5t10 -72.5q-4 -13 -7.5 -26t-8.5 -26q-4 -12 -9.5 -24t-15.5 -26q46 -26 74 -69.5t27 -91.5q-5 -29 -16 -58t-26 -55zM241 303q-32 -4 -59.5 -20.5t-53.5 -33.5q-2 -26 0.5 -48t4.5 -44l12 -94q14 -7 27 -9.5t27 -3.5q14 0 27.5 0.5
t29.5 1.5q11 11 18.5 23.5t14 26l13 27t15.5 25.5q7 19 4.5 38.5t-11 38t-20.5 34.5t-25 28zM88 531q10 -57 20.5 -111.5t15.5 -114.5q17 8 30.5 13t24.5 11q13 7 24 16t18 23q9 17 19 35t16 37t4.5 38t-15.5 38q-15 12 -34.5 20.5t-40.5 11.5t-42 -1t-40 -16z" />
    <glyph glyph-name="afii10020" unicode="&#x413;" horiz-adv-x="433" 
d="M154 220q1 -23 0 -46l-2 -46t-1.5 -45.5t-0.5 -45.5t2 -46.5t6 -47.5q-7 -4 -12 -7.5t-10 -6.5q-9 -4 -20 -6q-16 36 -18.5 71t0 70.5t5.5 71t-2 71.5q-6 48 -9.5 105.5t-7 111t-9.5 94t-18 54.5q-10 12 -12 26.5t6 18.5l313 68q7 -1 14.5 -5.5t9.5 -14.5
q2 -8 -1.5 -16.5t-8.5 -12.5l-250 -59q-4 -27 -1.5 -52t7.5 -48l8 -46q2 -8 2.5 -36t0.5 -54v-27q9 -51 9 -94z" />
    <glyph glyph-name="afii10021" unicode="&#x414;" horiz-adv-x="495" 
d="M507 -108q-8 -6 -12.5 -7t-14.5 1q-5 4 -6 19t-1.5 32.5t-1.5 33.5t-6 22q-20 -3 -47.5 -6t-57 -6t-57.5 -6t-47 -6q-11 0 -32 -1.5t-42.5 -4.5t-40 -6t-24.5 -5q-10 -2 -17.5 -3t-12 -5.5t-5.5 -14t1 -28.5q1 -5 1 -15v-21v-20.5t1 -14.5q1 -3 0.5 -5t-0.5 -5
q-3 -2 -6 -5t-6 -1q-8 -1 -18.5 0t-13.5 13q-4 7 -6 25.5t-6 35.5q-2 17 -2 32.5v32.5q1 15 7 21l11 5l21 10l6 19q4 11 7.5 24t8.5 26q8 26 15.5 53.5t13.5 51.5q10 42 20.5 75t21.5 63t23.5 59.5t26.5 64.5q11 26 19.5 46t16.5 31q7 17 14 30.5t15 22.5q7 11 18.5 11.5
t21.5 -1.5q9 0 13 -4q5 -9 8.5 -12.5t6 -7t3.5 -9.5t1 -19q0 -19 5 -36l10 -34q5 -14 8.5 -27t5.5 -27l8 -62q4 -12 7.5 -24t6.5 -24q9 -35 13.5 -62.5t9 -54.5t12 -57.5t23.5 -71.5q17 2 25.5 1t12.5 -3q6 -5 11 -10.5t7 -17.5q3 -5 4.5 -17.5t1.5 -26.5t-0.5 -27t-0.5 -19
q-2 -14 -9 -21zM375 28q2 0 16 3q-7 27 -10 33q-9 20 -13 42t-6 45t-4.5 46t-7.5 46l-6 28q-5 22 -10 45.5t-9 46.5q-3 21 -12 59t-27 83l-38 -94q-9 -21 -17 -45.5t-16 -47.5q-5 -15 -12 -37.5t-14 -47t-14 -50.5t-13 -48t-8.5 -36.5t-4.5 -27t-5.5 -27t-10.5 -35.5
q23 -2 50 -0.5t53.5 3.5t50.5 5t42 4q24 2 31 3.5t15 3.5z" />
    <glyph glyph-name="afii10022" unicode="&#x415;" horiz-adv-x="387" 
d="M365 406q-1 -3 -2 -5.5t-2 -4.5q-4 -7 -13 -9q-26 1 -51.5 6.5t-50.5 10.5q-26 5 -53 7t-56 -5q-3 -36 -10 -70t-15 -67.5t-15.5 -68t-11.5 -71.5q42 8 86.5 11t81.5 11q11 -2 13.5 -10.5t3.5 -22.5q-26 -9 -53 -13l-54 -8t-53.5 -9t-51.5 -16q-8 6 -18 9q-4 1 -6.5 2
t-4.5 5l25 110q-8 14 -4.5 29.5t5.5 29.5q7 45 17.5 89t20.5 88.5t17.5 89.5t8.5 92q4 6 12 7q11 1 18 8q29 -1 56 -1.5t53 -0.5t52 -2t53 -6q-1 -14 -4 -26.5t-13 -20.5q-22 -5 -40 -5.5t-38 7.5l-111 3q-7 -28 -11 -56t-2 -60l3 -1q22 -1 44 -4.5t44 -6.5t44.5 -4t44.5 3
l13 -9q11 -5 19.5 -9.5t13.5 -16.5q-2 -2 -2.5 -4.5t-2.5 -4.5z" />
    <glyph glyph-name="afii10024" unicode="&#x416;" horiz-adv-x="611" 
d="M282 352q-6 62 -12 122t-14 120q1 13 11 18.5t27 7.5l40 -251q28 36 54 76t61 78q20 21 35 39t34 46q12 -2 23 -10.5t3 -25.5q-23 -34 -51 -72t-55.5 -74t-53 -67t-42.5 -50q27 -21 49.5 -44.5t47.5 -50.5q12 -13 26.5 -27t25.5 -28q27 -35 50 -70.5t41 -72.5
q-5 -11 -15 -15.5t-21 -6.5q-16 16 -22.5 37.5t-18.5 37.5q-9 11 -14 21.5t-13 20.5q-11 14 -27 25.5t-27 23.5q-20 22 -39.5 43t-42.5 41q4 -36 6 -67.5t3.5 -62.5t4 -62.5t7.5 -67.5q-16 -21 -35 -18l-13 13l-23 277l-17 -15q-18 -17 -32 -32t-26 -30t-24 -32.5t-26 -38.5
q-17 -24 -36.5 -50t-33.5 -57q-12 0 -22 15t-5 33q12 26 32.5 45.5t37.5 42.5q20 26 33.5 47.5t36.5 48.5q28 34 57 72q-36 28 -62 51.5t-52 44.5t-55 40t-71 38q-3 11 2 20.5t12 18.5q23 -2 42.5 -12.5t36.5 -18.5q31 -15 49 -27.5t32 -26t28 -28.5t37 -35z" />
    <glyph glyph-name="afii10025" unicode="&#x417;" horiz-adv-x="392" 
d="M268 -10q-17 -14 -37 -19t-41 -4.5t-42 6.5t-38 15q-8 8 -23 18t-28.5 21t-22 22.5t-4.5 22.5q4 1 12 1t15.5 -0.5t14 -0.5t8.5 3q6 -4 12 -8.5t12 -9.5q27 -20 54 -34.5t56 -6.5q20 6 30.5 20.5t26.5 39.5q10 21 13.5 39.5t4.5 35.5q-4 22 -7 43.5t-17 43.5
q-11 13 -20.5 21t-19.5 11.5t-21 5t-26 2.5q-12 2 -25 1.5t-26 8.5q13 14 23 18.5t27 2.5q6 0 9.5 1.5t8.5 2.5q23 6 35 25t16 43q7 35 -2.5 69.5t-51.5 60.5q-9 6 -23 9.5t-30 3.5t-32.5 -5.5t-30.5 -18.5l-6 7q-4 5 -6.5 9t-0.5 10q-2 12 10.5 19.5t30.5 11.5t37.5 4.5
t31.5 -2.5q21 -5 42 -17.5t37.5 -28.5t27 -35t10.5 -37q1 -12 1.5 -29t-1.5 -35.5t-9 -38.5t-22 -39q21 -12 35.5 -30t24 -40t14.5 -46t6 -47q0 -39 -18 -80t-55 -66z" />
    <glyph glyph-name="afii10026" unicode="&#x418;" horiz-adv-x="487" 
d="M52 471q-1 7 -1 14v15t-2 16.5t-1 16.5v42q2 3 3.5 5.5t3.5 4.5q5 7 11 8.5t18 -15.5q1 -21 4 -56.5t7.5 -78t9.5 -89t9 -89.5t7.5 -80t4.5 -61l61 155l86 176l68 159q1 16 5 19.5t6 9.5q4 2 13 2t13 -2l9 -6l8 -6q2 -48 4.5 -87.5t5.5 -77.5t6 -78t4.5 -89t1.5 -111
t-3 -144q-2 -2 -1 -12.5t-1 -21.5t-9.5 -19.5t-26.5 -6.5l-5 30t-6 39t-5 43t-1 42l3 48q1 12 0 37.5t-2.5 58.5t-3.5 69.5t-4 69.5t-3.5 59.5t-2.5 39.5l-37 -94l-37 -76l-93 -216l-44 -103q0 -15 1 -21.5t1 -10.5t-1.5 -10t-6.5 -20q-14 -2 -24.5 5t-14.5 18l-26 297
q1 12 -1 31.5t-2 35.5q0 24 -1 38.5t-2 26t-3 22.5t-3 28z" />
    <glyph glyph-name="afii10027" unicode="&#x419;" horiz-adv-x="487" 
d="M52 471q-1 7 -1 14v15t-2 16.5t-1 16.5v42q2 3 3.5 5.5t3.5 4.5q5 7 11 8.5t18 -15.5q1 -21 4 -56.5t7.5 -78t9.5 -89t9 -89.5t7.5 -80t4.5 -61l61 155l86 176l68 159q1 16 5 19.5t6 9.5q4 2 13 2t13 -2l9 -6l8 -6q2 -48 4.5 -87.5t5.5 -77.5t6 -78t4.5 -89t1.5 -111
t-3 -144q-2 -2 -1 -12.5t-1 -21.5t-9.5 -19.5t-26.5 -6.5l-5 30t-6 39t-5 43t-1 42l3 48q1 12 0 37.5t-2.5 58.5t-3.5 69.5t-4 69.5t-3.5 59.5t-2.5 39.5l-37 -94l-37 -76l-93 -216l-44 -103q0 -15 1 -21.5t1 -10.5t-1.5 -10t-6.5 -20q-14 -2 -24.5 5t-14.5 18l-26 297
q1 12 -1 31.5t-2 35.5q0 24 -1 38.5t-2 26t-3 22.5t-3 28zM129 793q6 4 22 1q21 -37 32 -52t19 -22q5 -5 16 -13t20 -8q6 0 16 5t12 10q14 8 22.5 20t18.5 19q4 6 11.5 14t13.5 13t9.5 10.5t15.5 2.5q2 -1 5.5 -5.5t10.5 -7.5q0 -8 -3 -17.5t-8 -14.5q-14 -17 -23 -27.5
t-16 -15.5t-17 -13t-21 -15.5t-23.5 -13t-23.5 -5.5q-13 0 -22.5 3t-18 8t-17.5 12t-20 13q-5 1 -13 11.5t-16 24t-14.5 27t-8.5 20.5q7 2 9.5 8.5t11.5 7.5z" />
    <glyph glyph-name="afii10028" unicode="&#x41a;" horiz-adv-x="385" 
d="M116 264l-1 5l-1 -4zM116 264q8 -72 9.5 -140t11.5 -140q-16 -21 -35 -18l-13 13q-12 151 -26 308t-33 307q1 13 11 18.5t27 7.5l39 -227q18 17 32 32.5t26.5 31t26 31.5t31.5 35q20 21 35 39t34 46q12 -2 23 -10.5t3 -25.5q-23 -34 -49.5 -63t-53.5 -57t-53 -57.5
t-47 -65.5q36 -28 70.5 -65t66 -78.5t58 -85t46.5 -84.5q-5 -11 -15 -15.5t-21 -6.5q-16 16 -22.5 37.5t-18.5 37.5q-42 54 -80 104.5t-83 90.5z" />
    <glyph glyph-name="afii10029" unicode="&#x41b;" horiz-adv-x="428" 
d="M36 0q18 40 28.5 78.5t18 79t14 83.5t15.5 92q8 42 15 76t14 64.5t14 60.5t14 65q15 2 24.5 -1.5t17 -10t13 -14t12.5 -14.5q27 -85 55.5 -165t52.5 -165q12 -31 25 -62.5t30 -70.5q-20 -9 -32 -8.5t-24 6.5q-22 51 -41.5 104t-37 106t-34.5 105t-35 100
q-10 -47 -15.5 -79.5t-10 -63t-10.5 -65t-17 -86.5q-7 -34 -13 -65.5t-12.5 -63t-15.5 -63t-23 -65.5q-21 2 -35.5 11t-6.5 31z" />
    <glyph glyph-name="afii10030" unicode="&#x41c;" horiz-adv-x="508" 
d="M469 -18q2 -8 -5 -7t-15 3q-13 3 -19.5 11.5t-11.5 18.5q-5 12 -9.5 31t-9 40.5t-8.5 43t-7 37.5q-6 32 -11.5 60.5t-13.5 45.5q-6 32 -15 63t-20 64t-22.5 69.5t-22.5 80.5l-39 -329q-3 -2 -5.5 -3t-5.5 -3q-8 -5 -15 -6q-5 -1 -11.5 4t-11.5 27q-5 26 -15 62.5t-22 74
t-25 72t-24 56.5q-3 -15 -6 -46.5t-5.5 -68t-4.5 -73t-2 -62.5v-19.5t1 -13.5q-4 -27 -5.5 -61t-2 -69t-1 -68t-2.5 -59q2 -20 -19 -11q-8 3 -15 3q-2 1 -6 1q-3 0 -5 1t-5 3t-3 8q-1 17 1 56t6 88.5t8.5 104.5t8.5 104.5t7 88.5t3 56q-1 32 1.5 61.5t10.5 57.5q3 1 8 6
q28 20 56 4q8 -43 33 -97t52 -119q6 20 11.5 52.5t10.5 67.5q5 31 8 57.5t5 34.5q21 5 43.5 0.5t28.5 -20.5q17 -45 32 -100.5t27 -108.5t21.5 -96.5t15.5 -65.5q3 -11 9.5 -38t13.5 -57t13 -55.5t7 -33.5q2 -8 3 -13.5t2 -9.5v-5z" />
    <glyph glyph-name="afii10031" unicode="&#x41d;" horiz-adv-x="487" 
d="M67 531q-1 7 -1 14v15t0.5 16.5t1.5 16.5q-6 4 -9 5l-6 2l-3 2q5 8 9 16.5t9 16.5q2 3 3.5 5.5t3.5 4.5q5 7 11 8.5t18 -15.5q2 -64 9.5 -128t10.5 -136q48 -8 92.5 -4.5t92.5 11.5q17 72 14.5 143.5t-14.5 140.5q0 5 5 12q4 9 9 16q7 4 15 0l9 -6l8 -6l15 -290
q11 -6 25 -5.5t23 -1.5q8 -2 9 -10t-1 -13q-1 -3 -11.5 -7.5t-22 -9.5t-20.5 -10t-8 -8l-5 -383q-2 -2 -7 4.5t-11 14.5t-11.5 15t-8.5 6q-2 12 -3 30.5t-2.5 40.5t-2 44t-0.5 42v43q1 35 2 69.5t-1 72.5q-26 2 -48 0t-43 -6q-21 -5 -42.5 -9.5t-46.5 -9.5
q-8 -85 -8.5 -167.5t-13.5 -163.5q-14 -2 -21 5t-11 18l-6 297q1 12 1.5 26t0.5 30q0 24 -1 49.5t-2 50t-3 47t-3 39.5z" />
    <glyph glyph-name="afii10032" unicode="&#x41e;" horiz-adv-x="456" 
d="M415 336q-14 -40 -34.5 -76.5t-39.5 -74.5q-19 -27 -51 -52.5t-68 -43t-73 -23.5t-65 5q-11 7 -22.5 17.5t-20.5 24.5q-8 5 -10 17t-5 20v51t1.5 45.5t5 46t11.5 52.5q9 31 24 64t34.5 64t42.5 57t48 42q13 6 27.5 11.5t29.5 8t29.5 0t27.5 -12.5q16 6 33 5t32.5 -8.5
t27.5 -22t18 -35.5q15 -57 13 -100.5t-16 -81.5zM232 536q-11 -3 -20 -8q-20 -11 -39.5 -39t-36 -59t-29 -57.5t-17.5 -35.5q-3 -30 -7.5 -56.5t-7.5 -52.5q-3 -25 -2.5 -49t8.5 -50q16 -11 36.5 -16.5t40.5 -1.5q39 20 68.5 38t53 40.5t42 52.5t34.5 73q0 15 7.5 43
t13.5 59q6 32 6.5 58t-10.5 37l-15 15t-19 9q-1 -8 -9 -5.5t-13 0.5q-8 -2 -16.5 -5.5t-16.5 -7.5l-7 -3q-34 -17 -50.5 -21.5t-22.5 -1.5q-5 4 -3 11.5t4 9.5t9.5 7t15.5 11l10 6z" />
    <glyph glyph-name="afii10033" unicode="&#x41f;" horiz-adv-x="526" 
d="M291 448q-5 0 -10 -1l-10 -2q-16 -3 -22 -2q-26 5 -35 -4.5t-14 -33.5q-7 -44 -13.5 -101t-13.5 -117t-16 -119t-21 -107q-17 -14 -32.5 -11.5t-24.5 14.5q1 6 3.5 16.5t5.5 21t6.5 19t5.5 10.5q-2 40 2.5 80.5t8.5 67.5q5 28 9.5 56t9.5 61q-1 3 4 26l9 44q5 30 4 47.5
t-15 20.5q-12 -4 -25 -4t-18 1l-25 7q-3 0 -5.5 1t-4.5 2q-1 0 -2 0.5t-2 0.5q-3 8 -6 21.5t-4 23.5q6 3 16 3.5t24 -0.5l31 -4q8 -1 15 -2t12 0q8 -2 23.5 -1.5t34.5 2.5q20 2 45.5 4.5t53.5 4.5q51 4 104.5 5t95.5 -4q0 -10 2.5 -19t3.5 -18q-9 -2 -20.5 -2.5t-22.5 -2.5
q-15 -2 -28.5 -3.5t-38.5 -2.5q7 -25 6 -44q0 -10 -1 -20t-2 -18q-2 -17 -4 -33.5t-3 -29.5q-1 -39 -3.5 -72.5t-6 -65t-7 -62.5t-6.5 -65q0 -4 -1.5 -15.5t-9.5 -17.5q-4 -2 -7 -2q-6 0 -12 2t-11 0q-8 20 -8.5 42.5t3.5 48.5q2 16 4 26t4 19.5t3.5 21t2.5 29.5
q2 21 4.5 52t4.5 67t2.5 74t-1.5 73q-8 -8 -15 -8h-8t-8 -1h-20v0z" />
    <glyph glyph-name="afii10034" unicode="&#x420;" horiz-adv-x="486" 
d="M426 377q-14 -19 -32 -36.5t-39 -31t-45 -22.5t-50 -10q-21 2 -38.5 9.5t-34.5 16.5q-18 10 -34.5 17.5t-37.5 11.5q-11 -39 -12 -79.5t-8 -79.5l-42 -232q-8 -6 -15.5 -6.5t-14.5 2.5t-12.5 9t-8.5 12q8 41 16.5 97.5t17 116t15.5 115t11 93.5q11 52 23.5 86.5t24 57.5
t21 36.5t14.5 23.5l-1 -1q26 35 59 62.5t75 37.5q23 1 46.5 -0.5t44.5 -8t38.5 -20t29.5 -35.5q13 -26 20.5 -58t7 -64.5t-9.5 -63.5t-29 -56zM264 629q-63 -43 -96.5 -109t-42.5 -138q30 -9 60 -17.5t56 -26.5q38 -4 72.5 9.5t58.5 42.5q14 22 22.5 49t10.5 56t-3 57
t-18 51q-23 29 -55.5 31.5t-64.5 -5.5z" />
    <glyph glyph-name="afii10035" unicode="&#x421;" horiz-adv-x="428" 
d="M402 125q-29 -15 -55.5 -30t-52.5 -26.5t-53.5 -18.5t-58.5 -6q-21 6 -44.5 13.5t-44.5 21.5q-21 11 -31.5 26t-15 32t-6 35.5t-4.5 36.5q9 45 15 88.5t18.5 83.5t36 75.5t66.5 64.5q9 -1 17 3t15.5 8.5t16 7.5t18.5 0q6 -3 13.5 -6t14 -7.5t10.5 -10.5t1 -14
q-9 -9 -21 -10t-23 -1q-8 0 -17 -3q-44 -25 -68.5 -57t-37 -70t-16 -81t-4.5 -90q3 -29 14.5 -56t44.5 -42q32 -7 59 -2.5t52.5 16t50.5 27t53 29.5q4 -6 11 -8t14 -5t11 -8t1 -16z" />
    <glyph glyph-name="afii10036" unicode="&#x422;" horiz-adv-x="374" 
d="M176 528q-27 5 -55.5 1.5t-54.5 2.5q-9 0 -18 2.5t-15 7t-8.5 11t1.5 15.5q42 14 85 13t85 -4t83 -2t80 18q17 -2 33.5 -6t21.5 -24q-7 -10 -17 -14.5t-21 -6.5t-22.5 -3t-21.5 -4q-25 -2 -50 -6.5t-52 -3.5q-13 -64 -20 -131t-12 -134t-12 -133t-20 -129
q-5 -8 -15.5 -10.5t-20.5 -2.5q-10 8 -12 18t-0.5 21t3.5 22t1 20q14 120 26 236.5t28 225.5z" />
    <glyph glyph-name="afii10037" unicode="&#x423;" horiz-adv-x="370" 
d="M374 575q-14 -21 -30 -54.5t-33.5 -73t-34.5 -82t-33.5 -81.5t-30.5 -72t-25 -53q-19 -38 -31.5 -63.5t-23 -48t-20.5 -46.5t-24 -59q-5 -11 -16.5 -14t-19.5 2l-15 9q1 14 3 26t6 25.5t11.5 32t21.5 45.5q11 23 24 39t19 32q-2 14 6 28t9 28q1 34 -12 88t-29.5 112.5
t-30 113t-13.5 88.5q7 6 15 6q11 0 18 -8t10 -16q1 -5 5.5 -14t9.5 -21t10.5 -26t9.5 -27l38 -223q5 -11 4.5 -19.5t1.5 -11.5q11 15 23.5 43.5t26 64t28 74.5t29 74.5t29 64t28.5 43.5q16 2 22 -6t14 -20z" />
    <glyph glyph-name="afii10038" unicode="&#x424;" horiz-adv-x="488" 
d="M276 251q-1 -3 -0.5 -16t1.5 -31.5t2.5 -39.5t3 -39t2.5 -31.5t2 -15.5q-1 -3 -0.5 -14.5t1.5 -26.5t2 -31t1 -27q0 -16 -5 -18q0 2 -6 2q-7 0 -16.5 -1t-11.5 4q-1 5 -2.5 17t-3.5 24.5t-4 23t-4 13.5v26v39.5t-1 47t-2 44.5t-2 34q-8 7 -21.5 11t-21.5 6
q-7 2 -14.5 3.5t-13.5 5.5q-19 11 -38.5 21.5t-36.5 23.5q-34 23 -44 60q-9 42 -6 78.5t36 74.5q3 4 14.5 12t25 16t25 14.5t13.5 6.5q4 0 12.5 5.5t11.5 5.5q2 -2 2 -7v-11q0 -13 6 -13q5 -5 -6 -5.5t-24 -10.5q-8 -6 -21.5 -14t-21.5 -14q-3 -3 -10.5 -15.5t-13 -32.5
t-4.5 -46.5t14 -58.5q13 -18 29 -29.5t30.5 -17t26 -6.5t17.5 2q13 4 20.5 10t5.5 14q-1 3 2.5 6t1.5 7t-2.5 13t-0.5 11q-5 53 -13 102t-8 99q0 33 9 68q3 4 6.5 8.5t8.5 7.5q4 2 11 2q9 0 12 -4q7 -8 5.5 -18t0.5 -23q1 -5 -2 -16.5t-1 -14.5q15 2 41 1t53 -7t50.5 -17.5
t33.5 -29.5q13 -23 18 -42t7 -36q1 -31 -3 -55q-2 -2 -8 -12.5t-9 -13.5q-8 -8 -17.5 -12t-12.5 -13q-14 -14 -29 -23.5t-32 -17.5q-8 -5 -16.5 -8.5t-16.5 -8.5q-9 -5 -18 -11t-20 -15zM373 521q-6 3 -15 4.5t-18.5 3t-18 2.5t-14.5 3q-12 4 -22 0t-23 -1v-17
q0 -15 1 -39.5t2 -43.5q2 -14 5.5 -36.5t2.5 -39.5l4 -45q21 8 43 18t40.5 21t32 24t18.5 27q13 37 -0.5 70.5t-37.5 48.5z" />
    <glyph glyph-name="afii10039" unicode="&#x425;" horiz-adv-x="417" 
d="M396 557q-17 -26 -31 -54t-29 -56q-16 -28 -33.5 -52.5t-40.5 -44.5q-13 -18 -25 -33.5t-18 -37.5q10 -42 24.5 -79.5t29.5 -76.5q14 -37 26 -74.5t20 -79.5q-22 -11 -31.5 -4t-15.5 21q-7 16 -12.5 36t-19.5 32q-11 20 -17 40.5t-11 41.5l-9 41q-3 11 -6.5 22t-10.5 28
q-27 -36 -47 -71.5t-37 -71t-34 -70t-36 -69.5q-6 -2 -10 -0.5t-9 4.5l-4 3l-4 2t-5 3q-5 11 -1 24t11 24q19 31 36.5 66.5t36.5 72t39.5 72.5t44.5 68q-11 60 -26.5 118.5t-31.5 127.5q3 -1 11 -1q3 -1 7 -1h7q11 -2 12 -4q11 -20 17.5 -40.5t11.5 -42.5q5 -23 11 -46
t17 -52q29 28 49 56t37 58q17 29 34 59t35 60q3 0 6 0.5t6 0.5q9 2 12 1q10 0 14 -10v-11z" />
    <glyph glyph-name="afii10040" unicode="&#x426;" horiz-adv-x="572" 
d="M421 184q1 -6 3 -24.5t3.5 -41t3 -45.5t2.5 -39l34 -1q2 -1 6.5 -4t9 -6.5t8.5 -6.5t4 -4q2 -9 0 -19.5t-5 -30.5q-2 -11 -3 -29.5t-3 -36t-6 -31t-11 -14.5q-14 -4 -16 -3.5t-6 4.5q-2 8 0.5 18t2.5 22l3 26q2 19 4.5 30.5t3.5 18.5t0 10.5t-5 5.5q-7 4 -7 3.5t-3 -0.5
h-1q-6 0 -11.5 -0.5t-10.5 -1.5q-18 -2 -48.5 -7t-67 -11t-75.5 -13t-75 -13q-8 46 -11.5 66.5t-5.5 35t-3.5 32.5t-6.5 58t-9.5 89t-9 98.5t-7.5 96t-5 80.5q-2 3 2.5 4t10.5 1h12t8 2q18 -23 22.5 -50.5t4 -59.5t-2.5 -67.5t1 -72.5q2 -21 4 -51t6 -62q2 -16 3.5 -38
t3.5 -44t4 -41.5t5 -29.5q13 2 36 5t51.5 8t60 12t61.5 16q0 45 -3.5 105.5t-6.5 124.5t-4 126t4 112q6 5 12 5.5t12 -0.5t11 -1t9 4q1 -4 0.5 -16.5t-1 -26t-2 -24.5t-3.5 -14q7 -35 7.5 -64.5t-1 -57.5t-3.5 -56.5t0 -60.5z" />
    <glyph glyph-name="afii10041" unicode="&#x427;" horiz-adv-x="487" 
d="M316 515q1 15 5.5 21.5t10.5 9t12.5 4t11.5 5.5q10 -19 12 -31.5t1.5 -24t-2 -25.5t3.5 -37q5 -76 13 -158t5 -157q1 -18 1 -27.5t0.5 -21t2.5 -30t8 -54.5q0 -3 -0.5 -10.5t-1.5 -16.5t-2.5 -17.5t-2.5 -12.5q-9 -14 -17.5 -13t-7.5 9l-10 4q-4 32 -6 47.5t-3 28.5
t-1 31t-1 54q-3 34 -10.5 51t-34.5 15l-49 3l-52 3q-31 2 -47 15q-17 13 -27.5 36t-24.5 46q-11 32 -19 69.5t-11.5 74t-2.5 69t8 55.5q13 0 18.5 -0.5t12.5 -20.5q-3 -22 -1.5 -61t10.5 -77q5 -18 9.5 -32.5t9 -26.5t8.5 -23.5t9 -24.5q31 -42 66 -46q19 -2 39.5 -3.5
t43.5 -1.5q9 2 19 1t16 0q-6 70 -16 136t-9 137z" />
    <glyph glyph-name="afii10042" unicode="&#x428;" horiz-adv-x="577" 
d="M91 306q-2 -21 0.5 -44.5t6.5 -45.5q1 -20 3 -58t4.5 -79t5 -78.5t4.5 -56.5q10 -1 31 1t44 6t45 10t35 13q1 12 0.5 40.5t-1 64.5t-2 76t-2 75t-0.5 62t2 37v37q-2 10 2.5 14t12 2.5t16.5 -8t16 -17.5q6 -21 4.5 -58.5t-4.5 -79t-3.5 -79t7.5 -58.5q1 8 0.5 -7.5t-1 -37
t-1.5 -42t0 -21.5q21 2 38.5 3.5t34.5 2t34.5 2t38.5 3.5q4 9 7.5 29.5t6 47t4.5 56t4 56.5t4 48.5t4 32.5q7 18 9 43.5t3.5 51.5t5.5 50.5t16 40.5q5 0 12.5 -1t12.5 -6q7 -8 12 -24q-13 -42 -16 -83.5t-8 -77.5q-9 -63 -16 -127.5t-9 -130.5q8 -1 11 -3.5t5 -8.5
q-1 -8 -0.5 -12t-12.5 -7q-8 -2 -17.5 -3.5t-23.5 -3.5t-34 -4.5t-50 -6.5q-31 -1 -65.5 -4.5t-68.5 -8.5t-66.5 -12t-60.5 -16q-17 -5 -24 -6t-20 -1q-7 -3 -16 -2t-13 9t1.5 20t6.5 19q4 103 -3 205.5t-26 212.5q0 20 -0.5 25t-0.5 7t1 7t4 26q9 6 17.5 13t20.5 -3z" />
    <glyph glyph-name="afii10043" unicode="&#x429;" horiz-adv-x="577" 
d="M91 306q-2 -21 0.5 -44.5t6.5 -45.5q1 -20 3 -58t4.5 -79t5 -78.5t4.5 -56.5q10 -1 31 1t44 6t45 10t35 13q1 11 -0.5 39.5t-2.5 65.5t-0.5 78.5t3.5 77.5q3 28 2 53t-2.5 45.5t-2.5 35.5t0 21v37q0 5 4.5 7t11.5 1t15.5 -5t15.5 -12q4 -14 4.5 -40.5t-1 -59t-3.5 -68.5
t-3 -68.5t0.5 -59t6.5 -40.5q1 8 0.5 -7.5t-1 -37t-1.5 -42t0 -21.5q21 2 38.5 3.5t34.5 2t34.5 2t38.5 3.5q4 9 7.5 29.5t6 47t4.5 56t4 56.5t4 48.5t4 32.5q7 18 9 43.5t3.5 51.5t5.5 50.5t16 40.5l16 -1l6 -9q-3 -18 -3.5 -42t-1 -49t-1 -49t-3.5 -42
q-10 -63 -16.5 -127.5t-8.5 -130.5l7 1q2 -1 8.5 -0.5l13 1t12.5 1.5t6 0q7 -8 3.5 -21.5t-1.5 -31.5q-1 -15 -6 -33.5t-5 -26.5q0 -23 -1.5 -34.5t-16.5 -14.5q-14 -4 -17 -3.5t-8 4.5q-2 8 0.5 18t2.5 22l3 26q2 19 4 29t3.5 15.5t2.5 8.5t1 6q-5 1 -7 0.5t-5 -0.5
q-35 -9 -68 -8l-54 -8q-31 -1 -65.5 -4.5t-68.5 -8.5t-66.5 -12t-60.5 -16q-17 -5 -24.5 -6.5t-20.5 -1.5l-35 14l13 45q2 51 1.5 100.5t-3.5 99t-9.5 100.5t-15.5 106q0 20 -0.5 25t-0.5 7t1 7t4 26q9 6 17.5 13t20.5 -3z" />
    <glyph glyph-name="afii10044" unicode="&#x42a;" horiz-adv-x="425" 
d="M225 525l-12 -94q-2 -22 -4.5 -44t-0.5 -48q20 -10 41 -11t46 -9q20 -7 32.5 -14t20 -13.5t12.5 -13t11 -12.5q10 -14 15.5 -26t9.5 -24q5 -13 5 -25t1 -27q2 -37 -15 -67.5t-43 -56.5q-16 -12 -36 -20t-41 -12t-42.5 -4.5t-39.5 2.5q-5 4 -8.5 6t-8.5 4q-17 7 -28.5 13
t-22.5 24q10 9 13 17t4 16q1 9 0.5 17t2.5 16q-2 67 9 132.5t19 131.5q5 21 6 42.5t0 43.5v57q-12 -2 -21 -2.5t-27 -4.5l-31 -7q-17 -4 -31.5 -6t-30.5 0q-8 2 -12.5 7.5t-5.5 11.5q-2 16 18 21q20 4 38.5 8t53.5 6q24 2 49 8t50 13zM168 57q19 -12 42 -11t45.5 9
t43.5 21.5t36 25.5q14 19 18.5 36.5t2.5 34.5t-9 33.5t-16 33.5q-7 14 -24 18.5t-30 11.5q-6 3 -14.5 4t-19 1.5t-20.5 2t-19 5.5q-5 -60 -15.5 -114.5t-20.5 -111.5z" />
    <glyph glyph-name="afii10045" unicode="&#x42b;" horiz-adv-x="552" 
d="M173 21q22 -6 43.5 0.5t41.5 20.5t36.5 32t27.5 35q9 21 8.5 39.5t-7 34t-18 29.5t-24.5 28q-10 12 -27.5 12t-31.5 3q-6 1 -15 -0.5t-19 -3.5t-20.5 -3.5t-19.5 0.5q11 -60 15.5 -115t9.5 -112zM85 568q4 -26 8 -48.5t8 -45.5q2 -11 7 -34t10.5 -49t10.5 -50t8 -37
q21 -5 42 -0.5t47 3.5q21 -1 35 -4.5t23 -8t15.5 -9.5t13.5 -9q13 -11 22 -21t15 -21q9 -10 12.5 -22t8.5 -26q12 -35 3.5 -69t-26.5 -66q-12 -17 -29.5 -29.5t-37 -22t-39.5 -15.5t-38 -8l-10.5 3t-9.5 2q-9 1 -15 2t-11.5 3t-11 6t-13.5 12q8 11 5 19.5t-5 16.5t-5 15.5
t-1 16.5q-20 64 -26.5 130t-16.5 132q0 11 -4.5 34t-10.5 49t-12 49t-9 34l-12 41q-3 10 -4.5 21t-2.5 23q11 11 17 18.5t19 15.5zM448 521q-1 7 -1 14v15q0 15 -0.5 25t-0.5 18.5t0.5 15.5t2.5 16q1 4 3 6l4 4q5 7 11 8.5t18 -15.5q2 -64 3 -123.5t4 -130.5l4 -74
q-4 -42 -4.5 -80.5t-1 -76t-2 -75t-8.5 -77.5q-14 -2 -21 5t-11 18l-6 275q1 12 3.5 26t2.5 30q0 48 1.5 95t-1.5 81z" />
    <glyph glyph-name="afii10046" unicode="&#x42c;" horiz-adv-x="425" 
d="M185 525l-12 -94q-2 -22 -4.5 -44t-0.5 -48q20 -10 41 -11t46 -9q20 -7 32.5 -14t20 -13.5t12.5 -13t11 -12.5q10 -14 15.5 -26t9.5 -24q5 -13 5 -25t1 -27q2 -37 -15 -67.5t-43 -56.5q-16 -12 -36 -20t-41 -12t-42.5 -4.5t-39.5 2.5q-5 4 -8.5 6t-8.5 4q-17 7 -28.5 13
t-22.5 24q10 9 13 17t4 16q1 9 0.5 17t2.5 16q-2 67 9 132.5t19 131.5q5 21 6 42.5t0 43.5v43q0 11 1.5 22t3.5 23q14 8 22.5 13.5t22.5 10.5zM128 57q19 -12 42 -11t45.5 9t43.5 21.5t36 25.5q14 19 18.5 36.5t2.5 34.5t-9 33.5t-16 33.5q-7 14 -24 18.5t-30 11.5
q-6 3 -14.5 4t-19 1.5t-20.5 2t-19 5.5q-5 -60 -15.5 -114.5t-20.5 -111.5z" />
    <glyph glyph-name="afii10047" unicode="&#x42d;" horiz-adv-x="484" 
d="M65 68q0 6 -1 7t-2.5 1t-2 1t1.5 8q7 1 14.5 -2t15 -7t15 -7.5t13.5 -2.5q10 -5 20.5 -4.5t21 3t21 4t21.5 0.5q11 -4 25 6q16 5 36 19t39 32.5t34.5 39.5t21.5 41q3 6 4.5 13t2.5 14q-42 15 -87.5 19.5t-90.5 15.5q-3 7 -11.5 9.5t-15.5 6t-10.5 10t3.5 20.5
q17 2 34 1.5t35 -5.5q16 -5 36 -8.5t40.5 -7t40 -8.5t35.5 -11q3 19 2.5 45.5t-4 53.5t-11 52.5t-17.5 43.5q-20 9 -32.5 20.5t-24.5 20.5t-28 12t-43 -4q-14 -3 -24.5 0t-21.5 -3q-6 6 -12 10.5t-7.5 7t3.5 3t22 0.5q-1 3 -6 4q20 8 39.5 10.5t38.5 8.5q13 1 28 -4
t30 -13.5t29 -18.5t25 -18q30 -36 46 -75t20 -78.5t-1.5 -79.5t-18.5 -78q-13 -41 -41 -76.5t-68 -59t-90.5 -31.5t-107.5 7q-14 3 -21 13.5t-14 18.5z" />
    <glyph glyph-name="afii10048" unicode="&#x42e;" horiz-adv-x="642" 
d="M74 476q-1 7 -1.5 14t-0.5 15q-1 8 -0.5 16.5t0.5 16.5q-6 4 -9 5l-6 2l-3 2q5 8 8 16.5t8 16.5q2 4 3.5 6.5t3.5 4.5q5 7 10.5 9t18.5 -15q3 -32 7 -59t8.5 -54t8.5 -55.5t7 -64.5q21 3 36.5 5t30 4t29.5 4t33 6q-2 46 4 90t22 77q9 11 18.5 23t21 21.5t25 14.5t30.5 2
q10 13 25.5 21t32.5 8.5t34.5 -6t33.5 -22.5q42 -42 63 -81t29 -80q8 -42 9.5 -83.5t4.5 -84.5q-2 -33 -16 -70.5t-36 -70.5t-50.5 -56t-58.5 -27q-21 2 -48.5 11t-41.5 30q-15 24 -27 44.5t-22.5 40.5t-19.5 42.5t-17 51.5q-4 12 -6.5 25.5t-4.5 27.5q-21 -2 -40.5 -5
t-36.5 -6q-11 -3 -14.5 -4t-6 -1t-7.5 -1t-17 -4q-2 -43 1 -85t7 -83t5.5 -82t-3.5 -82q-14 -3 -21.5 4t-11.5 18l-36 296v26t-1 30q-1 24 -2.5 41.5t-3.5 33t-4.5 29.5t-4.5 31zM345 525q-9 -7 -14 -16q-11 -20 -13 -53.5t-0.5 -69t5 -65t3.5 -39.5q13 -27 22.5 -52.5
t20.5 -49.5q10 -23 23 -44t33 -40q20 -2 40 3t35 19q23 36 39.5 66.5t25 61.5t9 66t-7.5 80q-8 14 -16.5 42t-19.5 58q-11 31 -24 53.5t-28 27.5q-9 2 -20 5.5t-21 -1.5q-27 -11 -47.5 -20.5t-38.5 -26.5z" />
    <glyph glyph-name="afii10049" unicode="&#x42f;" horiz-adv-x="438" 
d="M211 252q-30 7 -49 19t-39 32q-13 12 -20.5 32t-9.5 43.5t1 48.5t12 48q15 36 38.5 55.5t52 27t58 5.5t56.5 -9l1 10q3 2 6.5 0.5t7.5 -3.5t7 -4t6 0t5 -1t4 -8t3.5 -10.5t2.5 -6.5q9 -60 12 -110t4.5 -98.5t3.5 -99t9 -110.5q1 -16 3.5 -31.5t3 -30.5t-2.5 -29t-12 -26
l-8 -3q-4 -1 -11 2l-10 2t-14 -4q0 29 0.5 57.5t0.5 57.5q-1 32 -3 74t-8 74q-16 -2 -27 -5t-32 -5q-22 -30 -46 -56.5t-51 -52.5t-56.5 -54t-62.5 -62q-11 -11 -17.5 -9t-11 9.5t-7 15.5t-4.5 8zM325 306q-2 57 -3 103.5t-8 99.5q-43 9 -73.5 8.5t-50.5 -7.5t-31 -19.5
t-16 -27.5q-9 -15 -10 -29.5t1.5 -28.5t6 -27t5.5 -23q12 -29 35.5 -42.5t54.5 -14.5q3 0 13 -0.5t23.5 0.5t27.5 3t25 5z" />
    <glyph glyph-name="afii10065" unicode="&#x430;" horiz-adv-x="382" 
d="M335 3q-14 -11 -24.5 -16t-15.5 -7h-1h-2q-9 18 -28 20t-41.5 -1t-43.5 -5.5t-34 6.5q-26 14 -43.5 36.5t-26.5 48.5t-11 54t2 53q10 23 27 40t45 26q43 4 69.5 -7.5t52.5 -35.5q0 11 -1.5 29t-6 38.5t-13 40.5t-23.5 35q-7 6 -22.5 10t-33 7.5t-33 7t-22.5 8.5
q-8 7 -5.5 15t12.5 14.5t25.5 9.5t33.5 0q18 0 35.5 -5.5t33.5 -16t28.5 -26.5t18.5 -37q-1 -24 2.5 -66t10 -90.5t16 -97.5t19.5 -88zM101 142q6 -16 15 -36.5t22.5 -37.5t32 -27t44.5 -6q0 4 12 5.5t16 3.5l12 24q5 19 6.5 31t0 21t-5.5 19t-10 26q-17 25 -48 37t-62 10
q-17 -11 -23.5 -30.5t-11.5 -39.5z" />
    <glyph glyph-name="afii10066" unicode="&#x431;" horiz-adv-x="341" 
d="M422 486q-9 6 -17 13t-18 12q-29 9 -49.5 1t-36.5 -24.5t-29 -37.5t-26 -39q-15 -39 -17.5 -82t3 -86.5t17.5 -86.5t27 -83q10 -46 -10.5 -78.5t-54.5 -52.5q-29 -1 -55.5 8.5t-49.5 26.5t-41 39t-30 45q-8 15 -8.5 30.5t3 30.5t9.5 30t11 30q11 16 26 23.5t31.5 9.5
t33.5 -0.5t31 -6.5q11 -5 11.5 -13.5t0.5 -17.5q-16 -7 -31 -7.5t-31 -3.5q-14 -2 -24.5 -9.5t-15.5 -26.5q-11 -12 -7 -27.5t7 -29.5q12 -28 36 -53t52 -38q16 14 37.5 25.5t29.5 32.5q-15 57 -31 121t-19 127.5t14 122.5t68 107q10 12 22.5 18t26.5 9.5t28 6t28 7.5
q13 -10 27.5 -14t28.5 -10q14 -7 25 -19t9 -36q-12 -7 -22.5 -3.5t-19.5 9.5z" />
    <glyph glyph-name="afii10067" unicode="&#x432;" horiz-adv-x="380" 
d="M214 36q-22 6 -35.5 18t-22.5 27.5t-16 33.5t-15 35q-5 11 -12 23t-18 23q-25 -13 -49 -25.5t-49 -22.5q-24 -9 -48 -13t-49 2q7 25 26 35.5t44 15.5q13 3 29 7t32.5 10t31 13.5t25.5 16.5q5 11 2 24t-6 36q-4 24 -5.5 54.5t3.5 54.5q2 22 5.5 44t11.5 41t22 33.5
t37 21.5q26 -5 47 -26t30 -44q4 -9 6 -23.5t8 -22.5q-4 -30 -11 -53.5t-18.5 -45.5t-29.5 -45.5t-44 -53.5q3 -3 4 -7t1.5 -7.5t1.5 -6t6 -2.5q19 5 34 10t28.5 8t27 3t29.5 -5q14 -4 23.5 -12t17.5 -18t15.5 -21.5t16.5 -23.5q24 -31 16 -56.5t-33 -41.5t-59 -20.5t-61 6.5
zM121 461q-3 -20 -5.5 -43.5t-2.5 -47.5t4.5 -47t15.5 -43q15 17 32 35.5t29.5 39.5t17.5 43.5t-5 46.5q0 18 -10.5 28t-24.5 12t-28.5 -4t-22.5 -20zM189 128q6 -20 20.5 -30.5t31.5 -19.5l36 -4q5 2 8.5 3.5t7.5 3.5q8 5 14 11.5t8 18.5q-5 45 -40.5 64t-92.5 -2z" />
    <glyph glyph-name="afii10068" unicode="&#x433;" horiz-adv-x="384" 
d="M296 -1q-23 -21 -60.5 -27t-74 3t-64 33t-31.5 63q0 6 2 14t5 16.5t6.5 15.5l5.5 11q5 12 13 19.5t16 13t15.5 10.5t11.5 11q6 2 19.5 12t28 25t26 32t13.5 32q3 21 -12.5 24t-32.5 1q-29 -2 -50.5 -14t-39.5 -15q-5 -1 -8.5 1.5t-7.5 5t-9 5t-11 1.5q16 16 32 24.5
t29.5 13.5t22.5 8.5t12 11.5q18 3 38.5 3t37 -5.5t27.5 -18t11 -33.5v-28t-1 -16t-3 -11l-6 -15q-19 -20 -45 -39.5t-47 -42.5q-8 -9 -20 -19.5t-17 -21.5q-7 -16 -2.5 -28t15.5 -32q4 -8 16 -10t27.5 -0.5t32 6t31.5 10.5q8 3 13 10.5t11 11.5t14 -1t22 -26q-3 -7 -3.5 -22
t-8.5 -23z" />
    <glyph glyph-name="afii10069" unicode="&#x434;" horiz-adv-x="387" 
d="M325 343q0 -46 4.5 -94.5t4.5 -97.5q0 -48 -9 -94t-35 -88q-31 -34 -68.5 -48.5t-80.5 -22.5q-34 9 -65.5 30t-54.5 49q-5 22 -15 46.5t-16 49.5t-2.5 49t26.5 45l7 -8q-9 -7 -8 -12.5t5 -11t8 -11.5t1 -14q4 -23 7.5 -46t11 -44t21.5 -38t39 -27q17 -6 35.5 -11.5
t36.5 -5.5q19 0 36.5 6.5t32.5 24.5q16 12 24.5 28t12.5 33.5t4.5 36.5t0.5 37q0 25 6 49q-10 15 -19 11.5t-18 -12.5t-18.5 -19t-20.5 -9q-35 -6 -63.5 6.5t-42.5 43.5q-2 20 -8 37.5t-6 35.5q0 12 7 25q12 21 28.5 40.5t36 34.5t42 23.5t47.5 7.5q8 -4 18.5 -5.5t20 -4
t17 -8t9.5 -17.5zM190 321q-7 -11 -16 -21.5t-16.5 -21t-12.5 -22.5t-4 -27q3 -8 4.5 -15.5t3.5 -14.5t6 -13.5t13 -11.5q16 -7 27.5 -3t21 11.5t19.5 14.5t24 5q41 41 35 98q-8 18 -19.5 24t-25.5 6t-29.5 -3.5t-30.5 -5.5z" />
    <glyph glyph-name="afii10070" unicode="&#x435;" horiz-adv-x="352" 
d="M275 346q9 -13 8.5 -24.5t-5.5 -22.5t-11.5 -22t-10.5 -23q-17 -8 -34.5 -18t-35.5 -17t-38 -8.5t-41 7.5q-2 -21 -5.5 -45.5t-2 -48t10.5 -43.5t32 -31l8 -8l133 43q-1 -24 -14.5 -34.5t-32 -15.5t-38.5 -8t-34 -12q-25 -9 -42 -4.5t-28.5 17.5t-18 30.5t-11.5 34.5
l8 125q-9 4 -11.5 10t-2.5 13t1 14.5t-1 13.5q13 11 21.5 26.5t17 31.5t18.5 30.5t27 23.5q16 -3 36.5 -0.5t39.5 2t34.5 -7.5t22.5 -29zM177 346q-13 -4 -20 -12t-11.5 -18t-8 -21t-9.5 -20l85 -6l8 41q-7 5 -11 11t-8.5 11t-10 9t-14.5 5z" />
    <glyph glyph-name="afii10072" unicode="&#x436;" horiz-adv-x="608" 
d="M331 428q0 -26 -2.5 -44.5t-5.5 -36t-5 -36.5t-2 -46q56 35 118 61t135 48q13 -21 6 -31.5t-21 -16.5q-26 -9 -53.5 -22.5t-54 -27.5t-50.5 -28t-43 -24q16 -14 27 -23.5t21.5 -19.5t24 -24t35.5 -36q7 -12 23 -29t29.5 -35.5t20 -37t-4.5 -34.5l-7 -9q-32 15 -54 40.5
t-43 54.5t-45 57.5t-60 48.5l-13 -179q-4 -4 -9.5 -19t-12 -27t-13.5 -13.5t-14 22.5q-3 58 -1 106t4 93q-8 -7 -17.5 -13.5t-23.5 -15.5q-20 -14 -42.5 -31.5t-46.5 -35t-48 -33t-46 -25.5q-11 14 -12 28.5t13 22.5q23 10 45 26.5t45 36t48 40t54 38.5q7 5 11 9l9 9
q-17 17 -36.5 34.5t-39.5 30.5q-22 14 -48.5 29.5t-46.5 28.5q-12 3 -13.5 8t2.5 10t10.5 9.5t9.5 7.5q11 -5 20.5 -6t18 -1.5t18 -3t20.5 -9.5q30 -20 54 -38t47 -40q1 34 -1.5 67.5t-7.5 75.5q2 13 4 25.5t17 18.5q7 1 14.5 -3t14.5 -10t13 -12t11 -10z" />
    <glyph glyph-name="afii10073" unicode="&#x437;" horiz-adv-x="392" 
d="M196 5q-20 -8 -37.5 -9.5t-33.5 2.5t-30.5 11.5t-28.5 16.5q-6 7 -13.5 13.5t-13.5 13.5t-7.5 14t5.5 15q8 3 11.5 4.5t5.5 1t5.5 -4.5t11.5 -13q20 -20 37 -30t46 -8q10 1 14.5 0.5t8.5 1t9 5t16 11.5q8 7 17 16.5t16.5 22.5t11 31t0.5 43q-14 23 -28.5 29.5t-41.5 12.5
q-11 3 -24 4.5t-22 10.5q16 9 27 11t26 -2q5 -1 8.5 0t8.5 1q24 1 40.5 3.5t26.5 21.5l20 43q-2 13 -11 32.5t-24 31.5q-14 11 -36 18t-55 -9q-3 2 -3.5 3.5t-1.5 2.5q-2 4 -3.5 7.5t2.5 7.5q2 9 15.5 13.5t31.5 5t36.5 -2t30.5 -6.5q18 -8 30.5 -24t19.5 -34.5t8.5 -38
t-3.5 -32.5q-5 -20 -19.5 -36t-46.5 -27q23 -23 31 -53t0.5 -59.5t-31 -55t-63.5 -37.5z" />
    <glyph glyph-name="afii10074" unicode="&#x438;" 
d="M476 316q-9 -26 -4.5 -58t4.5 -61q0 -19 -8 -38q6 -30 18 -52t45 -27q9 -5 19.5 2.5t20 14.5t16 6t7.5 -23l-9 -9l9 -8q-25 -20 -50.5 -33t-60.5 -7l-55 57q-31 -45 -74.5 -76.5t-97.5 -34.5q-27 -2 -51.5 0t-46 9.5t-38.5 22.5t-29 40q-20 42 -26 90.5t-6 99.5v33.5
t1 33.5q4 10 9 12.5t11 1.5t12.5 -3.5t13.5 -1.5q2 -31 1 -65.5t1 -69t9.5 -66.5t27.5 -59q21 -23 43 -28.5t44.5 -2t46 12t47.5 12.5q42 22 59.5 59t26 78.5t15 83.5t25.5 75z" />
    <glyph glyph-name="afii10075" unicode="&#x439;" 
d="M476 316q-9 -26 -4.5 -58t4.5 -61q0 -19 -8 -38q6 -30 18 -52t45 -27q9 -5 19.5 2.5t20 14.5t16 6t7.5 -23l-9 -9l9 -8q-25 -20 -50.5 -33t-60.5 -7l-55 57q-31 -45 -74.5 -76.5t-97.5 -34.5q-27 -2 -51.5 0t-46 9.5t-38.5 22.5t-29 40q-20 42 -26 90.5t-6 99.5v33.5
t1 33.5q4 10 9 12.5t11 1.5t12.5 -3.5t13.5 -1.5q2 -31 1 -65.5t1 -69t9.5 -66.5t27.5 -59q21 -23 43 -28.5t44.5 -2t46 12t47.5 12.5q42 22 59.5 59t26 78.5t15 83.5t25.5 75zM155 510q6 4 22 1q21 -37 32 -52t19 -22q5 -5 16 -13t20 -8q6 0 16 5t12 10q14 8 22.5 20
t18.5 19q4 6 11.5 14t13.5 13t9.5 10.5t15.5 2.5q2 -1 5.5 -5.5t10.5 -7.5q0 -8 -3 -17.5t-8 -14.5q-14 -17 -23 -27.5t-16 -15.5t-17 -13t-21 -15.5t-23.5 -13t-23.5 -5.5q-13 0 -22.5 3t-18 8t-17.5 12t-20 13q-5 1 -13 11.5t-16 24t-14.5 27t-8.5 20.5q7 2 9.5 8.5
t11.5 7.5z" />
    <glyph glyph-name="afii10076" unicode="&#x43a;" horiz-adv-x="424" 
d="M97 420q3 -26 4.5 -46.5t4 -39.5t6 -38.5t11.5 -42.5q25 21 53 40.5t59 36t65 28t72 16.5q9 -23 1 -31.5t-24 -12.5q-15 -3 -34.5 -7.5t-29.5 -12.5q-26 -19 -59 -38.5t-59 -43.5q24 -7 44.5 -15t39.5 -20.5t36 -32t33 -48.5q6 -13 19 -24.5t23 -23.5t13 -25t-9 -28
l-12 -17q-20 11 -35.5 31t-30 42.5l-29 45t-33.5 39t-44 24t-59 0.5l14 -202q-7 -8 -12 -18t-18 -12q-12 67 -17 121t-9.5 106t-12 106t-24.5 120q0 13 0.5 26t14.5 21q7 2 12 -0.5t8.5 -6.5t7.5 -9t10 -8z" />
    <glyph glyph-name="afii10077" unicode="&#x43b;" horiz-adv-x="389" 
d="M43 -46q-5 5 -5.5 10t1 10t3 10.5t0.5 11.5q9 12 13.5 19.5t7 14.5t4.5 15.5t7 22.5q1 16 4.5 29t8 24.5t10 24t10.5 27.5q4 24 11 47t13 46.5t10 47.5t3 49q4 4 9 5.5t11 2.5t11 2.5t9 6.5q16 2 23.5 -3t11 -13.5t7 -19t11.5 -18.5q10 -15 21 -44.5t20.5 -62t18 -62.5
t13.5 -46q10 -32 18 -58.5t14 -51t11.5 -48.5t12.5 -51q0 -11 -2.5 -21t-10.5 -15q-9 -2 -13 2.5t-6 11.5t-4.5 16t-8.5 18q-20 73 -40.5 143t-40.5 142q-9 22 -13.5 34t-9 23.5t-11.5 26t-20 42.5q-6 -12 -10.5 -33t-8 -43t-6.5 -43t-7 -33q-9 -27 -14.5 -44.5t-11 -33
t-12.5 -32t-18 -41.5q-2 -16 -10 -31.5t-17 -26.5q-7 -2 -10.5 -5t-6 -5.5t-5 -3t-6.5 3.5z" />
    <glyph glyph-name="afii10078" unicode="&#x43c;" horiz-adv-x="508" 
d="M431 285q4 -20 4.5 -31t-0.5 -22v-32q1 -14 3 -40.5t5 -49.5q2 -27 5 -53.5t6 -43.5q-8 -7 -18.5 -10t-16.5 2q-1 7 -2 17t-1.5 20.5t-2 19.5l-2.5 15q-6 22 -9 48q-2 26 -3.5 56t-5.5 47q-1 3 -2 9t-1 10q-3 16 -8.5 46.5t-7.5 62.5l-23 -38l-28 -69
q-11 -32 -15.5 -41.5t-7.5 -13.5q-5 -8 -11.5 -19t-13.5 -31q-10 -20 -16 -22t-16 0q-5 10 -10.5 26t-7.5 30q0 37 -9.5 68.5t-27.5 77.5q-11 -40 -20.5 -66t-17.5 -48.5t-15.5 -48t-13.5 -64.5q-5 -26 -9.5 -51.5t-11.5 -48.5q-1 -11 -8.5 -12t-13.5 2q-16 3 -20.5 5
t-5.5 8q15 56 21 94q3 21 12 48t18.5 56t18.5 58t12 54q3 26 10.5 54.5t18.5 52.5q2 2 3 2q9 -14 28 -14l8 -5q6 -1 8 -6q2 -27 10.5 -58t19.5 -58q7 -13 13.5 -35t11.5 -38q15 33 26 54.5t21 36.5q6 14 10 18.5t7 9.5l11 18q3 12 5.5 20t10.5 13q14 9 21 25q16 3 25 -4
t14.5 -19.5t7.5 -28.5t4 -30l3 -33v0z" />
    <glyph glyph-name="afii10079" unicode="&#x43d;" horiz-adv-x="401" 
d="M303 412q-1 17 2 22t8 6t12 1t14 8q5 -33 8.5 -62.5t6 -58.5t5 -59t4.5 -64q3 -37 2.5 -58t-1 -38t1 -37t7.5 -54l-48 -22q1 34 1 60.5t-0.5 51.5t-2.5 51t-3 60q-21 7 -50.5 3.5t-61 -11t-61 -16t-50.5 -10.5q4 -26 2 -46t-5 -38.5t-5 -38.5t2 -45q-3 -8 -4.5 -16.5
t-3 -16.5t-5 -15t-11.5 -12q-16 28 -17 54q-2 21 -1 42t2 42.5t1.5 43.5t-3.5 45q8 30 9.5 58.5l3 57t5.5 57t16 56.5q5 14 14.5 17.5t21.5 1.5q-4 -18 -7 -45.5t-4.5 -57t-2.5 -57.5t0 -47q52 9 101 19t106 17q-4 23 -4 41v35t-0.5 34.5t-4.5 40.5z" />
    <glyph glyph-name="afii10080" unicode="&#x43e;" horiz-adv-x="358" 
d="M304 215q10 -21 13 -42.5t0 -42.5t-10.5 -41t-17.5 -38q-20 -20 -43 -40.5t-48.5 -33t-52.5 -14.5t-54 15q-32 23 -40.5 66.5t-4.5 87.5q-1 15 4.5 30.5t15 29.5t21 26.5t21.5 20.5q18 -9 31.5 0t26.5 21t27.5 19.5t34.5 -5.5q22 -3 42 -22t34 -37zM188 212
q-8 -15 -17.5 -30.5t-10.5 -30.5q0 -11 -4.5 -19t-11 -12t-14 -3t-14.5 9q-2 13 -5.5 29t3.5 29l-13 -2q-30 -49 -29 -104q7 -8 12 -19t11 -21.5t14 -19t21 -11.5q18 -5 41 -1.5t40 14.5q12 15 24.5 31.5t22 35.5t14.5 39.5t3 43.5q-1 15 -10.5 28t-22.5 20.5t-27.5 7
t-26.5 -13.5z" />
    <glyph glyph-name="afii10081" unicode="&#x43f;" horiz-adv-x="408" 
d="M124 284q15 23 39.5 27t50.5 4q15 -3 32 -6t32 -9t27.5 -16.5t19.5 -28.5q9 -52 7 -97.5t-1 -95.5q-13 -14 -16 -35t-7.5 -40.5t-16 -32t-40.5 -9.5q-7 36 4 70t24 68.5t19.5 71t-10.5 78.5q-16 18 -34 30t-40 15q-34 0 -54.5 -11t-31 -29t-13 -42.5t-2 -51t3 -54.5
t2.5 -53q0 -32 -10 -55q-26 16 -32.5 44t-6 60t2.5 63.5t-7 54.5q12 16 8.5 37.5t-7 41.5t-0.5 36.5t28 23.5q9 -5 11 -13t2.5 -16.5t3 -16.5t12.5 -13z" />
    <glyph glyph-name="afii10082" unicode="&#x440;" horiz-adv-x="336" 
d="M257 278q9 -21 16.5 -42.5t10.5 -43t-2 -43t-21 -42.5q-6 -12 -14.5 -18.5t-17.5 -10t-19 -6.5t-19 -9t-18 -3.5t-16.5 5t-13.5 1t-10 -14.5q11 -45 20.5 -86.5t16.5 -83t10.5 -84.5t2.5 -90q-12 -6 -18.5 -1.5t-10 13.5t-6.5 19t-7 16q-4 82 -21 166.5t-29 169.5
q-11 18 -22 40t-16.5 45.5t-3.5 46.5t16 44q12 30 38 43t55 13q30 0 57 -12t42 -32zM116 272q-3 -7 -8.5 -15.5t-10 -18.5t-6 -20.5t3.5 -22.5q5 -14 13.5 -28t20 -26t26 -19t31.5 -6q15 1 24.5 8t15 17t9.5 22.5t9 24.5q-4 27 -17.5 40t-31.5 19.5t-39 10.5t-40 14z" />
    <glyph glyph-name="afii10083" unicode="&#x441;" horiz-adv-x="296" 
d="M248 261q-21 -3 -40 3.5t-36.5 10t-31.5 -2.5t-24 -34q-12 -17 -15.5 -35t-2 -36t5 -37t4.5 -38q18 -16 34.5 -15.5t33.5 6.5t34.5 12.5t37.5 2.5q-6 -15 -18 -25.5t-27 -17.5t-32 -10.5t-32 -3.5q-14 -3 -25.5 -0.5t-21 9t-16.5 16t-11 18.5q-18 60 -1.5 117.5
t58.5 95.5q14 10 30.5 13t33.5 0t33 -10.5t29 -18.5v-20z" />
    <glyph glyph-name="afii10084" unicode="&#x442;" 
d="M159 353q3 -11 -0.5 -20t-6.5 -17t-1.5 -15.5t14.5 -14.5q26 12 55.5 18.5t63.5 3.5q13 -8 21 -18.5t14 -22.5t11.5 -24t13.5 -23q31 48 82.5 72t108.5 10q21 -21 31 -49t12.5 -59t0 -62.5t-6.5 -59.5q-15 -18 -21.5 -45.5t-15.5 -52t-26.5 -40t-53.5 -9.5
q15 34 34.5 68.5t34 70.5t19.5 74.5t-8 81.5q-6 5 -9.5 13t-7.5 15.5t-10 12.5t-16 4q-34 2 -55 -13.5t-35.5 -39t-25.5 -50t-26 -45.5q4 -16 -2 -31t-16.5 -29.5t-22 -29t-17.5 -29.5q-15 -3 -19.5 4t-4.5 17q0 11 3.5 22.5t4.5 16.5q47 66 37 154q-19 34 -52.5 42
t-64.5 -5q-30 -13 -50.5 -34t-35 -46.5t-23.5 -54t-16 -56.5q-11 -5 -17 1.5t-14 12.5q14 38 23 78.5t20 80t26.5 77t41.5 68.5l8 -23v0z" />
    <glyph glyph-name="afii10085" unicode="&#x443;" horiz-adv-x="329" 
d="M327 333q-58 -160 -147 -303.5t-207 -272.5q-13 -12 -28.5 -14t-31.5 1t-32 7.5t-31 5.5q-31 24 -45 56t-21 67l32 26q9 -18 18 -37t20.5 -37t26.5 -33.5t35 -25.5q46 28 84 66.5t68 83t53.5 92.5t41.5 96q-15 27 -36.5 48t-41.5 42t-35.5 44.5t-18.5 55.5q3 2 6 5t3 11
q26 -7 44 -25t33 -41t29 -47.5t33 -44.5q23 17 38.5 42t30.5 50.5t33 47.5t46 34z" />
    <glyph glyph-name="afii10086" unicode="&#x444;" horiz-adv-x="376" 
d="M288 145q-11 -18 -23 -32.5t-36 -23.5q-15 -2 -28.5 -4.5t-30.5 -3.5v-7q1 -31 0 -56t-2.5 -49t-4 -51t-5.5 -62q-24 8 -29 20.5t-3 26.5q2 15 0 25t-4 18.5t-3 17t4 20.5l6 99q-20 5 -34 13.5t-25 19.5q-7 7 -15.5 14.5t-12.5 15.5q-6 15 -4.5 31.5t5.5 31.5
q4 18 13.5 33.5t24 26.5t32 16t38.5 1q4 28 9.5 55.5t6.5 56.5q4 6 20 -13q16 -20 12 -33q-1 -14 -1.5 -21.5t-1.5 -13.5t-2 -13.5t-2 -21.5q8 0 13 -1.5t16 0.5q17 -4 32.5 -14.5t26.5 -25t16.5 -33t3.5 -39.5q-2 -7 -5 -12t-7 -12zM246 219q-8 17 -18.5 23.5t-38.5 5.5
q-5 -30 -8 -60.5t-6 -60.5l64 12q14 12 16.5 26t2.5 30l-5 10zM146 252q-28 8 -49 -5t-23 -37q-1 -8 -1.5 -18t5.5 -20q2 -4 7.5 -11t9.5 -12q7 -7 16.5 -10t20.5 -10z" />
    <glyph glyph-name="afii10087" unicode="&#x445;" horiz-adv-x="416" 
d="M380 394q-13 -31 -31.5 -60.5t-39 -58.5t-41 -56.5t-37.5 -54.5q4 -7 10 -13t11 -12.5t8.5 -14t1.5 -16.5q18 -11 29.5 -26t22.5 -30t24.5 -29t35.5 -23q-7 -9 -8 -18t-9 -17q-32 6 -53.5 24t-39 41.5t-34.5 49t-38 45.5q-16 -15 -30 -33.5t-29.5 -34.5t-33.5 -25.5
t-41 -5.5q3 26 16.5 44t30 33.5t32 31t23.5 37.5q-13 39 -44.5 72.5t-74.5 43.5l-5 -7q-15 4 -17.5 16t-4.5 24q12 9 23.5 7.5t24 -6.5l25 -10t26.5 -3q18 -6 31 -23.5t26 -32t27 -18t33 18.5q38 45 69 85.5t69 75.5l12 -21v0z" />
    <glyph glyph-name="afii10088" unicode="&#x446;" 
d="M483 311q1 -3 0 -15.5t-2.5 -29.5t-3 -35.5t-1.5 -33.5q0 -19 -8 -38q3 -15 5 -25.5t4 -19t5.5 -16.5t8.5 -18q6 -3 12 -0.5t12.5 7t13 9.5t11.5 7l5 2q2 2 11 2q6 1 14 -2t10 -5q8 -6 13 -18.5t7.5 -27.5t1 -30.5t-7.5 -26.5q-4 -12 -7.5 -20.5t-7.5 -16.5t-9 -16.5
t-12 -21.5q-4 -8 -17.5 -11t-18.5 -1q-2 0 -4 1t-2 3.5t3 8t11 15.5t14 23t10 30l1.5 8t2.5 18t1.5 19.5t-1.5 13.5t-4 6l-3 3h-2q-23 -19 -47.5 -30.5t-58.5 -5.5l-15 57q-31 -45 -74.5 -76.5t-97.5 -34.5q-27 -2 -51.5 0t-46 9.5t-38.5 22.5t-29 40q-20 42 -26 90.5
t-6 99.5v33.5t1 33.5q4 10 9 12.5t11 1.5t12.5 -3.5t13.5 -1.5q2 -31 1 -65.5t1 -69t9.5 -66.5t27.5 -59q21 -23 43 -28.5t44.5 -2t46 12t47.5 12.5q42 22 59.5 59t26 78.5t15 83.5t25.5 75z" />
    <glyph glyph-name="afii10089" unicode="&#x447;" horiz-adv-x="401" 
d="M297 24q1 14 1 23.5v19.5v31.5t-2 48.5q-11 0 -18.5 -1.5t-15.5 -3.5l-28 -6q-13 -2 -25 -4t-25 -2q-21 0 -42 7q-32 11 -54.5 37t-30.5 68l-6 33q-3 14 -5.5 27t-2.5 28q0 12 3 29q1 5 6 6t11 1q4 0 4.5 -5.5t4.5 -4.5q2 -23 7.5 -43.5t12.5 -45.5l4 -13q5 -17 13 -33.5
t29 -35.5q4 -3 12.5 -5.5t13.5 -6.5q8 -2 16.5 -2h16.5q33 0 60 10l32 34q3 27 -3 54v9v21t-4 32q-5 23 -6 40t-2 33q0 7 -0.5 13t-1.5 13q6 5 11 3.5t10 -4.5q6 -4 12.5 -6.5t14.5 -0.5l5 -33l3 -26q3 -25 5.5 -49t4.5 -49q1 -8 1.5 -15t0.5 -15t0.5 -21.5t2.5 -29.5
q5 -34 5 -52.5t-1 -32.5t-1 -31.5t7 -53.5q0 -11 -6 -20t-14 -14q-11 3 -19 0.5t-14 -7.5q-2 -2 -3.5 -2.5t-2.5 3.5z" />
    <glyph glyph-name="afii10090" unicode="&#x448;" 
d="M534 -31q-14 3 -16.5 16.5t-8.5 34.5q-22 -15 -48 -25t-60 -12q-15 6 -25 12.5t-17 15.5t-13 21.5t-14 30.5q-7 -26 -26 -45t-44.5 -31.5t-55.5 -17.5t-60 -1q-27 18 -43 44t-25 55.5t-13.5 60.5t-10.5 60q4 20 2 46.5t0 50t14.5 39t44.5 13.5q3 -38 -4 -73t-12 -69.5
t-2.5 -70t23.5 -75.5q7 -4 13 -11.5t12 -14.5t13.5 -11.5t17.5 -1.5q33 2 57.5 18t40.5 39t23.5 49t7.5 48q0 20 2.5 36t5.5 31t5.5 29t3.5 30q14 5 20.5 -1.5t9.5 -16.5q4 -11 4 -23t1 -17q-11 -35 -8 -74t23 -83q29 -32 48.5 -35.5t45.5 13.5q12 8 16 17.5t10 20.5
q20 35 27 79.5t15 91.5q9 7 19.5 3t20.5 -9q-1 -25 -7 -52.5t-12.5 -54.5t-10.5 -53t0 -47q1 -4 2.5 -12t4 -16t6 -15t6.5 -8l18 -6q4 -1 9.5 1t9.5 1q15 -4 11 -7.5t-28 -16.5l-29 -5z" />
    <glyph glyph-name="afii10091" unicode="&#x449;" 
d="M548 19q3 -7 7.5 -10.5t10.5 -8.5t13 -14t15 -27q3 -6 -4.5 -21.5t-11.5 -29.5q-3 -10 -6 -16.5t-6.5 -13t-7.5 -14t-10 -17.5q-3 -7 -14 -9.5t-15 -0.5q-3 1 -7 8.5t9 24.5q6 8 15.5 27t11.5 39q-1 2 -5 8q-2 3 -4 5l-16 14q-6 6 -9.5 10.5t-6 9t-4 10.5t-4.5 17
q-22 -15 -43 -20t-55 -7q-15 6 -25 12.5t-17 15.5t-13 21.5t-14 30.5q-7 -26 -26 -45t-44.5 -31.5t-55.5 -17.5t-60 -1q-27 18 -44.5 43t-28 53t-16.5 58t-12 59q9 20 6 48t-2.5 53.5t12 43t48.5 16.5q-3 -36 -12 -71t-13 -70.5t2.5 -73t33.5 -78.5q7 -4 13 -11.5t12 -14.5
t13.5 -11.5t17.5 -1.5q33 2 57.5 18t40.5 39t23.5 49t7.5 48q0 40 7.5 72t9.5 64q14 5 20.5 -1.5t9.5 -16.5q4 -11 4 -23t1 -17q-11 -35 -8 -79t23 -88q20 -21 32 -32t24 -11q11 0 28 11q25 17 38 42t18.5 54t5 59.5t-3.5 59.5q9 7 17 1t18 -11q-2 -51 1 -105.5t-2 -105.5
q-1 -8 -2 -9.5t2 -8.5z" />
    <glyph glyph-name="afii10092" unicode="&#x44a;" horiz-adv-x="319" 
d="M169 364l-9 -71q-1 -8 -2 -11t-1.5 -6t-1 -7.5t0.5 -14.5q15 -7 31 -7.5t34 -7.5q15 -5 24.5 -10t15.5 -10t9.5 -10t7.5 -9q8 -11 12 -20t7 -18q4 -10 4 -19t1 -20q2 -28 -11 -50.5t-33 -42.5q-12 -9 -30 -17t-37.5 -12.5t-38.5 -6.5t-33 1q-4 2 -6.5 3.5t-6.5 3.5
q-13 5 -21.5 9.5t-16.5 18.5q8 7 10 12.5t3 12.5v12.5t2 11.5q14 51 24.5 105t16.5 103q2 8 3 11.5t1.5 6t0 6t-0.5 11.5v43q-9 -2 -23.5 -4.5t-29.5 -4.5t-29 -4t-23 -2l-17 3q-1 5 4 15t13 12q28 5 66.5 8t76.5 14zM133 50q14 -9 30 -9.5t32 4.5t30.5 14t25.5 18
q21 28 16 52.5t-19 50.5q-5 11 -17.5 14.5t-22.5 8.5q-8 4 -25 3.5t-30 5.5q-4 -45 -8 -82.5t-12 -79.5z" />
    <glyph glyph-name="afii10093" unicode="&#x44b;" horiz-adv-x="414" 
d="M64 426l12 -70q1 -8 5 -25.5t8 -37t8 -37.5t6 -28q16 -4 31.5 0t35.5 2q16 -1 26 -3.5t17 -5.5t12 -7t10 -7q10 -8 16.5 -15.5t11.5 -15.5q7 -8 9 -16.5t6 -19.5q9 -26 3 -51.5t-20 -50.5q-19 -25 -50 -39t-58 -17q-5 2 -7.5 2.5l-7.5 1.5q-14 1 -20 3.5t-18 13.5
q5 8 3 14.5t-3 12.5q-2 6 -4 11.5t-1 12.5q-15 48 -19.5 97.5t-12.5 99.5q0 8 -3.5 20.5t-8 26t-9 26t-6.5 20.5l-9 31q-1 4 -2 12.5t-1.5 18.5t-1 19t-0.5 14q8 8 12.5 14t14.5 11zM130 16q16 -5 28.5 -1t22.5 13t18.5 22t17.5 25q13 32 13.5 58.5t-19.5 46.5q-8 9 -21 9
t-23 2t-26 -2.5t-30 -2.5q8 -45 11.5 -86.5t7.5 -83.5zM336 391q-1 5 -1 10.5v11.5q0 23 -0.5 32.5t2.5 23.5q1 3 2 4l3 3q4 5 8.5 6.5t13.5 -11.5q2 -48 2.5 -92t2.5 -98l3 -56q-3 -32 -3.5 -61t-0.5 -56.5t-1.5 -56t-6.5 -58.5q-11 -2 -16 3.5t-8 14.5l-4 206q0 9 2 19.5
t2 22.5q0 35 1 70.5t-1 61.5z" />
    <glyph glyph-name="afii10094" unicode="&#x44c;" horiz-adv-x="322" 
d="M81 404q2 -6 5.5 -8t11.5 -2q1 -10 0.5 -23.5t-1.5 -27.5t-2 -27t0 -22q2 -17 4 -33t8 -35q17 -4 30.5 -1t33.5 1q31 -3 42.5 -10.5t22.5 -14.5q9 -9 15 -17t11 -16q6 -8 8 -17t6 -20q8 -26 1 -51t-22 -50q-20 -23 -51 -36t-59 -15q-5 2 -7.5 2.5t-7.5 0.5q-14 2 -21 5
t-18 14q2 8 1 19.5t-2 17.5q-2 7 -3.5 12t-0.5 13q-13 48 -14.5 93t-7.5 94q0 8 0.5 13t1 9.5t0.5 9t-2 12.5l-8 32q-2 7 -2.5 20.5t-1.5 22.5q4 0 5 19t24 16zM125 13q16 -6 29 -2.5t24 12.5t20.5 21t18.5 24q14 32 13 55t-19 45q-8 10 -21 13t-24 6q-5 1 -11.5 0t-14 -2.5
t-15.5 -2t-15 1.5q7 -45 10 -87t5 -84z" />
    <glyph glyph-name="afii10095" unicode="&#x44d;" horiz-adv-x="363" 
d="M70 24q-4 17 0 19.5t11 -1t16 -8.5t15 -3q24 -8 49.5 0.5t46.5 26t35 40t16 42.5q-9 2 -24 4.5t-32 5.5t-32 5t-24 2q-17 7 -32.5 12t-32.5 2q-7 -2 -10.5 2t-4 8.5t1.5 8.5t7 3q0 3 14.5 1t34 -4.5l39 -5t29.5 -0.5q32 1 46.5 -4t23.5 -7q0 4 1 15.5t2 24t1.5 23
t-1.5 14.5q-8 17 -25 36t-31 32q-26 7 -46 10t-34.5 5.5t-23.5 6.5t-12 13q2 2 6.5 -0.5t6.5 -0.5l8 10q0 -1 3.5 -2t14.5 -3q15 6 27.5 7t23.5 -7q29 -2 50 -20t41 -38q5 -5 8.5 -13t6.5 -17t6 -17t9 -14q5 -39 0 -77.5t-21 -72.5q-9 -2 -8.5 -8.5t-1.5 -10.5
q-12 -12 -21 -22t-19 -17.5t-22 -13t-28 -9.5q-14 -1 -31 -4.5t-33.5 -4.5t-29.5 4t-20 22z" />
    <glyph glyph-name="afii10096" unicode="&#x44e;" horiz-adv-x="506" 
d="M452 266q10 -21 13 -42.5t0 -42.5t-10.5 -41t-17.5 -38q-20 -20 -43 -40.5t-48.5 -33t-52.5 -14.5t-54 15q-27 18 -37 51.5t-10 70.5q-26 -5 -52 -7.5t-34 -8.5l2 -70q-4 -8 -1 -17.5t5.5 -18.5t1.5 -17t-12 -12q-16 9 -23.5 28t-11.5 34q3 42 2.5 69t-3.5 52t-7.5 55.5
t-9.5 81.5q2 6 6 6t10 3q3 2 7 7.5t8 5.5h3l-1 -1t-1.5 -2.5t1.5 -2.5q4 -2 6 -6t4 -9q6 -39 6.5 -71t1.5 -72h5q12 5 37 6t52 6q2 29 22 56.5t40 43.5q18 -9 31.5 0t26.5 21t27.5 19.5t34.5 -5.5q22 -3 42 -22t34 -37zM336 263q-8 -15 -17.5 -30.5t-10.5 -30.5
q0 -11 -4.5 -19t-11 -12t-14 -3t-14.5 9q-2 13 -5.5 29t3.5 29l-13 -2q-30 -49 -29 -104q7 -8 12 -19t11 -21.5t14 -19t21 -11.5q18 -5 41 -1.5t40 14.5q12 15 24.5 31.5t22 35.5t14.5 39.5t3 43.5q-1 15 -10.5 28t-22.5 20.5t-27.5 7t-26.5 -13.5z" />
    <glyph glyph-name="afii10097" unicode="&#x44f;" horiz-adv-x="377" 
d="M321 374q2 -14 2 -45t-4 -82q-8 -99 0 -129q8 -33 8 -64t2 -57q-4 -14 -5 -14.5t-4 3.5t-11.5 7.5t-26.5 -1.5q0 29 2 52t2 46v20t-2 22q-5 -1 -19.5 -1t-21.5 -1q-36 -15 -45 -29q-10 -15 -23 -25q-24 -20 -45.5 -39t-53.5 -42q-2 0 -11.5 -3.5t-10.5 -3.5
q-2 0 -5.5 -1.5t-4.5 0.5q-10 6 -9 4t1 4q0 2 7 12.5t12 16.5q29 21 53 40t37 33q8 10 10.5 14t14.5 12q-29 3 -48 14.5t-30 28t-15.5 35t-4.5 35.5q0 23 13 39t38 39l35 22q17 7 33 10t30 4q13 1 28.5 4t28.5 -2l1 13q8 0 15 6.5t17 6.5q5 0 10 -4zM283 319q-8 2 -13.5 2.5
t-13.5 0.5q-60 -7 -96.5 -25t-40.5 -60q2 -27 20.5 -42.5t40 -23t39.5 -9l18 -1.5q23 10 31 9t15 -7q1 9 1.5 21.5t0.5 26v26.5v24q0 12 -1 29.5t-1 28.5z" />
    <glyph glyph-name="afii10071" unicode="&#x451;" horiz-adv-x="352" 
d="M275 346q9 -13 8.5 -24.5t-5.5 -22.5t-11.5 -22t-10.5 -23q-17 -8 -34.5 -18t-35.5 -17t-38 -8.5t-41 7.5q-2 -21 -5.5 -45.5t-2 -48t10.5 -43.5t32 -31l8 -8l133 43q-1 -24 -14.5 -34.5t-32 -15.5t-38.5 -8t-34 -12q-25 -9 -42 -4.5t-28.5 17.5t-18 30.5t-11.5 34.5
l8 125q-9 4 -11.5 10t-2.5 13t1 14.5t-1 13.5q13 11 21.5 26.5t17 31.5t18.5 30.5t27 23.5q16 -3 36.5 -0.5t39.5 2t34.5 -7.5t22.5 -29zM177 346q-13 -4 -20 -12t-11.5 -18t-8 -21t-9.5 -20l85 -6l8 41q-7 5 -11 11t-8.5 11t-10 9t-14.5 5zM88 567q11 1 23 0.5t21.5 -3.5
t15 -9.5t4.5 -17.5q0 -14 -10 -25.5t-24 -16.5q-13 -4 -22 -1t-16 9.5t-11 14t-7 13.5q8 9 10 19t16 17zM286 552q10 -3 16 -10.5t8 -16t0.5 -16.5t-5.5 -14q-4 -9 -13 -12.5t-19.5 -3t-21 3.5t-17.5 6q-15 12 -16 29t7.5 29t25 15.5t35.5 -10.5z" />
    <glyph glyph-name="afii10099" unicode="&#x452;" horiz-adv-x="324" 
d="M118 351q-1 -14 -3 -26.5t-4 -24.5q7 -12 15 -10.5t17 7.5t18.5 12.5t19.5 5.5q39 -5 60 -21t32 -38.5t16 -48.5t11 -51q4 -34 -1.5 -60.5t-17 -51t-27.5 -49t-33 -52.5q-8 6 -12.5 4.5t-7.5 -4.5t-5 -3.5t-4 9.5q7 27 17.5 49.5t19.5 45t14.5 48.5t2.5 59
q-4 28 -6.5 48.5t-9 35t-19.5 24.5t-38 17q-22 -16 -32.5 -37t-14.5 -45t-4 -49.5v-51.5v-22.5t-1.5 -27t-5 -25t-9.5 -14.5q-9 0 -15 6.5t-10.5 15t-6.5 17.5t-2 15q0 11 4.5 19.5t-3.5 15.5q9 106 9 207v25.5t-1 25.5h-7q-8 3 -10.5 3t-4.5 -0.5t-5 -0.5t-11 2
q-16 -4 -31 -0.5t-26 15.5q1 3 0.5 4.5t-2 3l-3 3t-0.5 3.5q11 14 28 13t31 0q9 2 19 2.5t21 -0.5q-2 26 -3.5 53t-3.5 55q5 3 9 8t8 9.5t9 6.5t12 -1q10 -53 10 -116v-22q16 -1 38 -2.5t44 -3.5t40.5 -4t28.5 -5q-1 -1 2 -1t7 -0.5t8 -4t5 -10.5l-15 -11z" />
    <glyph glyph-name="afii10100" unicode="&#x453;" horiz-adv-x="384" 
d="M296 -1q-23 -21 -60.5 -27t-74 3t-64 33t-31.5 63q0 6 2 14t5 16.5t6.5 15.5l5.5 11q5 12 13 19.5t16 13t15.5 10.5t11.5 11q6 2 19.5 12t28 25t26 32t13.5 32q3 21 -12.5 24t-32.5 1q-29 -2 -50.5 -14t-39.5 -15q-5 -1 -8.5 1.5t-7.5 5t-9 5t-11 1.5q16 16 32 24.5
t29.5 13.5t22.5 8.5t12 11.5q18 3 38.5 3t37 -5.5t27.5 -18t11 -33.5v-28t-1 -16t-3 -11l-6 -15q-19 -20 -45 -39.5t-47 -42.5q-8 -9 -20 -19.5t-17 -21.5q-7 -16 -2.5 -28t15.5 -32q4 -8 16 -10t27.5 -0.5t32 6t31.5 10.5q8 3 13 10.5t11 11.5t14 -1t22 -26q-3 -7 -3.5 -22
t-8.5 -23zM343 508q-1 -6 -6 -11t-10.5 -9t-11 -6t-7.5 -2t-17.5 -8.5t-33.5 -19t-33 -19.5t-14 -10l-9 -4q-6 -1 -21 -3t-22 -1l-4.5 1.5t-10.5 4t-11 6t-4 8.5v1q2 12 22 26t42 26q11 6 26 13t34 15q8 3 17 5q8 2 15.5 3t15.5 0q23 -2 34 -5t9 -11z" />
    <glyph glyph-name="afii10101" unicode="&#x454;" horiz-adv-x="410" 
d="M359 360q-3 -18 -21 -18.5t-44.5 2.5t-57.5 2.5t-61 -19.5q-12 -8 -19.5 -17t-13.5 -19.5t-11.5 -23t-13.5 -26.5q14 -1 33.5 -1h35.5q6 0 12 -2.5t12 -3.5q23 -2 40.5 -4t21.5 -15q-16 -8 -30 -10t-20 -10q-4 -2 -14.5 -3.5t-24.5 -1.5q-13 0 -26 2.5t-24 2.5l-20 -3
l-3 -19q0 -10 3 -24t9 -27.5t14 -24t18 -12.5q10 -9 26.5 -12.5t33.5 -4t32 1.5t22 4q18 10 34 15.5t36 8.5q10 -4 17 -5t15 -9q-48 -45 -113.5 -54.5t-129.5 14.5q-12 7 -22.5 20.5t-19.5 29.5t-16 31.5t-12 27.5q-3 30 2.5 61.5t17.5 60.5t30 54t41 43q15 8 31.5 12
t33.5 10q18 7 37.5 6.5t38 -6.5t36.5 -15t34 -19z" />
    <glyph glyph-name="afii10102" unicode="&#x455;" horiz-adv-x="384" 
d="M333 267q-1 -6 -0.5 -13.5t0.5 -14t-1 -12.5t-6 -10q-19 12 -36.5 28.5t-36 29.5t-39 18.5t-44.5 -4.5q-27 -27 -24.5 -55t17.5 -56.5t35 -57.5t28 -57l-6 -91q-29 -14 -64 -21.5t-68 5.5q-17 6 -33.5 17t-31 24.5t-27 28.5t-21.5 28q21 6 40.5 -0.5t38 -17.5t37 -22.5
t38.5 -16.5q17 -6 27.5 4t22.5 21q4 27 -4.5 51.5t-21.5 47.5t-27 45t-21.5 44.5t-5 46.5t22.5 50q20 35 50 44t61.5 0.5t58.5 -31.5t41 -53z" />
    <glyph glyph-name="afii10103" unicode="&#x456;" horiz-adv-x="253" 
d="M158 396q-7 -60 -12.5 -105t-10 -85.5t-7.5 -82t-5 -93.5l-32 -7q-7 57 -12 97.5t-5 77.5q0 38 6.5 77.5t21.5 91.5q4 8 12 10.5t16 4t16 4t12 10.5zM189 560q12 -30 -3.5 -57.5t-40.5 -46.5q-8 -6 -12.5 -5t-7.5 5t-6 9.5t-7 8.5q-14 28 1.5 52t37.5 42q4 1 10.5 2.5
t12 1t10 -3t5.5 -8.5z" />
    <glyph glyph-name="afii10104" unicode="&#x457;" horiz-adv-x="253" 
d="M158 396q-7 -60 -12.5 -105t-10 -85.5t-7.5 -82t-5 -93.5l-32 -7q-7 57 -12 97.5t-5 77.5q0 38 6.5 77.5t21.5 91.5q4 8 12 10.5t16 4t16 4t12 10.5zM44 560q11 1 23 0.5t21.5 -3.5t15 -9.5t4.5 -17.5q0 -14 -10 -25.5t-24 -16.5q-13 -4 -22 -1t-16 9.5t-11 14t-7 13.5
q8 9 10 19t16 17zM242 545q10 -3 16 -10.5t8 -16t0.5 -16.5t-5.5 -14q-4 -9 -13 -12.5t-19.5 -3t-21 3.5t-17.5 6q-15 12 -16 29t7.5 29t25 15.5t35.5 -10.5z" />
    <glyph glyph-name="afii10105" unicode="&#x458;" horiz-adv-x="324" 
d="M235 496q3 -11 1 -19t-6.5 -15t-9.5 -14t-8 -14l-47 -9q-5 56 32 109q20 7 32.5 -6t5.5 -32zM242 319q0 -59 1 -125t-9.5 -127.5t-39.5 -112.5t-89 -81q-13 0 -28 -0.5t-27.5 2.5t-21 11t-8.5 25q-3 24 0.5 45t11 40.5t17 38t18.5 38.5l30 -8q-6 -17 -14 -32.5t-15.5 -31
t-12.5 -32t-5 -34.5q5 -15 12.5 -20.5t17 -5t20 4t20.5 6.5q39 37 59.5 85t28 100.5t3.5 107.5t-14 106q-4 19 3 32t12 29q12 1 16 -5.5t5 -16.5t2 -21t7 -18z" />
    <glyph glyph-name="afii10106" unicode="&#x459;" horiz-adv-x="471" 
d="M329 347l-9 -70q-2 -17 -4 -33t0 -36q15 -8 31 -8.5t34 -6.5q15 -5 24.5 -10.5t15.5 -10.5t9.5 -10t7.5 -9q8 -11 12 -19.5t7 -17.5q4 -10 4 -19t1 -20q2 -28 -11 -51t-33 -43q-24 -18 -57.5 -24t-61.5 -1q-4 3 -6.5 4t-6.5 3q-13 5 -21.5 9.5t-16.5 18.5q8 7 10 13t3 12
v13t2 12q-2 51 6.5 100t14.5 98q4 16 4.5 22t-0.5 22v33q0 14 3 31h-1q-8 1 -20 -18t-25 -43.5t-25 -46.5t-19 -27q-21 -32 -41.5 -63t-38.5 -56.5t-32 -44t-23 -24.5q-46 -33 -60 -28q-13 4 -18 23q7 9 18 19l22 20t21.5 20t16.5 19q10 14 22.5 27.5t25 27.5t25.5 31t25 38
l32 57q7 9 14.5 25.5t16.5 33t19.5 30.5t24.5 19q2 -1 8 1t12.5 3.5t12 2t6.5 -3.5q6 -5 13.5 -12t6.5 -12h1zM296 16q11 -11 26.5 -13.5t31 0.5t31 10.5t26.5 16.5q21 29 16 53.5t-19 50.5q-5 11 -17.5 14t-22.5 8q-8 4 -25 4t-30 6q-2 -23 -3.5 -41t-3 -35t-4 -35
t-6.5 -39z" />
    <glyph glyph-name="afii10107" unicode="&#x45a;" horiz-adv-x="403" 
d="M272 34q10 -3 25.5 5.5t30 25.5t25 41t11.5 53q-4 14 -7 20q-7 15 -27 22.5t-42.5 9.5t-43.5 0.5t-30 -3.5q-1 -6 -1 -15.5v-20.5v-21.5v-17.5v-29t2 -23t6 -21t12 -22zM364 38q-13 -11 -35 -19.5t-42 -13.5q-8 -2 -14.5 -1.5t-12.5 0.5q-13 2 -24 -2q-13 -2 -23 -0.5
t-16 18.5q-8 15 -12 32t-7 34q-2 8 -3.5 20t-3.5 23l4 75q-7 -3 -16 -4t-19 -3q-21 -5 -42.5 -4t-32.5 -5q-1 -29 1 -53t5 -45q4 -26 6 -66v-6.5t-1 -5.5q-1 -8 -1.5 -15.5t-2.5 -12.5l-10 7q-15 8 -22 28q5 32 2.5 63.5t-7.5 62.5q-3 15 -5.5 32t-4.5 37q-1 14 -2 27.5
t-3 28.5q-2 22 -5.5 46t-6.5 48t-4.5 47t0.5 42q7 1 16 -0.5t16.5 -7t13 -14.5t4.5 -21q-3 -16 -3.5 -38.5t1 -46.5t4.5 -47.5t7 -42.5q8 0 22 0.5t30.5 2t33 3.5t28.5 4l2 46q2 20 0 38.5t-4 35.5q-2 24 -3 48t1 46q5 3 12.5 8t12.5 10q4 -4 5.5 -9t2.5 -10q0 -9 5 -17
v-39.5t0.5 -53.5t1 -54.5t0.5 -41.5q29 2 57 2t50 -7q14 -4 20 -7.5t11 -8.5l14 -10q13 -8 18.5 -17.5t9.5 -20.5q2 -4 4.5 -9.5t6.5 -9.5q4 -38 -5 -68.5t-35 -57.5z" />
    <glyph glyph-name="afii10108" unicode="&#x45b;" horiz-adv-x="324" 
d="M111 530q5 -25 7 -50t3 -51l69 6q10 10 22 6.5t30 -6.5l-11 -15q-17 -7 -34.5 -10.5t-34.5 -5.5l-41 -4q-1 -26 -3 -51t-7 -49q7 -12 15 -10.5t17 7.5t18.5 12.5t19.5 5.5q30 -4 50.5 -22t36.5 -42.5t28 -52.5t24 -52q-2 -8 -1 -18t1.5 -19t-3 -16t-14.5 -9q-7 28 -16 58
t-23.5 57t-36 47.5t-54.5 29.5q-22 -16 -34.5 -37.5t-18.5 -46t-7.5 -50.5t-1.5 -52q0 -35 -6 -68q-17 1 -21 9.5t-4 19.5t0.5 23t-7.5 19q9 106 9 207q0 23 -0.5 47.5t-1.5 48.5q-31 -3 -39 -3t-8.5 1t-3 1t-22.5 -3q-13 2 -15 8.5t-8 19.5l94 7l-2 40t-3 40q5 3 9 8t8 9.5
t9 6.5t12 -1z" />
    <glyph glyph-name="afii10109" unicode="&#x45c;" horiz-adv-x="424" 
d="M97 420q3 -26 4.5 -46.5t4 -39.5t6 -38.5t11.5 -42.5q25 21 53 40.5t59 36t65 28t72 16.5q9 -23 1 -31.5t-24 -12.5q-15 -3 -34.5 -7.5t-29.5 -12.5q-26 -19 -59 -38.5t-59 -43.5q24 -7 44.5 -15t39.5 -20.5t36 -32t33 -48.5q6 -13 19 -24.5t23 -23.5t13 -25t-9 -28
l-12 -17q-20 11 -35.5 31t-30 42.5l-29 45t-33.5 39t-44 24t-59 0.5l14 -202q-7 -8 -12 -18t-18 -12q-12 67 -17 121t-9.5 106t-12 106t-24.5 120q0 13 0.5 26t14.5 21q7 2 12 -0.5t8.5 -6.5t7.5 -9t10 -8zM343 566q-1 -6 -6 -11t-10.5 -9t-11 -6t-7.5 -2t-17.5 -8.5
t-33.5 -19t-33 -19.5t-14 -10l-9 -4q-6 -1 -21 -3t-22 -1l-4.5 1.5t-10.5 4t-11 6t-4 8.5v1q2 12 22 26t42 26q11 6 26 13t34 15q8 3 17 5q8 2 15.5 3t15.5 0q23 -2 34 -5t9 -11z" />
    <glyph glyph-name="afii10110" unicode="&#x45e;" horiz-adv-x="329" 
d="M327 333q-58 -160 -147 -303.5t-207 -272.5q-13 -12 -28.5 -14t-31.5 1t-32 7.5t-31 5.5q-31 24 -45 56t-21 67l32 26q9 -18 18 -37t20.5 -37t26.5 -33.5t35 -25.5q46 28 84 66.5t68 83t53.5 92.5t41.5 96q-15 27 -36.5 48t-41.5 42t-35.5 44.5t-18.5 55.5q3 2 6 5t3 11
q26 -7 44 -25t33 -41t29 -47.5t33 -44.5q23 17 38.5 42t30.5 50.5t33 47.5t46 34zM55 598q6 4 22 1q21 -37 32 -52t19 -22q5 -5 16 -13t20 -8q6 0 16 5t12 10q14 8 22.5 20t18.5 19q4 6 11.5 14t13.5 13t9.5 10.5t15.5 2.5q2 -1 5.5 -5.5t10.5 -7.5q0 -8 -3 -17.5t-8 -14.5
q-14 -17 -23 -27.5t-16 -15.5t-17 -13t-21 -15.5t-23.5 -13t-23.5 -5.5q-13 0 -22.5 3t-18 8t-17.5 12t-20 13q-5 1 -13 11.5t-16 24t-14.5 27t-8.5 20.5q7 2 9.5 8.5t11.5 7.5z" />
    <glyph glyph-name="afii10193" unicode="&#x45f;" 
d="M476 316q-9 -26 -4.5 -58t4.5 -61q0 -19 -8 -38q6 -30 18 -52t45 -27q9 -5 19.5 2.5t20 14.5t16 6t7.5 -23l-9 -9l9 -8q-25 -20 -50.5 -33t-60.5 -7l-55 57q-31 -45 -74.5 -76.5t-97.5 -34.5q-27 -2 -51.5 0t-46 9.5t-38.5 22.5t-29 40q-20 42 -26 90.5t-6 99.5v33.5
t1 33.5q4 10 9 12.5t11 1.5t12.5 -3.5t13.5 -1.5q2 -31 1 -65.5t1 -69t9.5 -66.5t27.5 -59q21 -23 43 -28.5t44.5 -2t46 12t47.5 12.5q42 22 59.5 59t26 78.5t15 83.5t25.5 75zM417 -42q1 -1 5 -14.5t7 -31t4 -35.5t-5 -29q-4 -12 -7.5 -20.5t-7.5 -16.5t-9 -16.5t-12 -21.5
q-4 -8 -17.5 -11t-18.5 -1q-2 0 -4 1t-2 3.5t3 8t11 15.5t14 23t10 30v5.5t-1 13l-2 15t-3 11.5q-1 2 -1 6q0 1 -1 2q1 0 -4 9t-6 12q0 4 -1.5 6t-2 5t1.5 8t10 14l7 7l5 2q2 2 11 2q12 2 16 -2z" />
    <glyph glyph-name="afii10050" unicode="&#x490;" horiz-adv-x="433" 
d="M154 220q1 -23 0 -46l-2 -46t-1.5 -45.5t-0.5 -45.5t2 -46.5t6 -47.5q-7 -4 -12 -7.5t-10 -6.5q-9 -4 -20 -6q-16 36 -18.5 71t0 70.5t5.5 71t-2 71.5q-6 48 -9.5 105.5t-7 111t-9.5 94t-18 54.5q-10 12 -12 26.5t6 18.5l296 64q8 23 20 45.5t20 49.5q5 3 9.5 8.5t8.5 8
t8.5 0.5t9.5 -12q-2 -31 -13 -65t-22 -63q0 -3 -2 -7q-1 -1 -1 -3h-1q-4 -6 -6 -7l-250 -59q-4 -27 -1.5 -52t7.5 -48l8 -46q2 -8 2.5 -36t0.5 -54v-27q9 -51 9 -94z" />
    <glyph glyph-name="afii10098" unicode="&#x491;" horiz-adv-x="261" 
d="M6 305q20 14 43 19.5t47 7.5t48 2t47 3q2 2 9 4q3 19 9 38t8 41q4 3 6.5 7.5t5.5 7.5t6.5 2.5t8.5 -7.5q1 -19 -1 -40.5t-5 -41.5q0 -8 -1 -17t-6 -16q-6 0 -9.5 -3.5t-7.5 -6.5q-42 -5 -82 -6.5t-79 -12.5q0 -21 3.5 -45.5t-1.5 -48.5v-56q-3 -27 -1 -50.5t5.5 -46.5
t6.5 -46.5t1 -48.5q0 -5 -4 -11t-9 -12t-10 -9.5t-9 -2.5q-3 24 -7.5 58.5t-8.5 72.5t-5.5 76t1.5 68q-1 13 -0.5 29t0.5 32.5t-2 32t-7 27.5z" />
    <glyph glyph-name="endash" unicode="&#x2013;" horiz-adv-x="453" 
d="M350 288q-40 0 -68 -2.5t-53 -5t-52 -4t-66 -0.5v46q30 9 55 9.5t48.5 0.5t48 2.5t55.5 15.5q9 -3 18 -8.5t15 -13.5t6.5 -18t-7.5 -22z" />
    <glyph glyph-name="emdash" unicode="&#x2014;" horiz-adv-x="780" 
d="M678 303q-27 0 -74 -1t-103.5 -2t-118 -3t-118 -3t-102.5 -2t-72 -1v46q20 6 63.5 8.5t98.5 2.5t116 -0.5t116 0.5t98.5 5t63.5 12q9 -3 18 -8.5t14.5 -13.5t6.5 -18t-7 -22z" />
    <glyph glyph-name="quoteleft" unicode="&#x2018;" horiz-adv-x="172" 
d="M125 469h-23q-6 19 -12.5 29.5t-15.5 20.5t-21 23.5t-29 37.5l26 47q20 -15 30 -29t16.5 -29t14 -32.5t22.5 -39.5z" />
    <glyph glyph-name="quoteright" unicode="&#x2019;" horiz-adv-x="172" 
d="M145 597q-17 -24 -30 -39t-23.5 -27t-18 -24t-13.5 -31h-23l-8 28q15 22 22 39.5t14 32.5t17 29t30 29l33 -37v0z" />
    <glyph glyph-name="quotesinglbase" unicode="&#x201a;" horiz-adv-x="122" 
d="M114 33q0 -2 -5 -17t-16 -37q0 -2 -1.5 -7t-3.5 -10.5t-4.5 -10t-4.5 -4.5q0 -5 -7.5 -20t-9.5 -26q0 -4 -4 -8.5t-9 -8t-9.5 -5.5t-7.5 -2q-4 0 -7 3t5 26q4 12 8 26t8 31q0 1 1 8.5t2 16.5q0 2 0.5 3.5t0.5 2.5t1 2q1 0 0.5 10.5t0.5 13.5q2 3 2 5.5t1 5.5t5 6.5
t15 7.5l6 1.5t4 0.5h5q4 0 11 -4q11 -5 13 -10z" />
    <glyph glyph-name="quotedblleft" unicode="&#x201c;" horiz-adv-x="259" 
d="M227 539q0 -21 -9 -22t-26 -1q-6 19 -24 36t-33 34.5t-19 36t18 39.5q17 -12 29 -27.5t21.5 -32t19.5 -33t23 -30.5zM129 443q-16 20 -33.5 42.5t-29.5 47.5t-15.5 51t8.5 53q17 -7 23.5 -20.5t9.5 -29.5l6 -32t13 -29q12 -16 21 -32.5t13 -35.5z" />
    <glyph glyph-name="quotedblright" unicode="&#x201d;" horiz-adv-x="259" 
d="M163 461q-18 -8 -22.5 -1t-12.5 23q15 13 22.5 36.5t17 44.5t24 32.5t43.5 0.5q-3 -21 -12 -38.5t-20 -33l-22 -31t-18 -33.5zM35 509q11 23 24 48.5t30.5 47t40 35.5t51.5 14q0 -18 -9 -29.5t-22 -21l-26 -19t-21 -24.5q-9 -17 -20.5 -32.5t-26.5 -26.5z" />
    <glyph glyph-name="quotedblbase" unicode="&#x201e;" horiz-adv-x="225" 
d="M114 33q0 -2 -5 -17t-16 -37q0 -2 -1.5 -7t-3.5 -10.5t-4.5 -10t-4.5 -4.5q0 -5 -7.5 -20t-9.5 -26q0 -4 -4 -8.5t-9 -8t-9.5 -5.5t-7.5 -2q-4 0 -7 3t5 26q4 12 8 26t8 31q0 1 1 8.5t2 16.5q0 2 0.5 3.5t0.5 2.5t1 2q1 0 0.5 10.5t0.5 13.5q2 3 2 5.5t1 5.5t5 6.5
t15 7.5l6 1.5t4 0.5h5q4 0 11 -4q11 -5 13 -10zM217 33q0 -2 -5 -17t-16 -37q0 -2 -1.5 -7t-3.5 -10.5t-4.5 -10t-4.5 -4.5q0 -5 -7.5 -20t-9.5 -26q0 -4 -4 -8.5t-9 -8t-9.5 -5.5t-7.5 -2q-4 0 -7 3t5 26q4 12 8 26t8 31q0 1 1 8.5t2 16.5q0 2 0.5 3.5t0.5 2.5t1 2
q1 0 0.5 10.5t0.5 13.5q2 3 2 5.5t1 5.5t5 6.5t15 7.5l6 1.5t4 0.5h5q4 0 11 -4q11 -5 13 -10z" />
    <glyph glyph-name="dagger" unicode="&#x2020;" horiz-adv-x="358" 
d="M214 499q-1 -13 -1 -25.5v-24.5q8 -1 16 -0.5t17 0.5q17 0 34 5.5t35 7.5q43 -13 43 -25t-41 -25q-32 -1 -56.5 -5.5t-47.5 -6.5q0 -79 4 -157t10 -156l-13 -121q-6 -4 -5.5 -11t-6.5 -10q-17 15 -27.5 34.5t-15.5 41.5t-6.5 46t-1.5 47q0 17 -1 32t-3 31q0 57 1.5 112
t3.5 111h-50q-7 0 -17 -5.5t-21 -5.5q-20 0 -36.5 3.5t-16.5 15.5t13.5 20t32.5 13.5t39.5 8t34.5 2.5h23q1 25 1 50v50q0 31 -1.5 61.5t-3.5 62.5q31 -8 42 -29t13 -47.5t1.5 -53.5t7.5 -47z" />
    <glyph glyph-name="daggerdbl" unicode="&#x2021;" horiz-adv-x="358" 
d="M50 178q-4 5 -11.5 10.5t-13 11t-6 9.5t10.5 7q17 2 38.5 6.5t38.5 6.5q19 1 40 0q0 43 1.5 85.5t3.5 85.5h-50q-7 0 -17 -5.5t-21 -5.5q-20 0 -36.5 3.5t-16.5 15.5t13.5 20t32.5 13.5t39.5 8t34.5 2.5h23q1 25 1 50v50q0 31 -1.5 61.5t-3.5 62.5q31 -8 42 -29t13 -47.5
t1.5 -53.5t7.5 -47q-1 -13 -1 -25.5v-24.5q8 -1 16 -0.5t17 0.5q17 0 34 5.5t35 7.5q43 -13 43 -25t-41 -25q-32 -1 -56.5 -5.5t-47.5 -6.5q0 -43 1 -85t3 -84l11 3q17 7 26.5 11t18 5.5t19 1t29.5 -1.5q13 -2 18 -3t5 -4.5t-3 -9.5t-6 -17q-19 1 -29 -4t-28 -10
q-15 -7 -29.5 -11t-28.5 -6q2 -25 3.5 -49t3.5 -49l-13 -121q-6 -4 -5.5 -11t-6.5 -10q-17 15 -27.5 34.5t-15.5 41.5t-6.5 46t-1.5 47q0 17 -1 32t-3 31v4h-18t-19 -1q-19 -2 -30.5 -1t-29.5 -1z" />
    <glyph glyph-name="bullet" unicode="&#x2022;" horiz-adv-x="253" 
 />
    <glyph glyph-name="ellipsis" unicode="&#x2026;" horiz-adv-x="651" 
d="M150 57q8 -11 6 -19.5t-9 -16t-16 -14t-16 -13.5q-10 -5 -19 -3t-17.5 8t-15.5 15t-13 17q3 14 8 28t24 14q20 3 35.5 -3.5t32.5 -12.5zM350 69q8 -11 6 -19.5t-8.5 -16t-15.5 -14t-16 -13.5q-10 -5 -19 -2.5t-17.5 8.5t-16 14.5t-13.5 16.5q3 14 8.5 28t24.5 14
q20 3 35 -3.5t32 -12.5zM553 63q8 -11 6 -19.5t-8.5 -16t-15.5 -14t-16 -13.5q-10 -5 -19 -2.5t-17.5 8.5t-15.5 14.5t-13 16.5q2 14 7.5 28t24.5 14q20 3 35.5 -3.5t32.5 -12.5h-1z" />
    <glyph glyph-name="perthousand" unicode="&#x2030;" horiz-adv-x="608" 
d="M214 542q8 -26 1.5 -51t-17.5 -44q-14 -12 -30.5 -22.5t-34.5 -16.5t-36 -5t-35 13q-9 15 -11.5 34t0 38t8.5 37t13 32q15 15 32.5 28t35.5 15q17 2 41.5 -13.5t32.5 -44.5zM308 595q-9 -46 -24 -116.5t-34.5 -150.5t-42 -163t-46.5 -153q-3 0 -9.5 4t-13 9.5t-12 11
t-7.5 8.5q9 26 22 68t28.5 91.5t31 104t30 105t25.5 94t17 71.5q0 8 4 15t9.5 10.5t11.5 2t10 -11.5zM396 81q-8 -13 -17 -23t-19 -16t-21 -6.5t-23 6.5q-20 7 -37 25.5t-26 41.5q-3 13 -3.5 27.5t3 27.5t11.5 23.5t21 16.5q14 -5 30 -7t31 -6t27 -13.5t19 -30.5
q0 -14 5 -26t5 -24q0 -9 -6 -16zM183 490q7 12 5.5 26t-8 23.5t-15.5 12.5t-17 -7q-11 10 -16.5 3t-10 -16t-9.5 -13t-15 12q-8 -9 -12 -20.5t-5.5 -23.5t-1.5 -24t2 -21q29 -6 57.5 6.5t45.5 41.5zM370 121q-4 17 -15.5 26.5t-25.5 7.5q-8 -2 -14.5 -6.5t-11.5 -13.5
q-3 6 -10.5 6.5t-7.5 10.5l-6 -20q8 -20 23 -38t35 -18q12 5 22.5 17.5t10.5 27.5zM556 51q-24 -17 -48 -22t-41 17q-15 14 -24 37.5t-8 48.5q3 13 8.5 26.5t14 24.5t19.5 18t25 7q11 -10 25 -18t26 -18t20 -24t6 -35q-4 -8 -5 -17t-2.5 -17t-4.5 -15.5t-11 -12.5zM548 98
q3 17 -4 30t-20 17q-8 1 -16 -0.5t-16 -7.5q0 3 -2.5 5.5t-5 4.5t-3.5 5t1 8l-13 -16q-1 -22 6 -44.5t25 -30.5q13 -1 27.5 7t20.5 22z" />
    <glyph glyph-name="guilsinglleft" unicode="&#x2039;" horiz-adv-x="408" 
d="M262 141q-24 13 -43.5 28t-40 30t-44 28.5t-56.5 23.5l-5 47q14 7 40.5 24t55.5 33q24 10 36 17.5t22 14t21.5 13.5t34.5 17q9 2 17.5 6t15.5 4.5t11.5 -4t4.5 -20.5q-18 -28 -42 -42.5t-50.5 -25t-53.5 -20.5t-51 -28l34 -33q12 -14 29.5 -25.5t33 -24t25 -27.5t5.5 -36
z" />
    <glyph glyph-name="guilsinglright" unicode="&#x203a;" horiz-adv-x="408" 
d="M114 449q24 -13 48 -31.5t50 -37t54.5 -35t61.5 -26.5l5 -47q-14 -7 -40.5 -24t-55.5 -33q-24 -10 -36 -17.5t-22 -14t-21.5 -13.5t-34.5 -17q-9 -2 -17.5 -6t-15.5 -4.5t-11.5 4t-4.5 20.5q18 28 42 42.5t50.5 25t53.5 20.5t51 28l-34 33q-12 14 -34.5 28.5t-43.5 31
t-35 34.5t-10 39z" />
    <glyph glyph-name="Euro" unicode="&#x20ac;" horiz-adv-x="449" 
d="M339 272q-4 -18 -15 -22.5t-25 -4t-28.5 3t-25.5 -2.5q-23 0 -56 -4.5t-67 -10.5q-1 -10 -1 -20v-21q3 -29 14.5 -56t44.5 -42q32 -7 59 -2.5t52.5 16t50.5 27t53 29.5q4 -6 11 -8t14 -5t11 -8t1 -16q-29 -15 -55.5 -30t-52.5 -26.5t-53.5 -18.5t-58.5 -6
q-21 6 -44.5 13.5t-44.5 21.5q-21 11 -31.5 26t-15 32t-6 35.5t-4.5 36.5l2 13q-17 -3 -32 -5t-27 -3q-9 3 -8.5 13t5.5 15q26 10 69 18l5 34q-25 -5 -47.5 -16.5t-48.5 -11.5q3 7 3 15q0 13 2.5 24.5t16.5 13.5q20 3 40.5 6.5t36.5 14.5l6 -2q6 26 14 51t21 48.5t32 44.5
t46 39q9 -1 17 3t15.5 8.5t16 7.5t18.5 0q6 -3 13.5 -6t14 -7.5t10.5 -10.5t1 -14q-9 -9 -21 -10t-23 -1q-8 0 -17 -3q-51 -29 -76 -67t-36 -83q32 2 69.5 6.5t67.5 4.5q31 0 45 -12q-3 -17 -25.5 -24t-52.5 -9t-61 -2t-50 -3q-2 -8 -2.5 -15.5t-1.5 -15.5q55 7 111.5 10
t95.5 5z" />
    <glyph glyph-name="afii61352" unicode="&#x2116;" horiz-adv-x="751" 
d="M445 435q-4 -22 -6 -46.5t-7 -63.5q-9 -78 -17 -155t-25 -155q-10 -5 -17 -15l-5 -4q-3 -3 -7.5 -3.5t-14.5 4.5q-8 55 -24.5 106.5t-37.5 102.5t-44 103.5t-49 118.5q-10 -84 -28 -152t-37 -134t-35.5 -133t-21.5 -137l-14 -10q-4 -2 -8 -4.5t-9 -7.5q-14 11 -20.5 21.5
t-1.5 20.5q26 87 44 175t34.5 176.5t33.5 177t41 177.5q11 7 20 5.5t12 -8.5q11 -17 11 -32v-16.5t1 -16.5q0 -13 3 -25q11 -48 28 -91.5t36 -88.5t39 -90.5t40 -105.5q15 78 23 143t16 129q5 32 6 49.5t3 32.5q2 14 7.5 31t16.5 49q13 6 26.5 0t23.5 -18q-17 -38 -24.5 -63
t-11.5 -47zM685 468q5 -11 13.5 -21t5.5 -26q12 -16 5.5 -34t-13.5 -32q-12 -12 -18.5 -27t-23.5 -22q-20 -11 -45.5 -10.5t-43.5 14.5q-13 8 -19 19.5t-8 25t-1.5 28t0.5 27.5q3 15 11.5 30t20 27t26 21t30.5 12l2 -2q9 5 16.5 3.5t14.5 -7t13.5 -13t13.5 -13.5zM483 232
l8 20q16 -1 38 -0.5t45.5 0.5t45.5 -0.5t37 -1.5q13 6 27.5 2.5t28.5 -3.5q-1 -11 -3 -19.5t-10 -16.5q-8 2 -12.5 -1.5t-9.5 -5.5q-20 3 -43.5 6t-47.5 5.5t-47 5t-41 3.5zM588 445q-10 -16 -13.5 -37.5t7.5 -38.5q11 -6 23 -9.5t25 1.5q8 2 9.5 8t1.5 13v7
q-1 22 -13.5 37.5t-24.5 31.5z" />
    <glyph glyph-name="trademark" unicode="&#x2122;" horiz-adv-x="650" 
d="M186 486q-7 -48 -6.5 -99.5t10.5 -99.5q0 -14 -1.5 -19.5t-6.5 -16.5q-4 -8 -5.5 -19t-2.5 -17q-4 5 -7 9.5t-9 6.5q-8 2 -13.5 4.5t-7.5 11.5q3 34 3 59t-0.5 47.5t-0.5 46.5q0 12 1 26.5t3 31.5q2 11 2.5 22.5t-1.5 21.5q-13 4 -25.5 2t-25.5 3q-30 -5 -50 21q1 4 0 5
q-4 4 -2 10q11 13 25.5 11t28.5 -2q17 3 35.5 1t34.5 -12q17 -4 34 -2t32.5 2.5t30.5 -5t28 -24.5q-8 -5 -8 -8l16 -18h-112zM525 489q3 -43 18 -79q0 -14 6.5 -41t13.5 -54t12 -46.5t2 -18.5q2 -7 -4.5 -9t-15.5 0t-16.5 8t-7.5 15q0 25 -6 47t-15 43q-7 38 -20 73t-23 72
l-6 -7q-2 -18 -1 -35t2.5 -33t1 -32t-5.5 -33q3 -8 -1 -10.5t-9 -2.5q-4 0 -5 -1q-6 -2 -11 -6t-11 -2q-7 9 -13 20t-8 24q-11 47 -28 83q2 -18 -0.5 -34.5t-6 -33.5t-5.5 -34.5t1 -36.5q-5 -32 -5.5 -65.5t-2.5 -64.5q1 -11 -6 -13.5t-15 0.5q-7 3 -15 3.5t-10 12.5
q-1 31 4.5 62t3.5 63q7 17 4.5 36.5t2.5 38.5q5 18 6 36.5t1 37.5q0 20 1.5 39t6.5 37q6 4 11 4t10.5 -2t11.5 -4t12 -1l10 -4t8 -7q5 -25 13 -48t18 -45q5 17 5.5 37.5t7.5 37.5q-4 10 -1.5 14.5t7 8t8.5 7.5t4 12q16 6 25.5 -0.5t15.5 -18.5t10 -26t10 -24z" />
    </font>
</defs>
</svg>
